/* XPM */
static char *c0d99aa9d2e548a6ecb327a282cc535cMYDZyGAPjLCuzsa6[] = {
/* columns rows colors chars-per-pixel */
"64 64 230 2 ",
"   c #2C448C",
".  c #2D488B",
"X  c #334C8C",
"o  c #394B8B",
"O  c #3A548C",
"+  c #35538C",
"@  c #2C4492",
"#  c #2D4B93",
"$  c #2C459A",
"%  c #2D4B9D",
"&  c #264C9F",
"*  c #324D94",
"=  c #314C9B",
"-  c #314599",
";  c #2B539B",
":  c #335393",
">  c #33549C",
",  c #325A9D",
"<  c #3C5692",
"1  c #1C5CAA",
"2  c #1958A7",
"3  c #0D5EAB",
"4  c #2B4CA1",
"5  c #244DA1",
"6  c #314DA1",
"7  c #2454A4",
"8  c #2C53A3",
"9  c #245CAA",
"0  c #2B5BA9",
"q  c #285AA6",
"w  c #3354A2",
"e  c #345BA4",
"r  c #335CA9",
"t  c #365AA8",
"y  c #1363AE",
"u  c #1C62AE",
"i  c #0C66B1",
"p  c #0A69B4",
"a  c #096FB9",
"s  c #1565B1",
"d  c #0775BC",
"f  c #0F69B2",
"g  c #2161AD",
"h  c #2A65AE",
"j  c #3464AC",
"k  c #3764A8",
"l  c #2C6BB4",
"z  c #336BB3",
"x  c #3767B1",
"c  c #2D70B6",
"v  c #2675BB",
"b  c #2C73BA",
"n  c #237BBE",
"m  c #2B7BBD",
"M  c #3174BA",
"N  c #3979BB",
"B  c #43598D",
"V  c #44558E",
"C  c #475C93",
"Z  c #535E92",
"A  c #4C6294",
"S  c #466699",
"D  c #586B9A",
"F  c #5B719C",
"G  c #62749E",
"H  c #616E9B",
"J  c #5D6EA1",
"K  c #5675A8",
"L  c #426CB4",
"P  c #437DBD",
"I  c #4A7CBE",
"U  c #4675B8",
"Y  c #4F73B3",
"T  c #697AA6",
"R  c #767FAA",
"E  c #0A7CC2",
"W  c #187DC2",
"Q  c #237CC2",
"!  c #2C7DC2",
"~  c #347DC1",
"^  c #497EC1",
"/  c #537DC4",
"(  c #3181BE",
")  c #2080BC",
"_  c #4982BE",
"`  c #7584AA",
"'  c #7C8BB4",
"]  c #6B85AF",
"[  c #1C8DCC",
"{  c #1787C9",
"}  c #1691CE",
"|  c #1A91CE",
" . c #0D9DDA",
".. c #0C97D6",
"X. c #1594D2",
"o. c #1B94D2",
"O. c #149AD6",
"+. c #129CD9",
"@. c #1B9BD7",
"#. c #0C8ACD",
"$. c #2383C4",
"%. c #2B84C6",
"&. c #2485C9",
"*. c #228ACB",
"=. c #2C8CCB",
"-. c #2687C7",
";. c #3383C3",
":. c #338ACB",
">. c #3C8BCB",
",. c #3C85C6",
"<. c #2992CF",
"1. c #3691CE",
"2. c #2A8DD1",
"3. c #2395D1",
"4. c #2998D4",
"5. c #3495D2",
"6. c #379BD6",
"7. c #05A6DE",
"8. c #0BA3DD",
"9. c #0AA5DB",
"0. c #16A1DB",
"q. c #31A1DB",
"w. c #04ACE4",
"e. c #0CABE4",
"r. c #08A8E3",
"t. c #13A9E2",
"y. c #04B3E7",
"u. c #05B4EB",
"i. c #09B3EA",
"p. c #08B5EA",
"a. c #05B5F0",
"s. c #23B7ED",
"d. c #29B0E9",
"f. c #4C83C4",
"g. c #438AC9",
"h. c #4C8CCB",
"j. c #4585C4",
"k. c #5384C4",
"l. c #558ACB",
"z. c #5A86C7",
"x. c #4C93CD",
"c. c #4393CE",
"v. c #5393CE",
"b. c #5A94CE",
"n. c #4C96D1",
"m. c #4A99D3",
"M. c #4498D3",
"N. c #5698D2",
"B. c #628BC9",
"V. c #6793CC",
"C. c #6C99D2",
"Z. c #759DD4",
"A. c #77A5D8",
"S. c #959394",
"D. c #9C9A9B",
"F. c #999698",
"G. c #8B8A8B",
"H. c #A09D9E",
"J. c #8895B7",
"K. c #929CBA",
"L. c #8E96AA",
"P. c #A19EA0",
"I. c #9AA4B1",
"U. c #A5A3A4",
"Y. c #A8A6A7",
"T. c #A9A7A9",
"R. c #ADABAC",
"E. c #AAA9A8",
"W. c #B0AEAE",
"Q. c #B2B1AE",
"!. c #AEAEB2",
"~. c #A7ABBA",
"^. c #B1AFB1",
"/. c #B4B3B3",
"(. c #B8B6B7",
"). c #B5B4BA",
"_. c #B9B7B9",
"`. c #BDBBBC",
"'. c #BAB9B7",
"]. c #AEB0B7",
"[. c #9FA19E",
"{. c #C0BEBE",
"}. c #C3C1BE",
"|. c #909DC2",
" X c #9BA9C5",
".X c #87A4CE",
"XX c #A5ADC9",
"oX c #ABB4CB",
"OX c #BEBDC1",
"+X c #B3B8CA",
"@X c #B5BCD4",
"#X c #ABB4D1",
"$X c #C1BFC1",
"%X c #BCC2CC",
"&X c #BCC4D7",
"*X c #BECDE4",
"=X c #C4C3C4",
"-X c #C8C6C7",
";X c #C6C4C9",
":X c #C9C7C9",
">X c #CDCBCC",
",X c #C9C9C7",
"<X c #D0CECE",
"1X c #D2D1CF",
"2X c #CDCDD2",
"3X c #C5CBDD",
"4X c #C6C9D7",
"5X c #D1CFD2",
"6X c #CCD2DB",
"7X c #CED1D4",
"8X c #D4D3D4",
"9X c #D9D6D6",
"0X c #DADAD6",
"qX c #D5D4DA",
"wX c #D9D6DA",
"eX c #DCDADB",
"rX c #D7DAD7",
"tX c #CFD0CC",
"yX c #E0DDDE",
"uX c #E0D6DE",
"iX c #C9CDE2",
"pX c #CDD1E2",
"aX c #DEDCE1",
"sX c #D6D9E7",
"dX c #E2DFE1",
"fX c #E5DFEB",
"gX c #E4E2E3",
"hX c #E8E7E9",
"jX c #F3F1F2",
"kX c #E0E1E4",
/* pixels */
"wXwXwX8XeXeX9XeXdXeX8X-X=X>X<X8X<X5X<X5X<X>X>X<X8X8X9X5X>X>X8XwXqXwXwXqXwXwX8X8X9XeXeX9X8XeX9X>X`._.=X`./.`.`.=X=X`.^.R.Y.Y.R.R.",
"9X9XwX8XeXeX8X8X8X8X<X>X>X5X8X8X8X8X8X8X8X8X8X8X9X9X9X1X8X8X8X8X6X4X%X%X%X4XqXqX9X0XeX9X8XeX8X>X`.`.=X`.^.(.`.=X=X`.R.R.U.Y.U.U.",
"9XwXwX9XeXdX8X=X`.=X>X9X9X8X9X8X8X9XeXeXeXeXeXeXuX9X0XrXeXeXqX6X@X` F F F T XXpXeXeX0X9X8XwX1X>X{.`.=X`.E./.`.=X$X`.^.R.U.D.D.D.",
"9XeX9X8XdXgX9X=X_.=X>X9X9X9X9X9X9X9XeXeXeXeXeXeXuXeX0X0XeXwXqX3X` S K K K S T &XeX0X0X9X8XwX8X,X$X`.=X_.T.W.`.=X=X`./.E.Y.D.D.D.",
"8X9X8X8XeXeX8X=X_.`.>X9XwX9X8X8X8X9XeXwXeXeXeXeXeXeXeXeXyXaXpXJ.B K Z..XA.] A K.sXeXeXwX8XeX9X>X$X`.=X`.E.^._.=X=X`./.R.R.D.S.F.",
"8X8X8X5X5X<X>X=X`.=X>X5X5X>X=X=X=X>X9X9XwXeXeXeXeXeXeXdXdXsXXXB : B.A.A.A.Z.K D *XsXwX8X8XrX8X>X=X{.=X`././.`.{.{.`./.R.T.S.G.S.",
"<X>X<X8X>X>X>X=X{.=X>X>X<X>X`.`.=X>X8X8X9XeXeXeXeXeX0XdXfXiXF . k V.A.A.A.A.I < ` iXwX8X8X0X9X>X=X{.=X`./.).`.`.`.`./.W.T.S.G.S.",
"5X8X8X8X>X>X>X=X$X=X>X>X>X:X`.`.$X:X8X5X9XwXeXeXeXeXeXdXpX` X   k V.A.A.A.Z.z., O  XqX8X8X8X8X>X=X`.=X{.).(.`.{.{.`.)./.R.S.G.S.",
"<XeX9X>X-X=X=X-X-X:X:X-X-X=X`.{.{.=X=X:X>X>X>X8XeXyXgXsX|.o   @ L C.Z.C.C.C.B.k # T 4X8X<X,X>X-X{.`.=X{.`.`.`.=X`.`.`.).Q.U.D.U.",
"5XeXeX>X=X=X=X:X>X>X-X=X=X=X$X`.{.$X$X=X=X=X=X>XeXgXsXXXB   @ % Y V.C.V.C.C.B.k # C  XqX>X}.=X:X`.`.=X=X$X`.{.=X$X`.`.`.).R.E.R.",
">XyXeX>X=X=X=X>X>X>X:X=X=X=X$X{.{.{.$X=X=X=X=X>XaXgX&XD X @ $ = / V.V.V.V.V.z.L w # J &X>X{.=X=X`.`.=X=X=X{.{.$X$X`.`.`.(.R.Y.R.",
">XgXeX<X:X=X=X=X=X=X=X=X=X=X`.`.`.{.=X$X`.`.`.;XsXiXT X @ $ $ w / B.B.B.B.B.z.U > # X J.3XOX=X=X>X:X=X=X$X`.`.`.`.`././././././.",
"8XgXeX8X>X=X-X=X=X=X=X=X=X`.(.).`.`.$X{.`././.OX3XJ.O @ = - $ w / z.z.z.B.z.z.U > % @ C #X%X`.>X9X9X>X$X`.`.)./.)./.R.R.E.).(.).",
"8XgXyX8X>X=X-X=X=X=X=X=X=X`.).)._.`.=X=X_.Q.^.+XXXC # = = - $ t z.k.z.z.z.k.k.U t % @   T +XOX=X9XeX>X=X`.`.)./.)./.R.Y.R./.`.).",
">X8X8X>X>X>X-X=X{.=X=X`.`.`.)./.).`.=X}.{.).OX@XJ . = = 6 $ % L / k./ / / k.k.I t % % @ < |.%X}.>X5X=X`.'././.R.W./.R.R.R./.).).",
"`.`.`.`.>X9X>X$X_.$X`./.R./././.).`.=X}.=X=X@X` X * w w 6 % % L ^ f.f.f.k.^ I I t % $ $   D +XOX=X=XOX).Q.R.E.Y.R.R.!.^././././.",
"`.`.`.`.8XeX8X=X^.(.(.R.E.R.).'.`.`.OX`.=X%XJ.O : w > 8 4 % % L I ^ ^ ^ P P P I k $ $ $ @ o J.OX=X;X`.)././.R.U.Y.R.R././.W.W.^.",
"$X`.`.`.9XgXeX=XY.^./.R.T.E.).`.`.`.`.`.=X+XD : e r r 8 8 % > N P P ^ P N N N N x % $ $ @   Z oX;X=X`.'././.R.U.T.E.^./././.W.W.",
"`.).(.`.9XeX5X`.T.`.`.R.W.R.Q././.`.=X=X4X XC , x z h h 0 7 q N ;.;.;.;.( ( ( ~ M 8 $ 4 $ @ o K._.(.'.W.Y.R.R.R.E.R././././.W.W.",
"(./.).`.wXhX9X`.Y.).`./.^.W.Q././.`.=X-X4XJ.: j z c b c h h v 5.6.q.6.6.q.6.6.6.5.l 4 $ $ @   ' )././.E.H.U.E.R.R.Q./.(.).W.R.R.",
"/./.).`.eXjXhX-XU.W./.!.!.!./././.`.-X=X4XT : j c b v v b v *.d.s.s.s.s.s.s.s.s.d.Q & $ $ $   T ~././.E.F.P.Y./.Q././.'.(.R.T.R.",
"R.R.W./.8XdXeX>X`.=X`.^.R.R.R.E.E.R.^.^.XXD , z c m v n n W X.t.i.i.i.i.i.i.y.i.t.W 7 $ $ -   J +X;X=X`.^._.`.=X}.`.Q.R.R.R.Y.R.",
"E.R.E.R.>XeX9X>X=X-X$XR.R.T.U.H.[.U.Y.~.J.O e z b m n n Q { X.e.y.y.u.y.u.y.y.y.e.{ 2 $ $ - @ C @X7X>X=X`.$X,X8X>X=XR.Y.Y.U.P.U.",
"R.W.R.R.8XhXgX5X$X`.`.R.R.Y.F.S.F.D.U.~.T : j c m n n Q Q { O.e.y.w.y.y.u.y.y.u.e.#.2 $ $ - @ O #X6X>X=X_.`.-XeX0X:XR.P.U.D.S.F.",
"R.R.R.R.>XgXeX>X=X=X{.W.R.Y.H.D.H.D.[.K.C , x b m n $.$.$.{  .e.y.u.y.u.u.y.y.u.i.#.1 5 $ $ - o K.6X>X=XOX{.}.tX>X=X^.Y.Y.P.D.D.",
"R.R.R.R.>XdX9X>X=X>X=X/.R.E.Y.T.Y.[.[.J.X e z b Q $.$.$.$.{  .i.u.u.u.u.u.y.y.u.i...y 2 5 $ $ X R 6X2X>X-X-X{.'.$X$X/.^.R.Y.U.U.",
"Y.R.R.W.8XhXgX5X}.-X=X/.Q.W.R.T.Y.D.L.T # k c ! $.$.$.$.{ { 8.i.u.u.u.u.u.u.p.u.y...i 2 5 % - . J pX2X>X-X=X$X/.(.`.`.).).T.U.U.",
"Y.R.R.R.<XhXdX8X=X-X=X/.Q./.!.R.E.P.L.A ; x b Q $.$.$.$.&.} 8.i.u.u.p.u.p.u.u.u.i.+.a 2 7 % %   A 3X2X>X,X>X=X`.{.=X=X=X=X).W./.",
"T.Y.R.R.=X8X8X<X>X>X=X)./././.Q.W.T.J.O , z b $.$.$.&.$.&.X.t.i.p.u.p.p.p.u.u.u.i. .a 3 2 & % @ O oX2X<X>X>X2X>X<X1X8X8X8X>X>X>X",
"Y.D.D.R.>XhXdX>X`.`.=X{.`.`././.R.~.T + j l ! &.&.-.&.*.*.o.t.i.u.u.p.p.p.u.p.u.u. .d 3 2 5 % @ X J.qX8X8X8X5X>X>X1XwXeXeXeXeXeX",
"Y.F.D.R.8XhXhX>X/.(.=X=X=XOX)././.~.D : j c ! &.&.*.*.&.*.o.t.i.p.a.u.p.u.p.p.u.u.r.d 3 1 7 4 @ X ` pXwX0X9X8X>X-X5XeXaXeXeXeXeX",
"Y.H.P.Y.=XeX9X<X:X>X=X`.).)././.!.K.C e z m $.&.&.*.*.[ [ X.e.i.p.a.p.p.p.p.a.u.p.r.E 3 1 2 4 $   H 3XqX8X8X8X<X<X8XeXeXeXeXeXeX",
"R.U.H.Y.=X9X8X8X>X>X=X/.R.W.^.!.].` : j z m -.*.*.*.[ [ [ X.e.i.p.p.p.p.p.a.a.p.u.r.#.3 1 1 5 %   C @XqX9X1X8X8X8X9XeXaXeXeXeXeX",
"R.H.D.Y.-XeXwX8X>X>X$XR.E.E.E.!.~.F : j M %.*.*.*.[ [ [ [ O.e.i.p.p.p.p.p.p.p.p.p.r.#.i 1 1 7 % - V XX6X0X8X8X8X8X9XeXaXeXeXeXeX",
"R.Y.Y.R.=X8X8X5X>X<X=X^.R.W./.].K.B , z b &.*.*.*.[ [ [ X.+.e.i.u.p.p.p.p.p.p.p.p.r.#.p y 1 7 4 % X |.6X9X8X8X8X8X8XeXeXeXeXeXeX",
"W.R.W./.=X<X<X>X>X>X=X)./././.].' X e z m -.*.[ [ [ [ } X.+.r.y.u.u.p.p.p.p.a.p.p.e.#.p y y 9 4 %   ' 4X8X8X8X8X9X8X9XeXeXeXeXeX",
").W.^.).=X8X>X>X>X>X=X_.).).!.~.T ; j M $.*.[ [ [ [ } } X.+.e.w.y.y.u.u.u.p.p.p.p.e.#.a y y 1 8 = . ` 4X8X8X8XwX9X8X9X9X9XeXgXgX",
")././.).=X<X>X>X>X>X=X)././.].I.A , x M -.[ [ [ | [ | } X.+.r.w.y.y.u.u.u.u.p.p.p.e...a i y 9 7 % @ G %X5X8X8XwX9X8X9X9X9XeXgXyX",
").).).).=X>X>X>X>X>X=X/.^.W.^.K.O r z ! &.[ [ | } } } X.X. .r.w.y.u.u.u.u.u.u.u.u.e...a i y u q 4 # A #XqX8X8XwX9X8X9XeX9XeXeXeX",
").(.).).=X>X>X>X>X>X=XR.R.R.].T : j z ! &.[ [ [ | } o.X.X. .7.w.w.w.w.u.w.u.u.y.u.i...d i y u 9 8 % V  X2X8X8XeXeX9X9X9X9XeXeXeX",
"/././.).=X>X>X<X<X<X=XR.R.R.XXA : h M %.*.[ [ [ [ | | o.X.+.r.w.w.w.w.w.w.w.u.y.u.i...d i i s 9 8 = <  X2X5X9XwXwX9XwX9X9XeXeXeX",
"R.W.R.R.$X>X>X>X>X>X=XW.R.].K.O , z ~ -.*.[ [ [ | | | o.@.+.r.w.w.w.w.w.w.w.w.w.y.w. .d p f s 9 8 = o J.6X8X8XwXwXqX8X9X8XwXwXwX",
"U.^.R.U.$X9X8X>X=X-X=X/./.oXG + k c ! &.*.[ [ | | | o.o.@.0.8.7.7.w.w.w.w.w.w.w.w.w. .d p f y g 8 % * T 6X8XqXwXwX8X2X2X2X9XwXwX",
"D.^.R.F.`.eX9X>X=X=X=X).).~.A : j b %.-.*.*.[ [ [ o.o.o.@.0.8.7.7.r.w.w.w.w.w.w.w.w. .d p y s g q 8 * A 3X8X8XwXwX8X>X=X>X9XeX9X",
"D.R.U.F.`.9X8X>X=X>X=X/.^.J.+ e z m -.*.*.*.[ [ o.3.o.4.@.0.0.9.7.7.7.7.7.7.w.w.w.w. .E p y s g q 8 # C &XqX9X9XwX5X>X:X>X8X8X5X",
"F.R.R.D.`.<X>X>X<X5X=X^.].` X j z m &.*.*.*.[ o.3.3.3.4.4.@.0.9.8.8.7.7.7.9.7.r.r.r...E p y u g 9 8 * <  X6X9XwX9X8X>X>X>X5X5X>X",
"F.`.).P._.>X>X8XeX9X>X`.XXF : j M ;.&.-.-.*.*.3.3.3.3.4.4.4.O.+. . .8.8.8.9.7.8.7.8. .E p y u u g 8 > X ` pXqXwXwX8X5X>X>X>X>X>X",
"S.R.T.D.).>X>X8X9X8X;X).K.B e z M ! &.&.-.*.2.<.<.4.4.4.4.4.X.O.+.+.+. . .8.8.8.8.8. .E p s u u g 0 > X H pX5XqX8X1X>X>X>X>X>X>X",
"P.R.R.U.`.>X<X<X8X8X=X+X' O k z ~ %.&.-.-.2.=.<.<.5.4.6.4.4.} X.O.O.+.+.+. . . .8.8. .E i y y u g 0 w # Z &X2X5X8X>X:X;X;X=X=X=X",
"`.=X;X{.=X>X>X8X8X1X>X&XJ : j c ! &.-.-.=.2.2.5.5.5.5.6.6.4.| X.o.o.O.@.O.+.+.+. . ...E i y u u g 0 w * V XX;X>X>X=X$XOX`.`.`.`.",
"}.>X>X}.-X>X>X<X8X1X2X@XC > j c m %.%.:.:.:.:.<.5.5.6.6.6.3.| | [ o.X.X.X.O.O.@.+.+.O.W i y 1 u g 0 t = o J.;X>X:X-XOX`.`._._._.",
"}.>X=X=X-X>X>X<X8XtX2XK.< e z b ! %.%.:.:.:.5.5.5.5.6.6.6.<.[ [ [ [ [ | } X.X.o.o.X.X.W i 1 1 1 g 0 t > . ` 4X:X-X=XOX`.`._.)._.",
"=X>X>X}.=X=X>X<X>X7X3XD + k z M ~ %.:.:.:.>.1.5.5.1.M.6.6.<.*.[ [ [ [ [ [ | | | o.X.o.W y 1 1 1 9 0 r w # T 4X;X:X:XOX`.`./.R./.",
"=X5X5X=X=X,X:X5X<X7X@XB : j z m ;.;.:.>.>.>.1.1.1.c.m.M.6.=.*.*.*.*.[ [ *.[ [ [ [ [ [ W y 1 2 1 9 0 t w # H @X;X-X=XOX`.`./.R./.",
"=X2X>X=X=X>X2X5X5X2XJ.X e j M m ;.,.:.>.>.>.c.c.M.M.m.m.M.=.-.-.*.*.*.*.*.*.&.*.[ [ *.W y 2 2 9 9 0 0 t * A oX;X:X=X`.`._././.).",
"2X8X<X>XwXeXeXeXeX6XT # k x N ~ ,.,.>.g.g.g.c.c.m.n.m.m.M.=.&.&.&.&.$.-.&.&.&.&.*.[ *.n y 2 2 9 9 0 0 t * B XX4X>X>X=X`.OX`.`.`.",
"9X8X<X8XgXhXhXgXgX&XA > j z N ~ ,.,.g.g.g.h.x.x.n.n.n.m.m.:.&.&.&.&.&.&.&.$.&.$.$.&.$.n u 2 7 q q 0 0 t w + |.6X5X5X=X=X$X=X$X=X",
"8X8X1X9XgXhXgXgXkX XO r x z N j.j.j.g.g.h.h.x.x.n.n.n.N.m.;.-.&.$.&.$.$.$.$.$.$.$.$.$.n u & 7 8 8 0 0 r w X ' 6XqX5X=X=X=X=X=X=X",
"8X<X<X8XeXdXaXaXsX' < j x N N j.j.j.g.h.h.h.x.x.n.v.N.N.n.%.$.$.&.$.$.$.$.$.$.$.$.$.Q v 9 7 8 8 8 8 r r e + T 3X5X5X-X=X;X=X=X=X",
"8X>X>X1X8X9XeXaX3XD > j x N P _ j.j.f.h.h.h.v.v.v.N.N.N.n.%.$.$.$.$.$.$.$.$.$.$.n n n v 9 & 4 8 w 8 0 t t : D &XqX5X>X>X:X=X=X=X",
"5X>X>X1X8XqXwXeXoXC , j x U P _ f.j.f.h.h.h.v.x.v.N.N.N.n.%.Q $.Q Q Q $.n n n n n n v b 9 4 4 % w t 0 r t > C #XqX5X2X>X:X-X=X=X",
"8X>X>X8X8XwXeXpXJ.+ e x x U I _ _ f.f.l.l.v.v.v.N.N.N.N.n.! n Q Q Q n n n n Q Q n n v b 0 4 4 % w 8 t r t , < XX5X5X7X2X>X;X;X;X",
"0X8X8XwXwX8XwX3XF > j z L I I _ f.k.l.l.l.l.v.b.b.b.b.N.x.m n Q Q n ) n Q Q n Q Q v v b 0 4 4 6 w 8 e r r , + K.4X<X7X2X2X>X>X>X",
"eX0X0XeX9X8XwX#XC > r j L I ^ _ f.k.k.l.l.l.b.b.b.b.b.N.h.m n Q Q n n n n n n v v v b c 0 % % % 8 8 r t r t X ` 4X>X8X7X5X2X>X2X"
};
