/* XPM */
static char *collectible[] = {
/* columns rows colors chars-per-pixel */
"64 64 196 2 ",
"   c #8F0A00",
".  c #940A00",
"X  c #9D0D01",
"o  c #9E1301",
"O  c #A30E01",
"+  c #A90E01",
"@  c #B10F02",
"#  c #A31301",
"$  c #AC1301",
"%  c #A31E01",
"&  c #AC1D03",
"*  c #B41401",
"=  c #B31A02",
"-  c #BC1B02",
";  c #BD1502",
":  c #A42101",
">  c #AE2B02",
",  c #AC2002",
"<  c #B52401",
"1  c #BB2402",
"2  c #B62D01",
"3  c #BA2D02",
"4  c #B43603",
"5  c #BC3302",
"6  c #C41C02",
"7  c #C81F02",
"8  c #C32502",
"9  c #C32C03",
"0  c #C92C03",
"q  c #CC2402",
"w  c #C33403",
"e  c #CF3103",
"r  c #C33B03",
"t  c #CB3E03",
"y  c #D43F01",
"u  c #BB4704",
"i  c #BE4B04",
"p  c #C94503",
"a  c #CB4C04",
"s  c #C24501",
"d  c #D34203",
"f  c #DC4303",
"g  c #D54B04",
"h  c #DB4C03",
"j  c #D54D09",
"k  c #C55204",
"l  c #CE5303",
"z  c #DC5303",
"x  c #D25C03",
"c  c #DE5D06",
"v  c #D34D11",
"b  c #D84910",
"n  c #E15502",
"m  c #E55D03",
"M  c #E85F02",
"N  c #E15D15",
"B  c #CE6505",
"V  c #D76303",
"C  c #DE6403",
"Z  c #DD6A03",
"A  c #D16805",
"S  c #D77206",
"D  c #DB7707",
"F  c #DB7A07",
"G  c #E46302",
"H  c #EB6302",
"J  c #E46C04",
"K  c #ED6B02",
"L  c #F26601",
"P  c #F46A01",
"I  c #FE6E00",
"U  c #E37405",
"Y  c #ED7502",
"T  c #E37A07",
"R  c #EC7A02",
"E  c #F27301",
"W  c #FE7400",
"Q  c #F57D01",
"!  c #FE7B01",
"~  c #EA741C",
"^  c #E36D20",
"/  c #ED7F22",
"(  c #E67821",
")  c #E38307",
"_  c #EF8408",
"`  c #E68A08",
"'  c #E98C08",
"]  c #EB8A07",
"[  c #F58401",
"{  c #FE8401",
"}  c #FE8D01",
"|  c #F18908",
" . c #F18C05",
".. c #EC9308",
"X. c #EF9A08",
"o. c #FF9100",
"O. c #FF9B04",
"+. c #F39409",
"@. c #F49B0A",
"#. c #F99D09",
"$. c #FA9609",
"%. c #F79D18",
"&. c #F19415",
"*. c #FFA506",
"=. c #FFAA06",
"-. c #F7A109",
";. c #FBA50A",
":. c #FEAC0A",
">. c #FFB10A",
",. c #FEAA13",
"<. c #FEAD1C",
"1. c #FEB412",
"2. c #FEB51A",
"3. c #FFB91E",
"4. c #F29A3B",
"5. c #FEAE23",
"6. c #FEB323",
"7. c #FEB925",
"8. c #FEB22B",
"9. c #FEBB2D",
"0. c #FBAD35",
"q. c #FDB535",
"w. c #FEBC34",
"e. c #FDB63A",
"r. c #FEBC3B",
"t. c #FEC03C",
"y. c #F4A146",
"u. c #FDBC43",
"i. c #FDBD4D",
"p. c #FEB441",
"a. c #FDBF52",
"s. c #F8B860",
"d. c #FABE6D",
"f. c #FEC345",
"g. c #FEC14D",
"h. c #FEC352",
"j. c #FEC45D",
"k. c #FECA5C",
"l. c #FCC462",
"z. c #FECA62",
"x. c #FECB6B",
"c. c #FDCD74",
"v. c #FCCB7B",
"b. c #FAC277",
"n. c #FED077",
"m. c #FDD07C",
"M. c #FECF88",
"N. c #F7CC82",
"B. c #FDD384",
"V. c #F6D08F",
"C. c #FED58B",
"Z. c #FED88D",
"A. c #F6D293",
"S. c #FDD392",
"D. c #FED994",
"F. c #F5D399",
"G. c #FEDC9C",
"H. c #F8D69B",
"J. c #F6D9A7",
"K. c #FDDDA4",
"L. c #FDDFAB",
"P. c #F7DDB2",
"I. c #FEE0A6",
"U. c #FEE1AB",
"Y. c #FDE3B5",
"T. c #F7E1BC",
"R. c #FDE5BC",
"E. c #FEE8BF",
"W. c #F4E2C3",
"Q. c #FDE7C2",
"!. c #FEE9C4",
"~. c #F3E4CC",
"^. c #FEECCB",
"/. c #FEEED3",
"(. c #F1EADE",
"). c #FBEED9",
"_. c #F1E6D4",
"`. c #FFF0D7",
"'. c #FFF2DC",
"]. c #EFEBE6",
"[. c #EDEDEE",
"{. c #F4EDE3",
"}. c #F8EFE0",
"|. c #F1EEE9",
" X c #F6F0E5",
".X c #FDF4E3",
"XX c #F5F1EC",
"oX c #FDF6EA",
"OX c #FEF8EE",
"+X c #EFEFF0",
"@X c #EFF0F2",
"#X c #F4F4F5",
"$X c #F9F6F3",
"%X c #FDFAF3",
"&X c #F7F7F8",
"*X c #FCFCFC",
/* pixels */
"*X*X*X#X[.#X*X*X$X+X+X*X*X&X#X[.&X*X*X#X+X+X*X*X*X[.[.$X*X*X$X+X+X&X*X*X+X[.#X*X*X&X[.[.*X*X*X+X[.#X*X*X#X[.+X&X*X*X+X[.#X*X*X&X",
"*X*X&X[.[.&X*X*X#X+X@X*X*X*X[.[.#X*X*X$X[.+X*X*X*X+X+X$X*X*X$X+X+X*X*X*X+X[.$X*X*X#X[.+X*X*X*X+X[.#X*X*X#X+X[.*X*X*X[.[.#X*X*X&X",
"*X&X&X#X#X$X&X*X#X#X#X&X&X$X#X#X#X*X*X&X@X#X&X&X&X#X@X&X*X&X&X$X#X&X*X&X#X#X&X*X&X$X#X#X&X&X&X$X#X$X*X&X$X#X#X&X*X&X#X#X$X&X*X&X",
"[.[.#X*X*X&XXX[.&X*X*X+X+X#X*X*X&X[.+X&X*X*X#X+X@X*X*X&X[.[.&X*X*X@X+X+X*X*X&X+X@X&X*X*X#X[.#X*X*X&X[.#X&X*X*X@X+X#X*X*X&X+X+X$X",
"[.[.#X*X*X&X[.[.*X*X*X@X[.@X*X*X&X[.[.&X*X*X@X+X#X%XOXoX X.X.X.XoX X XXX*X*X&X[.+X&X*X*X+X+X@X*X*X&X[.[.&X*X*X#X[.@X*X*X*X[.[.$X",
"$X$X&X$X&X&X&X&X&X&X$X$X$X&X&X&X&X&X$X$X&X$X X'..X'.'.'.`.`.^.^.^.^.'.'..X.XOXXX$X$X&X&X&X&X$X#X&X&X&X&X&X&X&X#X$X&X&X&X&X#X#X&X",
"*X*X*X+X[.#X*X*X#X[.+X*X*X*X+X[.$X*X*XXX X'.'.`.!.I.B.k.f.w.9.7.9.t.f.k.B.U.^.'.oXXX[.[.*X*X*X+X+X#X*X*X$X[.+X*X*X*X+X[.$X*X*X&X",
"*X*X*X[.[.$X*X*X@X[.#X*X*X&X[.+X$X*XoX'.'.'.`.x.9.,.=.*.*.O.*.O.*.*.=.=.>.1.w.k.G./..XXX*X*X*X+X[.#X*X*X$X+X[.&X*X*X+X+X#X*X*X&X",
"#X#X&X&X&X$X#X#X&X&X&X$X#X#X&X&XoX'.'.'.'.'.'.c.O.o.o.o.o.} o.o.} } o.o.O.*.*.>.>.t.Z./.oXXX$X*X&X$X#X#X&X*X&X#X#X#X&X*X&X#X#X#X",
"[.[.#X*X*X$X[.[.&X*X*X[.[.@X*XoX'.'.'.'.'.`.'.S.o.o.o.o.o.o.o.o.o.o.o.o.o.} o.O.*.=.>.t.G.). X*X*X&X[.[.&X*X*X@X[.@X*X*X&XXX+X$X",
"[.[.$X*X*X&X@X@X*X*X*X#X+XXX.X'.'.'.'.'.'.'.'.v.o.o.o.o.o.o.o.o.o.o.o.o.o.o.o.o.O.=.>.>.1.j.!..X*X&X+X+X$X*X*X#X@X#X*X*X&X+X+X#X",
"*X*X&X@X@X&X*X*X$X@X#X&X%X'.'.'.'.`.'.'.'.'.`.p.O.O.o.o.o.o.} o.o.o.o.o.o.O.*.;.>.>.>.>.>.=.e.L. X$X*X*X#X#X+X*X*X&X#X[.#X*X*X&X",
"*X*X*X[.[.$X*X*X@X[.+X%X'.'.'.'.'.'..X.X.X.XK.,.*.O.O.o.o.o.o.o.o.o.o.o.*.:.>.>.>.=.:.*.O.=.*.5.D.'.*X*X#X[.+X&X*X*X+X+X#X*X*X&X",
"*X&X&X#X#X&X*X&X#X#XXX.X'.'.`.'.'..X.XoXoX.Xc.r.8.1.:.:.*.O.o.o.o.o.O.=.>.>.>.>.=.O.o.o.} } *.*.<.D..X&X$X#X#X&X*X&X#X$X#X&X*X&X",
"[.[.#X*X*X&X[.[.&X*X.X'.'.'.'.'..X.XoX%XOX!.C.x.u.9.2.>.>.>.:.O.o.O.:.>.>.;.=.O.o.o.o.o.o.{ } *.*.<.G.{.&X*X&X#X+X#X*X*X&X+X[.$X",
"[.[.#X*X*X$X[.[.*XOX'.`.'.'.'..X.XOXOX%X'.Y.K.v.4.w.3.1.>.>.>.>.:.>.>.>.:.C } o.o.o.} o.o.} ! { *.*.8.U.%X*X*X@X[.+X*X*X&X[.[.&X",
"$X&X&X&X&X&X#X&X$X'.^.!.'.'.'..XOXOX%X.X^.E.Y.l.^ q.3.1.>.>.>.>.>.>.>.>.| 1 U o.o.o.o.o.} [ { ! } *.*.p.^.&X&X$X$X#X&X$X&X&X#X&X",
"*X*X&X+X[.$X*X*X.X'.C.!.'.'.'..XOXOX'.!.!.R.K.y.v ( %.+.-.>.>.>.:.#.#.+.z + s Q Q [ } o.o.{ Q ! I $.*.=.x.(.[.*X*X*X+X[.#X*X*X&X",
"*X*X*X+X+X$X*X%X'.U.r.^.'.'..X.X'.E.Y.R.L.S.s./ b 0 1 5 ' >.>.>.>.T w 8 6 * * - < G o.o.o.} P Q W ! *.*.<.J.|.&X*X*X+X+X#X*X*X&X",
"$X#X$X&X&X$X#XoX'.h.:.M.`.`.!.G.n.Z.K.U.L.b.( N v # 4 X.>.>.>.>.>.:.F : $ 9 o % Z o.o.o.o.o.Q K I I } *.*.h. X#X$X&X&X&X$X#X#X&X",
"[.[.#X*X*X&X[.'.I.1.O.$.0.r.9.9.g.z.m.B.v.x.~ 0 8 # D 1.>.>.>.>.>.>.>.c @ * X k o.o.o.o.o.o.[ G P I ! ;.*.,.L.#X[.#X*X*X&X+X[.#X",
"+X[.#X*X*X&X X'.k.*.o.o.o.:.>.3.w.t.g.h.g.e.j 2 z * k >.>.>.>.>.>.>.:.g % a - 4 $.o.o.o.o.o.} H H I I o.;.*.j.|.[.#X*X*X&X@X+X&X",
"*X*X&X#X#X$X.X!.7.*.} o.O.1.z.t.1.6.7.7.7.&.x @.>.T a ;.>.>.>.:.>.>.#.l ` >._ p  .o.o.o.o.o.o.K M P I { *.*.<.^.*X&X@X@X#X*X*X$X",
"*X*X&X[.[.XX.XZ.:.O.o.} *.k.^.f.>.1.1.1.1.;.,.>.>.>.-.;.>.>.>.>.>.>.-.;.>.>.>.;.;.O.} o.o.o.o.P m L I W O.;.*.Z.*X*X+X+X#X*X*X&X",
"*X*X$X#X#XXX'.k.=.o.o.o.;.G.D.1.>.>.>.>.>.>.>.>.>.>.>.>.>.>.>.>.>.>.>.>.>.>.:.:.>.O.o.o.o.o.o.Y m H I I o.*.*.a.*X&X$X@X#X&X*X&X",
"@X[.#X*X*XOX^.w.*.o.o.o.:.t.2.>.>.:.>.>.>.>.>.>.>.>.>.>.>.>.:.>.>.>.>.>.>.>.*.:.>.*.o.} } o.o.E m M I I } *.*.q.(.#X*X*X*X+X+X$X",
"[.[.#X*X*XOXY.2.*.o.o.o.*.>.>.>.;.D >.>.>.>.>.>.>.>.>.>.>.:.T ;.>.>.>.>.>.>.O.=.>.=.o.U R o.o.E m m P I { ;.*.<.~.@X*X*X&X[.[.#X",
"#X#X$X&X&X.XG.>.O.} o.o.*.>.>.>.] 4 X.>.>.>.>.>.>.>.>.>.:.%.w ) >.>.>.>.>.:.O.*.>.*.} t x o.} K m m P I ! ;.*.,.T.&X&X&X&X#X#X&X",
"*X*X*X+X[..XB.>.O.o.o.} *.;.;.;.z $ A ;.;.;.:.>.>.>.;.;.;.J @ s #.;.-.:.>.>.o.O.;.#.K ; > [ [ H n m L I ! ;.*.,.E.*X+X[.#X*X*X&X",
"*X*X&X+X[..Xn.>.O.o.o.o.$.Z r 0 6 * = 8 3 T >.>.>.:.) r 0 7 * * 8 3 A >.>.=.o.R p 9 q ; $ 8 - 9 n M P I ! O.*.;.E.*X+X[.#X*X*X&X",
"$X#X#X&X$X.Xx.=.o.o.o.} o.;.B o * 3 # : D >.>.>.>.>.:.D % $ 9 # o A ;.>.>.*.o.O.` > # 9 & X 5 n m m P I ! *.*.,.P.&X&X*X#X#X$X&X",
"+X+X#X*X*X.Xx.=.O.} o.o.o.*.>.g $ * . B >.>.>.>.>.>.>.>.J * = X u >.>.>.>.o.o.O.>.Y ; $ # % K m m m P I ! *.*.,.P.@X*X*X&X+X+X$X",
"@X[.#X*X*XoXc.=.O.} o.o.o.o.;.p # t * u >.>.>.>.>.>.>.>.m # 5 8 > ;.>.>.*.o.} O.;.K # 5 8 # z M m m P I { ;.*.,.W.#X*X*X&X+X+X$X",
"*X*X&X#X#X XB.*.O.{ } o.o.o.[ a ) :.U r -.>.>.>.>.>.>.;.l S >._ r ' >.=.O.o.o.O.O.z l [ W w t M m M I I { *.*.5.).*X@X@X$X*X*X&X",
"*X*X&X+X[. XG.:.O.{ } } o.o.[ +.>.>.>.@.-.>.>.:.>.>.>.-.@.>.>.>.-.@.>.O.o.o.o.o.} [ o.} { M z M M H I I o.;.*.e.%X*X+X[.#X*X*X&X",
"*X*X&X|.#X#XY.,.*.{ { } o.o.o.o.=.>.>.>.>.>.>.>.>.>.>.>.>.>.>.>.>.>.O.} o.o.o.o.o.o.} { E M M n m L I W O.*.*.j.&X*X#X@X#X*X*X&X",
"[.[.$X*X*X$X^.8.*.{ ! } { } o.o.o.*.:.:.>.>.>.;.+.>.>.>.>.>.>.>.=.O.o.o.} Y o.o.o.} } ! M m m m M P I W ;.*.*.V.+X#X*X*X&X+X+X#X",
"[.[.#X*X*X$X.Xi.*.o.! ! { Q o.o.o.o.O.*.>.:.>._ l :.>.>.>.>.:.*.o.o.o.o.[ t [ o.o.{ ! H m m m m M I I } ;.*.<.W.+X#X*X*X&X+X+X$X",
"#X&X$X&X&X&X$XB.*.*.! W { K Q o.o.o.o.o.O.*.:.h , ..:.:.*.O.o.} o.o.o.o.M $ Z o.{ ! L m m m m m P I W O.*.*.i.XX#X#X&X&X&X$X#X#X",
"*X*X&X+X[.&X*XE.<.*.} I W W H Q } o.o.[ G n f 6 # r h g Y o.o.o.} J n h q + < f y h m m m m m L I I { *.*.;.V.*X*X*X+X+X#X*X*X&X",
"*X*X*X+X[.#X*XoXi.*.O.! I W L G E } } } J > O - 1 $ # a [ o.o.o.} R 5 O * 8 * X < z M m m m M P I W O.=.*.8._.*X*X*X@X[.#X*X*X&X",
"$X&X$X&X&X&X#X$XK.:.=.o.W I W H G K { } o.R < = =   x o.o.o.o.} o.o.[ 5 * < . 2 m M m m m m L W I } ;.*.;.B.&X$X&X$X&X&X&X$X#X&X",
"+X[.@X*X*X&X[.+X.Xu.*.*.{ I I I H m M P ! ! e O 8 O V o.o.} } } { { ! f O = + 5 M m m m m L I I ! O.*.*.q..X*X#X+X+X*X*X&X[.[.$X",
"+X[.#X*X*X$X+X+X$XK.,.*.O.! I I P H M L W L 1 p H 8 r { { { { ! W W L 9 2 h 0 = z m m m L I I W O.;.;.;.K.*X*X#X+X+X*X*X&X+X+X&X",
"*X*X$X#X@X&X*X&X#X|.j.=.;.O.W I I I P P H z h G K m d H P L L H H M z g m M n d z G M L I I W o.;.*.*.l.#X@X#X&X*X&X#X@X#X*X*X&X",
"*X*X&X[.+X$X*X*X@X+X~.8.*.;.O.W I I I L M m M M m m M m m M M m m m m m m m M M M M P I I I o.*.*.*.e.'.$X[.[.&X*X*X[.[.#X*X*X#X",
"*X*X&X#X@X&X*X*X&X+X#XK.,.*.*.O.W I W I P H m n m m m m m m m m m m m m m m m H H I I I W o.;.*.*.5.!.*X&X@X@X$X*X*X#X@X#X*X*X&X",
"@X+X#X*X*X$X+X@X&X*X*X|.M.:.*.:.O.! I I I I P H m m m m m m m m m m m m m M H P I I I ! $.*.*.*.5.P.@X@X&X*X*X#X[.#X*X*X&X+X@X$X",
"[.[.#X*X*X&X+X[.&X*X*X@X].c.:.*.*.*.} W I W I I I L H H M M M M M M H L P I I I I W { *.*.*.*.5.Y.&X[.[.&X*X*X#X[.@X*X*X*X[.[.#X",
"#X#X$X&X&X&X#X#X&X&X&X#X#XXXv.;.*.*.;.O.{ W I I I I I I I P P I P I I W I I I W { $.*.*.*.*.q.W.*X&X#X#X&X&X&X&X#X#X$X&X&X$X#X$X",
"*X*X&X+X[.$X*X*X$X[.+X*X*X*X[.F.6.*.*.:.;.O.} W W I I I W I I I I I I I I W { O.*.;.*.*.;.j.).@X+X$X*X*X#X[.[.*X*X*X#X[.$X*X*X&X",
"*X*X&X+X+X&X*X*X#X[.+X*X*X&X[.[.W.j.,.*.*.:.;.*.$.} { ! W W W W W ! ! } $.;.*.*.*.*.*.8.G.%X*X+X+X$X*X*X#X[.+X*X*X*X[.[.#X*X*X&X",
"&X$X$X&X&X#X#X#X&X&X$X#X&X$X&X&X&X XJ.u.:.*.*.*.;.*.*.*.O.O.O.*.*.*.*.;.*.*.*.*.*.5.v.).#X$X&X&X&X&X$X#X&X&X&X$X#X$X&X&X&X#X#X&X",
"[.+X#X*X*X&X[.+X&X*X*X#X[.#X*X*X&X[.+XXXY.j.5.*.*.*.*.;.;.:.*.*.*.*.*.*.*.*.,.e.N.).*X*X@X[.+X*X*X&X[.[.&X*X*X#X+X#X*X*X&X+X+X$X",
"+X+X#X*X*X&X+X+X*X*X*X@X[.#X*X*X&X[.[.&X*X*X_.F.l.e.5.:.;.*.*.*.;.;.,.8.a.B.T.].+X&X*X*X#X[.XX*X*X&X+X+X&X*X*X#X+X@X*X*X&X+X+X#X",
"&X*X&X#X#X$X*X&X#X#X$X&X&X&X#X#X#X*X*X#X#X#X*X*X$X{.~.T.U.K.H.F.H.R.^..X|.@X&X*X*X#X#X$X&X*X&X#X#X#X*X&X&X@X#X&X*X&X@X#X#X*X&X&X",
"*X*X&X[.[.&X*X*X#X[.[.*X*X*X[.[.#X*X*X#X+X+X*X*X*X+X+X&X*X*X&X+X@X*X*X*X+X[.#X*X*X$X+X+X*X*X&X#X[.#X*X*X#X[.[.*X*X*X[.[.#X*X*X&X",
"*X*X*X@X#X&X*X*X#X+X#X&X*X&XXX#X$X*X*X$X@X@X&X*X&X@X@X$X*X*X#X#X#X&X*X$X#X+X$X*X*X$X+X@X*X*X&X#X@X$X*X*X#X@X#X&X*X&X#X#X#X&X*X&X",
"#X+X#X*X*X$X@X[.&X*X*X#X@X#X*X*X&X+X@X&X*X*X#X[.#X*X*X&X@X@X&X*X*X@X[.#X*X*X&X+X[.&X*X*X@X[.@X*X*X&X#X[.&X*X*X#X#X#X&X*X&X+X#X$X",
"[.[.#X*X*X#X[.+X&X*X*X#X[.#X*X*X&X[.[.&X*X*X#X[.@X*X*X&X[.[.&X*X*X#X[.#X*X*X&X[.#X&X*X*X#X[.@X*X*X&X[.[.&X*X*X@X[.@X*X*X&X[.+X$X",
"#X$X#X&X&X&X#X#X&X&X&X$X#X&X&X*X&X#X#X&X&X&X$X#X#X&X&X&X#X#X&X&X&X#X#X#X*X&X&X#X#X&X&X$X$X#X#X&X&X$X#X#X&X&X&X#X#X#X&X&X&X#X#X#X",
"*X*X*X+X[.&X*X*X#X[.+X*X*X&X[.[.&X*X*X#X+X+X*X*X*X+X+X$X*X*X$X+X+X*X*X*X+X[.$X*X*X#X@X@X*X*X*X+X#X#X*X*X#X[.@X*X*X*X+X[.#X*X*X&X",
"*X*X&X+X+X#X*X*X#X[.@X*X*X&X[.[.&X*X*X#X+X+X*X*X&X+X[.#X*X*X#X[.+X*X*X*X+X+X#X*X*X#X[.+X*X*X&X@X[.$X*X*X#X+X@X&X*X*X+X+X#X*X*X&X",
"&X&X&X$X$X&X&X$X#X$X&X&X&X&X$X$X#X&X&X$X&X#X&X&X&X&X$X#X&X&X$X&X#X&X&X&X#X$X&X&X&X&X#X#X&X&X&X&X$X&X&X&X$X$X&X&X&X&X&X$X&X$X&X&X"
};
