/* XPM */
static char *_34d370305a846ddb01d7685880f575c0hHpXMGnxgLmGR5A[] = {
/* columns rows colors chars-per-pixel */
"64 64 231 2 ",
"   c #040201",
".  c #0B0401",
"X  c #0A0908",
"o  c #130B02",
"O  c #150B04",
"+  c #1B1409",
"@  c #131313",
"#  c #1C1A18",
"$  c #070F15",
"%  c #241509",
"&  c #251915",
"*  c #2A140A",
"=  c #2B2504",
"-  c #332803",
";  c #2A221C",
":  c #3C2C09",
">  c #221F20",
",  c #0D2931",
"<  c #292727",
"1  c #352D25",
"2  c #3B332A",
"3  c #38322A",
"4  c #373635",
"5  c #2D2F33",
"6  c #0D1C19",
"7  c #42352A",
"8  c #463C33",
"9  c #59392D",
"0  c #54341B",
"q  c #58510D",
"w  c #7E611D",
"e  c #42413E",
"r  c #524032",
"t  c #49402F",
"y  c #704A39",
"u  c #6D5E1F",
"i  c #494745",
"p  c #5D5548",
"a  c #535358",
"s  c #504D4A",
"d  c #65584C",
"f  c #7A5947",
"g  c #76695A",
"h  c #73664F",
"j  c #736D62",
"k  c #7A7265",
"l  c #7B7B79",
"z  c #636972",
"x  c #525961",
"c  c #84701B",
"v  c #856855",
"b  c #986854",
"n  c #89775D",
"m  c #9F7056",
"M  c #B9795B",
"N  c #A97055",
"B  c #85786A",
"V  c #8A7E70",
"C  c #B77D62",
"Z  c #C37A5B",
"A  c #7E807B",
"S  c #B09830",
"D  c #8E822C",
"F  c #D1AC37",
"G  c #C09A2F",
"H  c #FCD92D",
"J  c #F9C536",
"K  c #F8D835",
"L  c #F2C430",
"P  c #FEE435",
"I  c #FEE934",
"U  c #FBE73A",
"Y  c #FCE92D",
"T  c #B5AA42",
"R  c #8F8677",
"E  c #B78A71",
"W  c #D6AE44",
"Q  c #C58968",
"!  c #EDD148",
"~  c #F4E654",
"^  c #F5E968",
"/  c #767984",
"(  c #817F82",
")  c #60ADB6",
"_  c #3ABCCF",
"`  c #50ABDD",
"'  c #1BC5DA",
"]  c #0FC7DF",
"[  c #28C3D4",
"{  c #38C6D5",
"}  c #06CBE5",
"|  c #04D4EC",
" . c #16D6EC",
".. c #0ADDF5",
"X. c #16DCF4",
"o. c #1FCEE6",
"O. c #27D7EA",
"+. c #36D7E8",
"@. c #35D2E7",
"#. c #09E1F8",
"$. c #42C6D6",
"%. c #67CAD6",
"&. c #75CDD5",
"*. c #45D8E7",
"=. c #6DD9E7",
"-. c #72E1EE",
";. c #41E1F1",
":. c #888787",
">. c #949393",
",. c #989697",
"<. c #9A9698",
"1. c #9C9B9C",
"2. c #959A98",
"3. c #929191",
"4. c #A59685",
"5. c #A09E9E",
"6. c #A99D9F",
"7. c #B8A38A",
"8. c #B6A997",
"9. c #BFB19C",
"0. c #ACA289",
"q. c #929BA5",
"w. c #989EA8",
"e. c #8E9CA9",
"r. c #A29FA0",
"t. c #95A1AF",
"y. c #9AA2AD",
"u. c #9FA3A2",
"i. c #96A1B1",
"p. c #92ADB2",
"a. c #A4A3A3",
"s. c #A8A5A6",
"d. c #A9A7A9",
"f. c #ACABAC",
"g. c #A8A8A8",
"h. c #B1ADAE",
"j. c #B1B1AD",
"k. c #AEAEB1",
"l. c #A4AAB9",
"z. c #B1AFB1",
"x. c #ADB9B9",
"c. c #B5B3B4",
"v. c #B8B6B6",
"b. c #B6B5B9",
"n. c #B9B7B9",
"m. c #BCBBBC",
"M. c #B8BAB8",
"N. c #AEB1AC",
"B. c #C6B49E",
"V. c #CBAB91",
"C. c #E7B48C",
"Z. c #E4B492",
"A. c #E8AE89",
"S. c #C8B8A5",
"D. c #C0BEBF",
"F. c #BEC0BC",
"G. c #CEC3AD",
"H. c #D7C2AA",
"J. c #CFCABA",
"K. c #E7C5AA",
"L. c #E5CCB4",
"P. c #E5D4BC",
"I. c #EAD6BC",
"U. c #E9D7BA",
"Y. c #FDD9BB",
"T. c #F9D7B7",
"R. c #F0CEB2",
"E. c #FBDCA1",
"W. c #8CBCC1",
"Q. c #BFBDC1",
"!. c #A5B4C5",
"~. c #C1BFC1",
"^. c #89D4DE",
"/. c #90CCD3",
"(. c #B4C3C4",
"). c #ACCBD0",
"_. c #8ADBE4",
"`. c #A6E3EA",
"'. c #B9E3EA",
"]. c #ACEBF2",
"[. c #A0E1EC",
"{. c #C5C3C4",
"}. c #C8C6C7",
"|. c #C7C5C8",
" X c #C9C7C9",
".X c #CCCBCC",
"XX c #C9CACA",
"oX c #D0CECF",
"OX c #CDD0CD",
"+X c #CECDD0",
"@X c #D1CFD1",
"#X c #CCD4D7",
"$X c #D4D2D4",
"%X c #D8D6D7",
"&X c #D6D4D9",
"*X c #D9D7D9",
"=X c #DCDBDB",
"-X c #D5DBDA",
";X c #D1D1CD",
":X c #E6D7C2",
">X c #F5DDC5",
",X c #E0DEDF",
"<X c #DFE2DD",
"1X c #FCE5C6",
"2X c #F6E2CB",
"3X c #FCE6CB",
"4X c #FDE9CA",
"5X c #F9E6C6",
"6X c #E3E1DE",
"7X c #EAE2DF",
"8X c #F8E6CF",
"9X c #DEDDE1",
"0X c #C1DFE7",
"qX c #E1DFE0",
"wX c #CFE4E9",
"eX c #E4E3E4",
"rX c #E8E6E7",
"tX c #E5E5E9",
"yX c #E9E7E9",
"uX c #ECEBEC",
"iX c #E7E8E8",
"pX c #F0EEEF",
"aX c #EDEDF0",
"sX c #E5E9F2",
"dX c #F1EFF1",
"fX c #EAF5F8",
"gX c #F4F3F4",
"hX c #F9F7F9",
"jX c #FAFAFA",
"kX c #F7F7F9",
"lX c #FAF6EB",
/* pixels */
"m.m.m.{.{.{. X.X.X$X.X.XoX.X.X X X XoX@X.X.X.X.X.X.X@X%X%X.X.X.X{.$X=XoX X X.XoX.X@X@X$X.X{.{. X}.f.a.1.1.a.s.d.f.d.:.:.>.>.<.1.",
"c.c.c.m.m.m.m.m.{.$X%X%X%X%X$X$X@X$X X.X X XoX@X.X X@X*X*X@XoX.X{.*XeX*X$X%X=X=X*X,XoX.X.X.X{..X{.s.1.<.,.1.1.a.c.h.<.3.f.c.m.m.",
"c.c.c.c.m.m.m.m.}.%X%X%X%X%X$X$X%X$X X.X.X X@X$X.X.X@X%X%X@X@X$X X*X=X*X$X$X=X*X*X=X.X X X{.D.{.{.d.5.1.5.5.1.1.s.a.1.>.f.v.c.n.",
"v.c.d.a.m.n.m.m.}.%X=X*X%X*X*X*XeX$X{.{.$X$XoX$XoX.X@X$X$X.X.X%X%X%X%X%X$X$X*X*X%X=X Xc. Xc.n.~.{.c.d.f.h.a.>.>.,.,.<.,.c.m.c.f.",
"m.v.f.d.n.c.m.m.{.%X*X%X%X*X*X$X*X$X X.X@X@X$X$X@XoX$X%X$XoX.X$X$X%X%X%X%X%X*X%X%X*X}.n. Xc.m.{.{.c.s.s.s.r.,.,.,.1.r.1.f.c.n.c.",
"{. Xc.c.v.c.m.{.{.%X%X%X%X=X,X Xm..X%X%X%X$X*X*X*X*X*X=X*X*X*X.X{.$X$X%X*X*X=X%X$X%X{.m.{.f.c.{.D.c.d.5.1.1.,.,.>.>.a.r.c.m.m.n.",
" X.Xc.c.n.z.n.{.{.*X%X%X%X=XeX.Xv.}.*X%X*X%X*X*X*X=X=X=X=X=X*X.X{.$X$X*X*X=X=X*X%X%X Xm.{.f.c.{.~.c.f.r.1.1.,.>.3.>.a.1.m.{.m.v.",
"{.{.c.f.n.c.m.{.{. X.X@X@XoX.X XD. XoX.X~.{.$X%X*X=X=X=X=XqXeX@X.X%XeX=XeX,X*X$X%X%X Xm.{.c.c.m.m.c.f.2.3.2.a.6.<.1.a.a.c.v.m.n.",
"{.{.c.d.v.c.n. X X}..XoX@XoX X}.~. X.X.Xm.m..X%X*X=X=X=X=XeXeX$X.X*XeX,XeX,X*X$X%X%X Xm.{.c.v.m.m.c.f.2.$._ /.W._ e.a.a.N.c.m.v.",
"m.m.n.c.{.{.{.{. X{. X%X%X X{.}. X X}.{.m.m.{.{. X.X$X,XqXeXeX X X.X.X$XrXqX*X%X.X}.}.m.{.m.m.J.~.m.x.@.} p.&.o.{ 2.v.b.n.c.v.M.",
"m.n.v.c.{.{. X{..Xm.{.*X*X}.{.{..X X{.{.~.m.D.{.{.{.$XeXeXeXeX X X{.{..XeXeX=X*X X~.{.n.{.{.m.{.~.~.(.#.} p.%.| $.,.D.m.v.z.c.n.",
"m.m.m.m.{.{..X%XoX{.}.=X=X X{.{.{.{.{.{.m.m.D.~.m.m..X,X9XrXrX:.R :.:.5.$X%X$X.X XD. X.X{.~.m.M.M.x.=. .%.&.*.@.) ,.m.D.m.c.c.c.",
"{.~.m.D.}.}..X,X$X}..X=X=X.X{.{.{.{.{.{.c.v.m.~.v.z.J.=X.X=X=X- = = = a F.XX}.{. Xm..X=X{.m.m.c.n./.#.] (.$...%.3.,.D.{.m.m.v.c.",
"{.{.{.{..X$XoX%X.X X{..X.X X.X{.D.{.m.m.c.c.m.{.m.M.~.f.o o o L U I ^ J.@ |.{.}.{.m.{.$XD.n.c.f.x.^...[ ).{ O.&.1.r.m.{.m.c.v.v.",
"{.{.}. X$XyX@X{.{. X{.m.n.}.*X{.c.D.d.d.c.c.m.D.|.3   : J J J P I Y U ^ lX   X Xm.v.m.{.n.c.h.s.^.#.' x.[ ..^.n.v.v.m.D.h.d.c.m.",
"{.{.{. X$XuXoXn.m.{.{.m.m..XeX.Xs.m.d.d.n.n.m.D.X F J K I I I I I I I I ~ 7X@ {.m.m.~.{.n.c.c.d.^...[ (.' ../.n.c.v.{.{.f.a.c.m.",
"m.m. X$X$XeX$Xv.{.c.c.c.c..X,X{.d.D.z.k.j.h.Q.# W L H I I I I I - S I K + ,XX {.{.{.m.c.m.5.s.&. .[ ).[ X./.x.c.m.v.c.f.h.f.v.m.",
"m.m.@X%X%XuX$Xc.~.h.f.c.c.@XpX$Xs.c.h.f.j.c.e G J H H K I U : : 7.f q ~ J.e m.{.{.{.m.c.m.1.a.-...[ (.} #.W.h.z.m.m.f.f.f.f.n.m.",
".X XoX*X=XyXqX%X Xc.d.f.f.~.*XoX{.{.f.d.a.d.  J c L H H K c h g R.E h D E.A :.{. X@X+XoXoXm.^.;.+./.%. .%.l.f.k.c.c.m.m.m.m.{.{.",
" X.X*XeXeXgX=X@X}.h.d.f.f.{.uX*Xm.D.h.d.>.1.4 F - F H K T   7.B.T.K.4.+ ~ .XX {. X.X@X$X@Xx.+...=.).} X.q.1.s.d.v.c.m.m.m.m.{.{.",
".X X$X*X=XuXqX=X Xf.s.d.d.{.=X.X{. Xh.d.s.s.a.o J P U T @ $ @ + L.d @ # !  XX {. X.X@X$X;X).+. .&.`.} @.y.g.f.f.c.c.m.m.m.m.{.{.",
" X X%X*X,XuXeX=X Xd.a.d.d.{.uX*X~.{.c.c.g.f.. J U I q e fX` jXY.3XlXwX`    X@  X X XoX@XOXO.| &.^.} O.k.1.s.f.h.m.m.n.n.n.m.~.~.",
"oXoX$X%X*X=X=X*X{.f.s.d.d.m.*X$X XXXc.c.h.j.. ! L P q e fX`   I.3Xd , `     .X X.X.XoXoX#XX.} ^.`.} @.XX{.{. X X X.Xm.m.m.m.{. X",
".X.X@X@X*XeX=XeX Xz.d.1.1.{.rX%Xv.{.{.D.c.c.a.o ~ I q 2 L.:XR.Y.1XI.P.;X   X.XoX X}.$X-XO.} ]._.o.+.wX*X*X*X*X%X.X.Xm.n.c.c.{. X",
"$XoX$X$X*X=X*X=X{.c.d.5.1.m.qX$X~.{.m.m.c.c.< W U q n B.T.Y.T.T.Y.Y.Y.P.  XX@X@X.X X$X#X..} '.-.| *.=X=X=X=X*X=X$X$Xm.m.m.n.}..X",
"%X%X%X*X%X%X$X.X{.{.c.a.5.m.%X$X.X Xf.f.f.z.l w K = R K.T.T.g T.Y.Y.Y.P.  .X.X.XoX.X#X-.| -._.*.+.`.*X-X=XqXrXeX,X=X X X{.{. X.X",
"*X*X*X=X$X$XoX}.~.{.n.s.a.m.%X$X.X Xf.f.f.c.d.4 S % g V.T.Y.7 7.V.K.R.8.i  X X X.XoX'.#.} wX{ | =.=X=X-X*XeXuXuXeXeX@XoX X X.X.X",
"=X=X=X=X@X.X X{.{.n.c.h.f.m.oX.X.X Xc.c.z.c.g.s.  X X 8 H.Y.T.+ O 4.S.< }.|.{.{.XX#X'..._ 0X@. ._.&X*X*X=XeXeXrXuXrXoX@X$X$X*X=X",
"eXeXeX,X.X.X{.v.m.m.m.c.c.{.@X.X X}.c.c.f.k.g.g.. S.5X9.+ K.Y.Y.2X3XS.> {.{.m.~..X`...' #X' #.[.$X$X$X9XeXeXuXuXgXgX%X%X=X=XeX9X",
"eXeXrXeX@X$X{.m.m.m.c.c.c.{.oX.X.X Xz.z.f.f.f.  P.U.5X5XH.          2 L.  Q.c.m. X'...[ #X' ..[.&X%X%X=X=X,XiXyXdXuX=X*X=X=XeXeX",
"uXyXeXeX*XuX Xc.m.c.c.c.c.m..X.X;X Xd.f.s.f.@ P.4X5X3X4X:X  H.R.R.p 1 U.2X@ c.m.}.(.$ $ [ X.`.-X=X%X$X*X,X=X*X=XgXgX,X=X=X=XeXrX",
"eXeXeXeX.X.X{.m.m.z.f.f.f.n.oX.X.X Xf.f.d.f.  I.4X4X5X4X5XG.; K.7 V S.U.I.G.4 5 5 a w.!., `.&X%X$X$X$X%X*X*XeXeXeXeXeXeXeXeXeXeX",
"eXeXyXeX.X*Xm.s.d.a.1.d.s.z.=X$X~.{.v.c.a.s.  >X4X4X0.4.4X4Xk g g 8.I.L.g 3XX d 1 < z / :.#X$X*X*X.X X$X=X%X$X$X$X*XgXhXgXgXyXeX",
"eXeXyXeX X@Xm.f.d.1.,.a.5.f.$X.X{. Xf.k.s.f.  4X4X4XB p S.4X4XX G.B.7.4.  B.2 K.n 3 3   {.&X$X*X$X.X X$X$X@X$X$X$X$XgXhXgXgXyXeX",
"uXuXuXuX$XuXm.r.s.1.>.f.f.f..XoX*X.Xc.c.5.a.  4X4X4X4X9.# 3X8X. S.p       . K.T.Y.Y.:XX {..X$X*X*X+X.X+X.X+X$X$X*X=XgXgXhXjXuXeX",
"uXuXuXrX.XqX{.d.d.1.>.a.a.f..X$X%X.Xz.f.a.d.. :X4X4X4X4XP.        R 5XP.  Y.Y.Y.>X9.# {.{.@X@X$X$X.X.X.X X.X$X$X$X*XdXgXkXhXyXeX",
"uXuXuXeX@XeXm.1.c.a.d.m.m.m..XoX$X.X~.m.j.k.d.  P.3X4X4X4X3X4X4X3X3X4X:X  Y.Y.+   i ~.m.{.~.{..X.X{.~.Q.m.{.$X$X=X=XeXeXgXjXdXuX",
"uXuXuXeX.XeXm.<.c.f.v.{.{.{..X.X$X.X{.{.v.c.k.c.O S.P.>X4X4X4X4X4X4X4XP.  . . S.d s D.m.{.n.~. X X~.m.n.n.~.@X$X=X*X9X9XuXgXaXdX",
"uXuXuXeX.X=Xc.>.c.m.{..X X{. X.X@X.X{.F.c.c.k.f.1.i 2 d :XI.4X4X>X2X4XP.    4.>Xh a {.{.{..X.X X X~.m.c.c.m.|. X*X*X=X*XuXdXaXgX",
"uXuXuXeX X$Xc.>.c. X X.X X{. X.XoX.X~.m.b.c.j.N.h.< ; r B n 2X2XU.>X2XL.    g V R <.{. X{.$X+X X X~.m.c.k.m.{.{.$X*X=X*XyXaXaXgX",
"gXuXpXuX$X X Xm.{..X.X.X.X.X%X%X%X@Xm.m.m.m.c.f.1.i v b * * 8.8.8.8.8.4.  5   4 ,.Q.~.{.~..XXXXX.X{.m.n.n.m.~.~.{. X$X$XqXeXuXgX",
"jXgXgXgXeX.XeXuXeX=X*X$X@X=XuXeXeX*Xm.m.m.m.c.c.X S.5XK.m C . .   .     $ !.X m.n.n.m.Q.Q.XX@X@X$X{.{.{.{.m.d.f.c.c.m.m.+X*XuXhX",
"gXjXhXgXeX$XeXuX,X=X%X$X$X=XeXqXeX*Xm.m.v.b.c.  P.3X4X4X4X4X4XU.+ R 8.# l.).X D.c.b.m.~.Q..X@X@X$X X{.{.{.m.k.z.c.c.c.c. X@XeXgX",
"jXjXjXhXuXgXyXeX=X*X%X.X.X$X$X=X=X*X X{.d.f.X :X4X4X4X4X4X4X4XI.+ R I.G.    2X+ :.c.m.{.~.+X@X$X$X+X.X|.{.~.m.n.f.d.s.w.c.b.*XuX",
"jXjXjXgXuXgXyXeX=X*X%X.X.X$X%X*X=X*X X~.h.c.  I.5X4X1X4X4X4XP.o S.P.U.I.P.2X4X3Xg a m.~.~..X@X$X$X.XXX X{.~.n.n.z.z.k.a.c.b.*XuX",
"gXgXjXhXgXjXuX=X,X=X*X%X*X%X$X*X=X*X.X X{.{.>.2 8 8 7.>X4X4X2   3 4.I.U.U.4Xt 8 # i m.n.{.{.XX.X.X@X@X.X.X X{.{.{.{.d.a.f.d.m.m.",
"gXgXgXhXgXjXuX=X,X=X*X*X*X%X$X%X=X*X.X.X{.}.u.  j j j g k k ( l / k g g g k B X s 5.~.m.{.{..X.XoXoX.X.XoX.X|.{.{.{.d.a.d.d.b.n.",
"uXuXgXgXuXgXuXeXeX,X*X*X*X%X$X%X=X*X=X<X X}.>.1 P.I.g ;   4 uXpXgX) <   1 2 5Xr :.m.D.m.{.@X@X+X+X.X.X.X.X.X X.X*X%Xn.n.b.b.m.m.",
"uXuXgXgXuXgXuXeXeXeX=X=X*X%X$X%X*X*XqXqX}.{.  P.P.4X2X8.; iXuXjXjXuXm.& L.4X4X4Xg p ~.m.{.$X$X@X@X@X+X.X.XXX.X.X*X%Xm.m.m.m.m.m.",
"gXgXgXgXpXdXuXrXeXrXeX=X=X=X=X*X=X=XeX6X%X%X. I.3X3Xp i uXeXdXjXjXuXuXeX  :X4X4X4XB.# |.{.@X$X$X$X.X X.X.X.XoX.X@X+X|. X{.~.{.{.",
"gXgXgXkXuXuXuXuXiXeXeX=X=X=X=X=X=X=XeXeXv.o b m M % ,.6XgXgXgXuXuXjXjXuXiX. L.4X4XB.> .X{.+X$X$X$X+X X.X$X$X$X$X.X.XoX$X{.~.{. X",
"dXgXgXkXuXuXuXeXeXeXeXeX=X=X*X=XeX=XeXeXc.. m M o +X6XeXgXjXgXuXuXjXjXuXiX  b m M v & }.{.@X$X*X%X.X X.X.X.X.X.X.XoX.XoX}. X XXX",
"gXgXgXjXuXuXuXeXeXeXeXeXeX=X%X=XeX=XeX:.<   % *   XXkXgXiXiXgXjXjXuXuXjXkX  b M Z b   5 5 *X&X*X*XXX{.{. X{. X X@X$X.X X+X@X.X X",
"gXgXgXgXuXuXuXeXeXeXeXeXeX=X*X,XeXeX3.d 9 y y v   XXjXgXiXuXgXjXjXuXuXjXgX  b N y 9 y v v k @X*X%X.X X X{. X X.X@X@X.X.X.X.X.X.X",
"gXgXgXjXuXuXuX=X=X=X*X=X*X=XeXrXuX X8 y N M Z A.: f.yXgXuXuXgXgXgXgXgXgXdX  b f 9 0 Q C.C.: h.%X$X+X.X X{. XoX$XoXoX X.X{.{.@X=X",
"gXgXgXjXuXpXeX,XeX=X=X=X=X=XeXeXuX  f M Z M Z Z C.& 2.iXjXjXgXuXuXjXjXuXeX  b % y Q A.C.E.C.+ w.$X@XoX X{. X@X$X.X.X.X.X{.{.$X9X",
"uXuXgXgXuXdXuXeXeX=X=X=X9XeXrXiXuX  f N C C C C Z.& 1.aXjXjXkXaXaXjXjXuXeX  b C C C E Z.Z.Z.+ >.+X+X.X.X{..X@X.X.X.X}.}..X X$X*X",
"uXuXgXgXuXgXuXrXeX6X=X=X.Xy.y.y.y.            .     z t.y.y.y.y.i.y.y.y.w.              .     x y.l..X X}. XoX.X.X.X{. X X X$X%X",
"gXgXgXgXgXgXuXuXuXeXeXeXeXeXsXy.i.w.q.q.q.q.q.q.e.q.w.t.i.t.t.t.t.i.i.t.t.e.q.q.q.q.q.q.q.q.q.w.i.y.y.XX.X X X X.X.X X X{.{. X X",
"uXgXgXgXgXgXgXuXuX6XeX=X=XeXuXuXiXaXuXaXdXdXeX9XqX9X9X&X*X9XeXrXrXtXrX&X&X+Xb.b.~.~.{.|.|.9X=XQ.Q.XX XoX.X X{.{.$X$X@X$X}.{. X.X",
"gXgXgXgXgXgXgXuXuXeXeXeXeXeXuXuXuXuXuXuXuXuXeXeXqXqX*X*X*X=XqXeXyXrXeX$X+XXX{.{.{.~.{.{.{.XX+X X XXX X|. X X.X.X.X X}.{.{.{. X{.",
"uXgXgXkXgXgXgXuXuXeXeXeXeXeXuXuXuXuXuXuXuXuXiXeX=X=X*X%X*X=XeXyXuXrXeX$X$X.X{.{.{.D.{.{.{.|.XX.X.X.X X{.~. X$XoX{.{.m.m.{. X X{.",
"gXgXgXgXgXgXpXuXuXeXeXeXeXeXrXeXuXiXuXuXuXuXeXeXeXeX=X%X*X*X=XyXyXrXeX*X$X$X.XXX{.~.{.|.{.{.{.{.{. XXX{.{. X+X.X X XD.~.{.{.m.m.",
"gXgXgXgXgXgXuXuXuXeXeXeXeXeXeXeXuXeXeXiXuXuXuXuXeXeX=X%X$X%X=XyXuXrXeX=X*X&X$X@X{.m.{..X~.{.~.m.m.@X%X X~.|..XoX.X.X{.{.m.c.c.c."
};
