/* XPM */
static char *exit[] = {
/* columns rows colors chars-per-pixel */
"64 35 249 2 ",
"   c #9C6600",
".  c #AA7300",
"X  c #AA7D03",
"o  c #B67B02",
"O  c #BB7C00",
"+  c #AA7614",
"@  c #B87A13",
"#  c #A88405",
"$  c #B38500",
"%  c #B58B00",
"&  c #BD8D02",
"*  c #B58406",
"=  c #B59904",
"-  c #A6801A",
";  c #B6861A",
":  c #BEAB16",
">  c #A98725",
",  c #BC962A",
"<  c #B59433",
"1  c #AC8F2E",
"2  c #BFAD2D",
"3  c #BBA334",
"4  c #BFB434",
"5  c #C18700",
"6  c #C58C01",
"7  c #C48904",
"8  c #C49A01",
"9  c #CA9303",
"0  c #D59B01",
"q  c #C59A18",
"w  c #D79C14",
"e  c #CCA300",
"r  c #CEAC01",
"t  c #C7A90A",
"y  c #D3AC01",
"u  c #DBAC02",
"i  c #D7A70A",
"p  c #CCB402",
"a  c #CBB608",
"s  c #D3B302",
"d  c #DBB302",
"f  c #D1BA01",
"g  c #D2B30D",
"h  c #DBB809",
"j  c #C8A614",
"k  c #D2A415",
"l  c #CBB413",
"z  c #CBB817",
"x  c #DBB412",
"c  c #DEBF1A",
"v  c #D5B714",
"b  c #E4B502",
"n  c #E5B60A",
"m  c #E6BA07",
"M  c #E1AF1C",
"N  c #E3BB15",
"B  c #E8B716",
"V  c #E1A207",
"C  c #C79735",
"Z  c #CDBD2A",
"A  c #DBB827",
"S  c #D1BC3C",
"D  c #CAAE32",
"F  c #DEC000",
"G  c #DECA0D",
"H  c #D9C716",
"J  c #E8C41C",
"K  c #FFC411",
"L  c #EBC500",
"P  c #D5C42A",
"I  c #DDC12F",
"U  c #CDC53E",
"Y  c #D8C838",
"T  c #DDD13D",
"R  c #CFC526",
"E  c #E9C62C",
"W  c #F7CA27",
"Q  c #FFD02E",
"!  c #E7C936",
"~  c #F1CB3C",
"^  c #EBD238",
"/  c #F4DC38",
"(  c #EDE039",
")  c #BC944C",
"_  c #BCA243",
"`  c #C49D5C",
"'  c #CEBC42",
"]  c #C7A75A",
"[  c #C7AF54",
"{  c #C6AC68",
"}  c #D2B377",
"|  c #DEAC67",
" . c #DCCB42",
".. c #DBCA4A",
"X. c #DAD958",
"o. c #DED846",
"O. c #EACE4C",
"+. c #EBD342",
"@. c #E6DA4B",
"#. c #E8D847",
"$. c #F8DC44",
"%. c #E6DD54",
"&. c #EDDB53",
"*. c #E9DD5B",
"=. c #E4D859",
"-. c #F4DD54",
";. c #EAE64D",
":. c #F6E44A",
">. c #EBE352",
",. c #EDE45D",
"<. c #ECEB5D",
"1. c #FFE655",
"2. c #F1E35A",
"3. c #F3E95D",
"4. c #F9EB5D",
"5. c #FAE35A",
"6. c #EBFF5A",
"7. c #FAF45A",
"8. c #D6C371",
"9. c #FDDF63",
"0. c #E8D572",
"q. c #E9D56A",
"w. c #ECE263",
"e. c #EDE768",
"r. c #F3E363",
"t. c #F4E966",
"y. c #FEED62",
"u. c #F3E66C",
"i. c #F5EB6C",
"p. c #FCED6C",
"a. c #F7F265",
"s. c #FDF264",
"d. c #FDFB66",
"f. c #F4F46C",
"g. c #FDF46C",
"h. c #FEFB6C",
"j. c #EDE879",
"k. c #F4ED73",
"l. c #FCED73",
"z. c #F5EB7B",
"x. c #FBEE7B",
"c. c #F2E573",
"v. c #EFF476",
"b. c #F6F372",
"n. c #FDF474",
"m. c #FEFB74",
"M. c #F6F17A",
"N. c #FDF47B",
"B. c #FFFB7C",
"V. c #EEFE67",
"C. c #D9BB8F",
"Z. c #E1BFA3",
"A. c #DFCE9D",
"S. c #D6C698",
"D. c #DBD995",
"F. c #DAD088",
"G. c #EBDD98",
"H. c #E8D485",
"J. c #F5EC82",
"K. c #FAEC8C",
"L. c #F3EA8E",
"P. c #F3F286",
"I. c #FEF483",
"U. c #FFFC83",
"Y. c #F5F389",
"T. c #FEF38B",
"R. c #FFFD8A",
"E. c #EBE793",
"W. c #F8EA97",
"Q. c #FDF392",
"!. c #F7F598",
"~. c #EEE483",
"^. c #DCC6A1",
"/. c #E6CBA9",
"(. c #E8D7B5",
"). c #E4D0AB",
"_. c #EBE5A7",
"`. c #F3EDAD",
"'. c #F4EBA4",
"]. c #EEE4B8",
"[. c #F3EEB5",
"{. c #F2EBBB",
"}. c #F9E8BD",
"|. c #F7F3B2",
" X c #EFCFC2",
".X c #E6D7C4",
"XX c #F2DED5",
"oX c #DFF6DA",
"OX c #EBE4C6",
"+X c #F4ECC4",
"@X c #F6EDCC",
"#X c #FCEDCB",
"$X c #F7E3CA",
"%X c #FCF5C3",
"&X c #FDF2CE",
"*X c #F8F8C3",
"=X c #E4E5DE",
"-X c #EDEBDC",
";X c #E8E6D6",
":X c #F9ECD3",
">X c #F7E7D5",
",X c #EFF4DD",
"<X c #F8F8D9",
"1X c #E9DFE8",
"2X c #DCE6E5",
"3X c #D9E6F9",
"4X c #E5E7E5",
"5X c #E7EAE3",
"6X c #ECECE3",
"7X c #EBE6EC",
"8X c #E5E9ED",
"9X c #ECECEC",
"0X c #E5E6EC",
"qX c #F3EDE7",
"wX c #FFECE4",
"eX c #F2ECEC",
"rX c #FEEDEC",
"tX c #F9E7E6",
"yX c #EDF1E3",
"uX c #ECF5ED",
"iX c #EAFAE4",
"pX c #F4F4E5",
"aX c #FFFFE4",
"sX c #F3F3EB",
"dX c #FAF4EE",
"fX c #F3FBED",
"gX c #FDFCEC",
"hX c #FCF3E2",
"jX c #E6EAF2",
"kX c #EDEBF2",
"lX c #EDECFD",
"zX c #E9E7F8",
"xX c #F1EDF4",
"cX c #FFEDF6",
"vX c #F3EDFD",
"bX c #FBEEFC",
"nX c #F4E5FF",
"mX c #EDF3F4",
"MX c #EBF3FC",
"NX c #ECFCFF",
"BX c #EEFBF1",
"VX c #F4F4F4",
"CX c #FBF6F4",
"ZX c #F5FBF3",
"AX c #FDFDF4",
"SX c #F5F4FD",
"DX c #FCF5FE",
"FX c #F5FBFC",
"GX c #FCFCFC",
/* pixels */
"GXGXGX9X7XZXGXGXCXpXuXFXGXFXVX6XGXGXAXsX6X6XFXGXGXkX-XiXGXGXCX9XpXgXAXCXqX6XpXAXGXCXVX9XCXGXGXVXmXsXCXGXFX9X9XCXGXGX9X9XVXGXGXVX",
"GXGXCX9X9XFXGXGXvX9XyXaXGXGXSXlXFXFXGXCXVXVXGXGXGXVX4XsXGXGXVX4XzXSXGXGXlXzXSXGXGXVX9X9XGXGXGX9X9XVXGXGXVX9XVXGXGXCXmX9XVXGXGXVX",
"CXCXFXVXVXCXCXGXMXmXsXCXAXDXxXxXVXSXSXSXSXSXSXVXqXdXAXGXSXDXFXZXkXVXFXFXVXmXVXVXVXVXVXVXGXGXFX9XVXAXGXCXVXVXFXCXFXVXVXVXVXVXCXFX",
"kX9XVXGXGXZXkXuXFXAXFXDXbXqX{.|.`.[.#X@X:X+X[.`._.%XaXDXlXlXFXGXGXfXyXuXAXAXZX9X9XFXGXGXVX9XVXCXGXCXmXkXCXGXGXeX9XVXCXGXVXVX9XVX",
"8X9XVXGXGXCXmXkXGXAXZXeX>X{.W.B.7.s.n.N.N.n.s.7.P.W.'.OXeXSXDXsXGXSXkXkXFXGXDXvXmXFXGXGX9XkXVXCXGXGXmX9XVXGXGXkX8XVXCXGXCXkXuXVX",
"CXZXCXVXVXFXCXGXSXhX{.W.E.Y.I.N.g.n.n.N.N.N.g.g.m.M.P.'.+X:X@X*X+X+X{.[.{.{.+X&XGXCXCXVXVXCXFXVXVXCXGXCXVXVXFXAXCXVXVXVXVXVXVXCX",
"GXGXGXmXVXFXGXGX+X`.Y.f.g.B.B.N.Q.T.T.T.T.Q.T.Q.m.f.B.R.K.H.~.R.~.z.N.n.b.b.z.J.VXVX9XVXGXGXGXeX9XVXGXGXVX9XmXGXGXGXVX9XVXGXGXCX",
"GXGXGX9X9XCXGXCXJ.N.n.n.n.B.B.g.n.m.n.h.h.h.n.B.B.e.<.g.n.,.@.:.R.N.f.n.m.m.k.q.9X9X9XVXGXGXFXVXmXmXCXGXCXkX9XCXGXCX9X9XVXGXGXmX",
"CXvXVXAXGXDXyX'.m.p.n.M.I.R.f.f.m.h.b.N.N.N.N.I.! ^ 2.U.U.B.2.Y y.p.n.B.m.n.b.t.=.:XDXSXiXuXFXbXCXVXuXVXFXCXFXVXVXVXFXGXCX9XmXCX",
"6XzXSXGXAXsXOXE.B.n.U.B.B.U.B.B.k.N.U.B.B.B.g.&.g ^ g.N.M.U.N.&.Z S ..,.n.U.B.n.2 G.dXGXZX8XVXGXGXVX9X9XCXGXCXkX9XmXGXGXGXVX9XVX",
"-XvXSXaX*X|.'.K.N.n.B.<.%.e.u.N.x.R.R.M.i.,.T : r / h.B.k.R.R.p.,.,.,.e.b.B.i.*...j.`.gXSX4XpXGXGXFXkXVXGXGXCXVX9XVXCXCXVXVXVXmX",
"gXGXSX*XY.P.T.B.I.N.g.o.Y %.u.I.U.N.N.B.N.t.,.>.v P 3.B.U.n.m.B.U.B.N.j.N.U.n.p.N.h.j.@XDXVXdXsX9XCXGXCXVXmXVXGXFXGXVX9XkXCXGXVX",
"AXGXrX'.f.g.n.n.T.B.n.>.;.g.B.R.a.p.n.U.N.N.U.R.2. .*.U.B.e.#.#.f.m.B.z.M.U.B.n.T.d.t.{.GXGXGX0X9XVXGXGXVX8XVXGXGXGXVX8XVXGXGXCX",
"AXDX@XP.d.n.n.3.U.B.B.3.3.m.p.r.^ 4.m.n.M.I.I.z.U.N.N.N.n.3.T z @.a.U.U.M.N.n.f.z.m.e.G.>XrXGXSXVXVXFXCXAXFXVXVXCXVXVXVXZXGXFXVX",
"VX6X[.v.h.I.M.,.n.N.B.w.r.g.&.Y  .r.n.B.B.R.R.B.N.n.N.I.N.B.n.&.Z ;.B.U.I.U.B.n.n.U.u.e.E..XVXGXGXVX9X9XCXGXCX9XmXVXCXGXCXVXxXVX",
"zX-X!.d.h.T.T.<.f.B.U.w.r.n.y.+.N.N.B.U.n.i.y.h.g.n.B.B.x.I.U.x.z $.g.B.N.I.N.n.d.R.c.d.B.[.uXFXGXVX9X9XVXGXGXVX9X9XGXGXFX4X9XCX",
"kX<XG.K.x.N.m.B.R.I.n.n.h.n.B.N.N.h.m.B.I.T.R.N.R.k.n.U.I.T.U.n.H #.z.T.R.m.N.R.b.U.T.I.T.W.OXFXGXCXVXMXMXNXNXFXvXGXGXGXGXZXuXBX",
"GXAX_.x.y.n.B.z.B.k.b.B.n.n.N.U.R.M.n.n.N.U.g.#.k.B.n.f.l.u.t.d.a 1.U.R.N.b.p.N.U.I.N.n.h.f.v.!..XXXtXdXhXwX>X>X>X]._.].rXDXGXDX",
"GXGX&Xj.P ( y.Q.B.m.B.g.f.n.B.b.T.R.N.n.N.B.3.R Z s.m.m.R.n.P v r / p.i.b.n.B.B.d.,.u.n.m.n.b.~.6.6.V.f.M.~.K.Q.B.7.y.b.L.%XgXDX",
"VXCXCX`.4 z ! p.s.m.n.,.%.n.U.w.u.i.n.n.N.B.s.#.#.7.,.X.n.g.! y u N I O.f.m.s.>.;.Y ! O.O.r.B.R.Y.Y.R.U.B.f.t.3.H U 0.0.U X.+XbX",
",X4XSXAXG...t x ! ^ @.%.w.N.B.i.@.T @.p.N.N.U.n.U.n.%.U O.y.$.n b y g +.n.y.Y t H h J N y r J G Q W W J N H v v F.(.cXhXD.D.dXDX",
"<X=XvXGXCXW.j y g t U p.B.n.N.n.y.T T t.N.T.I.N.N.n.4.^ A +.W 8 n d s ^ 1.^ g p y d n i q , 3 1 j q q [ } /.XXcXvXbXGXGX6X=X9X8X",
"CXdXBXMXDX#XC L h g +.B.R.M.n.B.U.t.<.n.R.I.N.b.P.m.:.x e x N s m d d c E A h L d b e # `  XcXSX1XxXDXGXGXFXSXFXFXuX,XpXGXGXAX<X",
"DXGXfX2XSXrX< 8 s J 1.m.M.B.B.n.I.M.N.U.N.N.B.h.P.B./ y b n s h u d d g A x u b x h = # 8.aXGXMXkXVXGXAXpX-XpXdXAXFXzXzXDXGXFXFX",
"GXGXVXjXCXgXA.) # t &.B.B.b.h.s.m.B.P.T.U.B.p.u.>.h.:.g y h F f B b s f f s d b K 9 > S.AXGXCXeX9XVXGXCXVXVXVXVXAXGXCXmXVXGXGXVX",
"eXVXCXFXGXGX>X).- > ' n.B.R.T.Q.e.f.d.h.I.T.>.H A ~ ~ i u b u 0 8 x m e 8 B B u $ X ] @XGX9X9XGXGXVXmXVXCXGXVXVXmXVXCXGXVXVXVXCX",
"9X6XZXGXGXSXbXCXgX(.} U #.n.R.0.T.U.h.V.I.R.#.p B n n u d L m 0 # t n 0 7 o * * > { }.AXDX0X9XAXGXCX9X9XFXGXGXVX9X9XCXGXGX9X9XFX",
"DX9XuXZXGXSXzXlXCXDX%X=.: t l : -.N.T.J.f.s.~ w u e p f f f i & $ 0 B V O + ) } A.&XAXFXMXFXFXuXGXFXmXVXCXGXFXVXVXmXVXFXCXVXkXVX",
"GXDXsXyXfXFXZXZX3X2XhX&XH._ 3  .l ! 4.4.:.W x w 9 7 k E N v q +   5 6 . + } :XAXAXCX9XzXFXGXFXsX9XVXGXGXVXeXVXCXGXFXVX9XVXGXGXVX",
"GXGXAX6X6XsXAXgXAX8X7XDXDXbXwX>XS l f F N k & $ o o 6 0 9 6 7 @ , ; + > { .XAXFXGXSX0XjXFXGXAX6X7XVXGXGXVX9XVXVXGXGXVX8XVXGXGXVX",
"DXFXAXxXkXvXCXgX-XVXGXSXlXSXDXnX].{ = & & ; - # < < ; . . X , ] $X/.S.+XgXGXFXFX9XGXGXVXBXFXGXeXVXVXCXFXCXFXVXVXCXFXCXVXCXCXCXFX",
"5X6XsXGXGXDXvX7XDXDXgXiX,XiXAXGXGXtX/.| C C ] C.uXAX>XZ.C.^.XXGXGXDXmXNXFXGXSXkXCXuXAXAXCX4X9XGXGXVX9X9XGXGXFXsX8XeXGXGXGX8X9XZX",
"8XVXCXGXGXCXmXkXGXFXFXVXVXVXCXGXVXVXVXFXGXGXCXVXFXVXCXGXCXVXCXGXGXVX9XVXCXGXCXVXuXCXGXGXVX9XVXGXGXCXVXmXVXGXGXVX9XVXCXGXFXmXVXVX",
"CXVXVXVXVXVXZXCXVXVXVXVXVXFXVXVXVXVXVXCXCXVXFXGXVXVXVXVXFXFXFXVXFXCXVXVXFXVXVXVXVXCXVXVXVXVXFXCXVXCXCXFXFXVXVXCXVXVXVXVXVXCXCXVX",
"GXGXVXuXkXVXGXGX9XeXVXCXGXCXVX9XVXGXGXVXkXuXCXGXFXeX7XsXGXGXVX9XsXVXGXGXxXmXVXGXGXVX8XsXFXGXGXxX9XVXGXGXVX9XVXCXGXCXmX9XCXGXGXFX"
};
