/* XPM */
static char *_32a8b5f4124483ef344fff51a99f195qefob8e5Rg5m2Twe[] = {
/* columns rows colors chars-per-pixel */
"64 64 191 2 ",
"   c #020203",
".  c #060806",
"X  c #080A07",
"o  c #040609",
"O  c #07090B",
"+  c #0B0B0B",
"@  c #080705",
"#  c #160709",
"$  c #0C0D10",
"%  c #0F1113",
"&  c #0F1418",
"*  c #131314",
"=  c #161817",
"-  c #141619",
";  c #1B1B1B",
":  c #181819",
">  c #10110F",
",  c #290001",
"<  c #1E201F",
"1  c #1D1D21",
"2  c #171A21",
"3  c #211F24",
"4  c #1F2022",
"5  c #242324",
"6  c #25262A",
"7  c #272A2A",
"8  c #2B2B2C",
"9  c #2D2E31",
"0  c #2D3133",
"q  c #333334",
"w  c #333539",
"e  c #37383D",
"r  c #3C3C3C",
"t  c #383836",
"y  c #30302F",
"u  c #3E403F",
"i  c #3C3D42",
"p  c #444444",
"a  c #4A4A47",
"s  c #444649",
"d  c #4B4B4B",
"f  c #484648",
"g  c #51514F",
"h  c #4D4E51",
"j  c #4F5254",
"k  c #485158",
"l  c #535353",
"z  c #54565A",
"x  c #56595E",
"c  c #5C5C5C",
"v  c #5B5754",
"b  c #63625E",
"n  c #5B5D62",
"m  c #575A61",
"M  c #615F60",
"N  c #5F6268",
"B  c #656565",
"V  c #63656A",
"C  c #666A6B",
"Z  c #6B6B6B",
"A  c #686769",
"S  c #6C6E72",
"D  c #656D70",
"F  c #746D72",
"G  c #6E7175",
"H  c #6D727A",
"J  c #737374",
"K  c #72757B",
"L  c #74797E",
"P  c #7B7B7C",
"I  c #787876",
"U  c #6F706B",
"Y  c #B53938",
"T  c #EC0907",
"R  c #A45D61",
"E  c #A46D70",
"W  c #907377",
"Q  c #CC5A5A",
"!  c #7E807F",
"~  c #757B81",
"^  c #7B7D83",
"/  c #767A86",
"(  c #817E83",
")  c #7D8186",
"_  c #7E8289",
"`  c #7D8590",
"'  c #828285",
"]  c #83858A",
"[  c #86888D",
"{  c #8B8B8C",
"}  c #89878A",
"|  c #868B93",
" . c #8C8D93",
".. c #868B95",
"X. c #918F90",
"o. c #8C929A",
"O. c #8E9196",
"+. c #949394",
"@. c #989697",
"#. c #939499",
"$. c #999798",
"%. c #9C9A9B",
"&. c #96999D",
"*. c #908E8F",
"=. c #A09E9F",
"-. c #959CA4",
";. c #9B9DA2",
":. c #9B9FA8",
">. c #A19FA1",
",. c #9CA2A6",
"<. c #9DA3AB",
"1. c #9FA7B1",
"2. c #A4A2A4",
"3. c #A8A6A7",
"4. c #A3A5AB",
"5. c #A9A7A8",
"6. c #A5A9AE",
"7. c #ACABAC",
"8. c #A9A8A6",
"9. c #B0AEAF",
"0. c #A2A7B2",
"q. c #A5AAB3",
"w. c #ABADB3",
"e. c #A7AEB9",
"r. c #AAAFB9",
"t. c #B1AFB1",
"y. c #ACB0B6",
"u. c #ABB2BB",
"i. c #B5B3B4",
"p. c #B8B6B7",
"a. c #B9B8B6",
"s. c #B3B5BB",
"d. c #B9B7B9",
"f. c #B4B9BF",
"g. c #BCBBBC",
"h. c #B1B0AE",
"j. c #C0BEBF",
"k. c #C1C0BE",
"l. c #ADB5C1",
"z. c #B1B6C2",
"x. c #B3BAC4",
"c. c #BCBDC2",
"v. c #B6BDC9",
"b. c #B9BFC9",
"n. c #C1BFC1",
"m. c #BDC1C6",
"M. c #BBC1CB",
"N. c #C4C3C4",
"B. c #C8C6C7",
"V. c #C6C5C9",
"C. c #C9C7C9",
"Z. c #CCCACC",
"A. c #C7C8C9",
"S. c #D0CECF",
"D. c #CFCDD0",
"F. c #D1CFD1",
"G. c #D3D1D2",
"H. c #D2D0D1",
"J. c #D4D2D3",
"K. c #D5D3D4",
"L. c #D4D2D5",
"P. c #D7D5D6",
"I. c #D6D4D5",
"U. c #D4D2D3",
"Y. c #D8D6D7",
"T. c #D8D5D7",
"R. c #D7D5D8",
"E. c #D9D7D8",
"W. c #D9D6D9",
"Q. c #DBD9DA",
"!. c #DAD8D9",
"~. c #DCDADB",
"^. c #DDDBDC",
"/. c #DEDCDD",
"(. c #DCDBDC",
"). c #CFD0D5",
"_. c #E0DEDF",
"`. c #E0DDDE",
"'. c #E2E1DF",
"]. c #DFDDE0",
"[. c #E1DFE0",
"{. c #E4E3E4",
"}. c #E8E6E7",
"|. c #E6E5E8",
" X c #E9E7E8",
".X c #ECEBEB",
"XX c #F0EEEF",
"oX c #F1EFF0",
"OX c #F4F4F4",
"+X c #FBFAFA",
"@X c #F7F6F8",
/* pixels */
"i.i.g.g.g.g.g.K.Y.P.P.Y.K.K.G.G.G.Z.Z.Z.Z.Z.S.F.Z.Z.G.Y.G.G.G.P.Z.E.~.Y.P.P.E.Q.K.P.F.F.Z.B.N.N.N.N.3.=.2.%.2.=.%.%.3.%.2.2.5.7.",
"2.=.g.p.g.g.g.E.^.E.Q.Y.~.~.~.{.P.N.N.G.K.Z.F.G.Z.Z.G.P.K.Z.Z.P.P.Y.P.P.K.J.E./.P.[.{.p.i.C.9.i.N.N.5.7.3.i.9.+.{ %.+.$.+.+.p.n.",
"5.3.g.g.g.g.g.P.^.P.Y.P.Q.Q.P.[.J.N.C.Z.G.Z.F.S.Z.Z.G.K.K.Z.S.Y.P.P.P.P.P.J.Y.~.P.Q.Y.N.g.N.i.g.N.N.3.5.2.7.5.%.+.%.@.%.=.%.7.g.",
"p.p.d.i.p.j.g.G.~.J.Y.J.P./.Z.g.Z.J.K.F.P.G.~.Q.Q.Q.~.Q.Q.Q.^.G.B.G.G.G.Q.Q.Q.Q.K.G.G.N.n.N.7.i.n.j.3.7.2.$.%.$.@.@.*.@.2.2.7.g.",
"i.9.p.9.i.B.N.Y./.P.Q.P.{..Xj.p.C.E.Q.Y./.K.~.Q.~.~.~.~.~.~.Q.C.N.G.F.G.Q.Q.~./.E.Q.Q.d.g.j.3.5.N.N.5.9.3.$.$.@.+.+.{ +.%.%.g.B.",
"g.p.p.p.p.j.g.F.Z.G.F.G.Z.Z.Z.N.Z.Z.Z.Z.C.G.P.E.^.~.~.Q.^.[./.G.G.J.E.K././.^.Q.P.Z.Z.C.N.N.p.p.g.g.2.3.>.$.%.@.%.+.@.$.5.5.5.t.",
"3.3.g.p.d.Z.C.Z.N.Z.Z.Z.Z.C.N.g.B.Z.Z.g.d.G.P.K././.~.^.^.{.{.Z.Z.K..X_..X.X~.K.P.Q.Q.g.g.g.i.i.g.j.7.i.2.' } 2.2.$.$.$.>.2.i.p.",
"g.p.g.g.g.N.g.F.S.J.F.J.Z.Z.Z.N.Z : ; 7 7 Z.K.G.E.Q.^.^./._.{.S.Z.F.^.J./._.Q.Y.P.G.G.X + * + p g.g.2.5.2.+.>.$.%.$.$.$.5.3.7.i.",
"i.i.B.N.Z.N.B.N.p.Z.}.E.N.k.Z.N.I w * 5 7 i.d.N.N.Z.~.{.{..X}.C.C.N.n.N.{..XQ.{.K.i.i.= * = 5 s i.N.p.j.i.3.5.+.{ +.+.$.j.j.p.7.",
"i.i.C.N.Z.C.B.N.p.Z.{.P.N.n.F.= Z #.; 8 c : ; N.N.C.~.{.[..X}.B.C.N.n.N.{.oXE.{.K.+ @ A p - #.} @ N.p.g.p.5.7.+.{ @.X.$.n.j.p.7.",
"g.g.Z.B.Z.~.P.Z.C.Z._.K.Z.J P ] D Z f d q * ; n.p.i.Q.P.~. X{.N.B.N.N.N.Z.N.J.N.G.+   t d d t s ^ B l 2.t.i.p.%.5.%.X.$.j.N.g.g.",
"g.g.B.N.Z.{.{.Z.N.S.}._.N.* 1 s.A t l l 5 = ; j.7.7.Q.K.E..X.XN.B.N.N.N.j.N.Z.g.Z.X @   r B @ ; i.7 o 5.7.g.p.2.7.@.{ +.N.N.g.g.",
"n.N.Z.Z.Z.S.Z.N.B.N.N.A * c.s.0 l c 4 8 f = ; n.N.N.G.J.K.K.K.N.N.N.N.N.S.S.Z.Z.Z.+   p 9 * d l + 6.s.$ 5 i.i.2.5.3.3.5.p.d.d.p.",
"B.B.G.XX_.g.g.N.G.g.g.S q m.4.7 a l 7 8 t r r n.Z.Z.N.N.N.Z.Z.N.N.j.g.g.j.g.Z.Z.B.t 8 t 8 : a d : &.4.8 r 5.t.p.p.p.p.i.Z.Z.5.2.",
"N.N.Z..XY.g.N.j.S.g.o  .V.4 ; c u ; p t X a.g.j.C.Z.N.N.N.C.C.j.N.g.g.g.N.N.B.Z.N.p.g.@ t A * ; J : @ s.2.  2.p.p.d.p.p.N.N.7.2.",
"G.K.Z..XQ.i.g.i.d c [ N h l d 7 t t 5 l +.j.N.N.Q.~.N.g.N.C.B.g.g.g.g.g.Z.Z.N.N.N.N.N.{ B 5 r p 8 d d p h ' B a w.p.g.g.9.7.i.5.",
"G.E.G.oX/.7.t.i.+ 4 i.h = B c * t r * c i.g.N.N.^.[.N.g.k.Z.Z.j.g.g.g.g.Z.Z.Z.N.N.N.N.i.J @ d l : B J @ 1 7.r o 7.p.g.g.5.5.t.5.",
"Z.K./. X{.^.J @ e.4.; p c * : l ; X 7.5.=.5.2.2.5.3.:                     * N.N.N.S.S.Z.J.Z.: : Z ;   c l o | y.  g i.p.g.g.g.j.",
"{.{.{.+X.Xg.S 1 -.#.7 r l 7 4 t 8 5 i.$.+.5.2.2.g.y.6 * 7 8 8 9 8 8 7 7 5 q i.g.N.Z.Z.G.P.C.t 8 B 7 = d d * ^ -.5 c 3.i.g.g.g.n.",
"G.P.~.XX^.@ ^ u.% ; A 7 * d p   $.t.i.7.3.7.2.2.$.  G ^ i.g.p.Z.Z.Z.Z.Z.N.g.  ' B.Z.S.F.G.Z.g.N.+ f f + : c ;   w. .  2.g.g.g.g.",
"E.Q._.p d -.-.[ + * ; t f ; 8 i.N.g.g.p.i.7.$.8 e n 1 ; 7 5 4 5 6 5 7 8 5 6 m j t Z.Z.G.Z.Z.N.B.2.q * d f = @   ;.-.#.d q a.g.g.",
"P.P.Q.O % m.:.L X X X 8 t X 5 P.P.N.g.p.p.7.2.  ; K o       o               H s @ Z.Z.F.F.Z.N.N.p.r + l f     o ;.4.z.w   g.g.a.",
"J.J o L ~ _ q   ' P o     .XQ.G.P.Z.N.N.g.X o G _ e.e.e.u.1.-.-.<.,.q.z.l.l.l.:.' o : G.E.G.Y.K.Z.Z.~.*   o Z $.  8 | _ P o c i.",
"Z.Z   ~ ) P w + ] K $ @   @XP.Z.Q.P.P.g.g.$ o H ` l.0.6.q.4.&.2.4.2.w.f.s.u.l.<.| $ ; Q.Q.G.Q.~.N.N./.+   * ^ ;.- q P ] )   c 9.",
"K.J o ~ K o ) u.[ _ ^ 7 @ Q.P.P.G.g.p.5.  S H u.u.u.D A B B A B B B A A A D z.x.z.~ ^ o P G.T.J.G.G.Q.+ 1 2.#.o.H.&.  P [   b c.",
"/.I o L L X ^ z.| ) L V D d f f p r p l N <.<.l.1.^ 5 : : : : Z J ; : : ; ; [ ,.x.q.q.V z p f f p p f K ' 4.;.2.|.2.  ' $.  b N.",
"E.J   L L + [ y.| ' ^ ^  .o o o o     4 ~ e.u.u.<.G @         P P           I -.x.x.f._ p   o o     o &.4.5.>.4./.;.  [ O.o c N.",
"{.I o ~ P > * X           [ ^ L ~ ^   4 L u.e.C z   B A       P '       P }   p P M.x.c.V   S H S G G o o     @       +.#.o Z [.",
"{.P   L ^ : * + r w w e e -.o.o.] ^ o 4 H u.e.Z c   d d 8 :   P P   * 7 l c   r I m.v.x.V   G K ....O.9 9 8 9 8        .+.o B [.",
"{.P   ) ^ * X @ ] _ _ ) | x.x.x.o.~   ; H u.u.Z l     @ P f   I I   q J +     r P c.x.c.V   K / v.b.M.^ ^ K H G o     [ &.o B Q.",
"{.P   ) P   l K u.u.u.,.:.<.<.<.u.q.q. .o J P @ @       X t B + X A p @       @ X G J * i S u.l.<.<.,.,.q.x.l.x.;.J   ' ;.  B ^.",
"{.I   L J   n L u.u.u.:.4.6.6.4.u.y.e.+.  J P             q A @   J p             A J   e K x.z.0.4.,.,.q.M.x.x.c.(   P ,.  Z |.",
" XP   L J o c ^ q.0.-.-.q.e.4.4.s.s.s. .  P P         @ I p         8 A X         Z J @ i L x.l.q.e.<.:.:.:.u.z.g.P   K 4.@ I @X",
".XP   L K   p n 0.0.<.-.6.q.q.6.f.y.) G 6 P I 5 5 5 5 5 l 7         5 d 5 5 ; 5 5 A Z 7 p z x.x.u.u.e.q.0.0.u.x.^ c   P -.@ P OX",
".XP   K K o     ,.<.x.u.x.x.b.V.c.s.o 1 K J Z A B B A B                 c B B B B B A G i   f.x.M.v.x.x.x.z.z.v.o     P #.. P +X",
".XP   L L         @ o o o c.b.V.m.s.  3 L J J         X I p         q J +         A A H i o s.v.M.v.x.O @   @ @       L #.O P +X",
".XP   H G   $ $ + + * $ $ u.s.s.s.w.  4 ^ J J         @ I p @ @   X q A +         Z A H i   7.u.e.y.e.% + + + $ = +   H  .X P .X",
"}.P o H K o L u.L ~ ~ K K o o o       1 ^ L P             t Z X @ J f             A Z J i     o   o o ' ^ L H P A.&.o D | . ' +X",
".XP   G S   ~ l.~ ^ ^ j i Z Z G Z A B A s P P q 6     @ f f t r p p f r X     : t S G i n Z Z Z Z Z B s z _ L ~ A.;.o D #.X P oX",
".XP   H G @ ~ l.~ L L 6   B.Z.G.Z.N.j.7.  S J Z l     X +.l   P P   t P +     t Z H H   I C.~.E.D.Z.n.X = [ ~ ~ g.2.O K O.+ ' OX",
".XP   H H H 8 o ~ K o     Z.Z.G.Z.g.g.g.p.+ o u.4.A V B o     ( } @     B A S  .u.O % Z.Z.Z.P.D.C.C.g.+ @ $ C ' > y ^ ) [ ; P OX",
"@X{ * S D ~ 0 O ^ K       {.Y.{.Y.g.g.g.g.: + e.,.S Z B       I P @ @ o V Z G  .u.* : c.N.Z.G.H.K.E.F.+ @   B ( + 0 ^ L I ; F Z.",
"@X@X{.@ * v.o.K o     5 q   q {.Q.p.g.g.g.g.g.@ 9 q.S A C A C Z F C Z U F G s.C o g.d.N.N.Z.Z.F.K.9 @ p t     o ] o.u.e + g.S.^.",
"@X@X{.@.$.n [ o.  @ 7 ; : : 8 P N.g.n.g.p.p.g.P ^ c Z F Y R [ ! '  .E Y W P x ^ P d.g.g.g.C.F.G.K q 8 7 7 t X   4.#.x ' P p.g.n.",
"@X@X.X@X X  / u.  X d =   q q   7.Z.Z.5.5.p.j.g.4.  Z F T Q 2. ...&.Q T E ^ o } j.i.7.C.N.Z.K.Z.X p c + : Z ; @ c. .o 2.%.$.p.i.",
"@X@X.X.X.X'.S + m.w.O y f @ X 8 ; : g.g.i.p.g.i.i.7.5 @ , # X X O X # , # = i.g.g.p.p.n.n.Z.5 5 d 5 = l l < ] q.* v 7.i.t.w.g.d.",
"@X@XXX+XXX~.P = H.c.$ t f   X q > X Z.N.n.g.{ $.V.N.q * = = = : = = = = = 5 C.N.N.N.N.g.n.J.; : c 5 * n c ; ..u.: B V.V.2.>.7.4.",
"@X@XOX+XXX/./.Q.X 5 ).s o f d   5 q   c N.g.{ $.C.Z.p.i.p.g.g.V.C.V.Z.C.N.C.N.N.B.N.N.g.J   f l X l c = 9 N.p . N.C.N.C.2.2.7.3.",
"@X@X.XOX.X{.}.Q.k.p.x D K ; : 8 ; * ; t B g.+.2.9.i.p.C.c.i.p.C.V.N.V.V.N.N.N.N.N.Z.C.M f 5 7 8 t q 0 [ ] x 5.h.Z.Z.T.Z.p.d.i.d.",
"@X@XXX@XXX[.{./.{.S.o [ x.o o f :   q 5   a.{ +.p.p.g.F.V.w.t.C.C.C.N.V.N.g.N.N.N.G.G.  ; r + * l = + x.6.o a.Z.Z.Z.].H.g.n.d.g.",
"@X@X.X.X.X.X X/.[.~.`.B o z.u.  q d   X 8 X : 5.7.7.g.g.g.g.g.C.Z.Z.Z.Z.N.N.N.N.N.* X t 5 X d d @ w.x.& t Z.Z.Z.Z.Z.Z.Z.g.g.g.c.",
"@X@XXXOX.X X X{..X{.Q.P 8 u.y.o e d   + q   + 2.$.$.g.p.d.i.p.C.V.Z.P.F.B.Z.N.g.N.+   r 5 X d d - e.z.j c G.G.G.R.Z.Z.Z.G.K.N.c.",
"@X@X.X.X.X.X.X{.{.{.Q./.~.@ O l.i o f t     + 3.%.$.g.d.g.i.d.C.V.D.K.F.N.N.N.g.N.+   X 8 g % 1 c.2 @ Z.Z.U.Z.D.P.Z.Z.D.F.G.V.g.",
"@X+X.X.X.X{.{.{.{.{.{.{.P.7.4.k s p 1 5 8   > i.5.7.g.N.N.Z.C.K.E.D.N.C.N.N.n.g.N.+ @ r q 7 A V m 6.8.B.Z.B.N.Z.N.Z.G.F.Z.Z.Z.F.",
"@X+X.X.X.X{.{.{.{.{.{.{.P.P.{.. h J   * f @ * i.5.7.g.N.N.Z.Z.K.R.Z.N.Z.N.B.n.g.N.* X l q X  .[ * H.Z.N.Z.N.N.Z.N.Z.G.G.Z.Z.Z.F.",
"@X@X.X.X.X{.{./././././.{.{.{.|.A o       /.G.S.Z.Z.C.N.N.N.N.~.^.E.^.E.g.g.j.N.c.n.N.    @ o f J.G.Z.Z.Z.C.Z.S.Z.S.S.Z.Z.Z.C.B.",
"+X+X.X.X.XQ.Q././././././.^..X.X3.A A A A /./._.N.N.C.N.N.N.N.].[.].|.{.d.i.N.Z.n.V.Z.l l B B P /.[.Z.G.Z.N.N.F.G.Z.Z.S.Z.S.N.j.",
"@X@X.X.X.X{.}.^././././.{.{.}..X.X.X.X.X.X_./.Q.G.H.C.N.N.N.N.].]./.{.^.g.g.g.N.g.n.g.g.p.V.Z.Z.F.F.Z.Z.Z.N.C.S.S.Z.S.Z.Z.Z.B.N.",
"@X+X.XOX.X{.{././.(././.{.{..X.X.X.X.X.X.X{.{.{.^.^.Z.H.Z.c.g.^.^.^.[./.c.c.d.i.g.D.Z.N.N.V.Z.Z.Z.Z.Z.Z.Z.N.C.S.Z.Z.Z.Z.N.N.Z.Z.",
"@X@X.XOX.X{..X/././.(./.{.{.}..X.X.X.X.X.X{.{./.Q.~.Z.G.Z.c.n.^.^.].[./.c.n.g.i.g.V.C.n.N.V.V.Z.Z.Z.Z.Z.Z.B.C.F.S.Z.Z.Z.N.N.Z.Z.",
"@X@XOX@XOX.X.X{./.{.{.[..X.X.X.X.X.X.X.X.X.X/._./.].Q.R.Q./.^.{.{.{.{.{.Z.H.n.i.V.N.N.N.N.Z.E.F.N.N.Z.Z.Z.Z.Z.Z.N.Z.S.Z.Z.Z.N.N.",
"@X@XOX@XOX.X.X{.(.[././..X.X.X.X.X.X.XoXOX.X/./.{.{.Q.G.K.[.{.{.{.{.|.{.~.^.d.5.g.N.g.Z.Z.Z.{.{.i.i.Z.Z.Z.Z.Z.N.N.Z.J.S.J.K.N.N.",
"@X@XOXOXoX.X.X{.{.{.{.{..X.X.X.X.X.X.X.X.X.X{.{.{.{./.E.E.~.~.|.|.{.|.{.V.Z.N.n.C.N.N.N.N.N.Z.Z.Z.C.Z.Z.Z.B.Z.Z.Z.Z.Z.Z.N.N.N.B.",
"@X@XOX@X@X.X.X{./.{. X{..X{..X.X.X.X.X.X.X{.{.{././.Q.K.E.].]..X.X|.{.{.K.K.N.c.N.c.g.Z.Z.Z.C.Z.F.F.Z.C.C.g.N.G.P.Z.N.B.g.g.B.Z."
};
