/* XPM */
static char *player[] = {
/* columns rows colors chars-per-pixel */
"64 51 256 2 ",
"   c #040002",
".  c #0B0201",
"X  c #0D0905",
"o  c #04030A",
"O  c #0A0709",
"+  c #130200",
"@  c #1B0301",
"#  c #140B00",
"$  c #170B08",
"%  c #1B1508",
"&  c #0C0712",
"*  c #181415",
"=  c #270503",
"-  c #380404",
";  c #271603",
":  c #361A03",
">  c #2E1615",
",  c #392D0C",
"<  c #2C1723",
"1  c #392E27",
"2  c #342D32",
"3  c #193421",
"4  c #460301",
"5  c #560701",
"6  c #500D0F",
"7  c #71140B",
"8  c #4B2C0D",
"9  c #6E2B0B",
"0  c #451823",
"q  c #56142A",
"w  c #661228",
"e  c #473633",
"r  c #483325",
"t  c #70252D",
"y  c #794A0E",
"u  c #524639",
"i  c #6F4D31",
"p  c #786835",
"a  c #726637",
"s  c #656714",
"d  c #534A49",
"f  c #65584A",
"g  c #685751",
"h  c #68675C",
"j  c #74635A",
"k  c #776047",
"l  c #7D7775",
"z  c #787168",
"x  c #5F624F",
"c  c #901100",
"v  c #B10800",
"b  c #9B2905",
"n  c #8E2F09",
"m  c #AD300B",
"M  c #8D3033",
"N  c #D02E04",
"B  c #E53610",
"V  c #C4382B",
"C  c #954A0A",
"Z  c #B0530D",
"A  c #916A0D",
"S  c #B6730C",
"D  c #8F5230",
"F  c #B0472F",
"G  c #9B722B",
"H  c #A66429",
"J  c #CD5107",
"K  c #E74A01",
"L  c #FB5307",
"P  c #FD4712",
"I  c #EA5613",
"U  c #F85209",
"Y  c #CE690D",
"T  c #ED6926",
"R  c #DB6829",
"E  c #876B4D",
"W  c #867566",
"Q  c #887871",
"!  c #A35B5F",
"~  c #DE5D40",
"^  c #E56F47",
"/  c #76837C",
"(  c #B88C14",
")  c #B8B80A",
"_  c #AF8D33",
"`  c #988819",
"'  c #D18908",
"]  c #DBB60C",
"[  c #C69225",
"{  c #EB8B28",
"}  c #DEB235",
"|  c #CDCA00",
" . c #D5CE05",
".. c #D4D300",
"X. c #DDDB01",
"o. c #D9D607",
"O. c #DBD718",
"+. c #D0CE09",
"@. c #E3DD02",
"#. c #E4DC0A",
"$. c #E4DB16",
"%. c #F0D215",
"&. c #DDE401",
"*. c #E4E301",
"=. c #EAE402",
"-. c #ECEB01",
";. c #E5E40C",
":. c #EBE809",
">. c #F4EC05",
",. c #ECF304",
"<. c #F4F402",
"1. c #F5F40B",
"2. c #FDFD0C",
"3. c #F9F704",
"4. c #EBE515",
"5. c #F3EC13",
"6. c #F6EB18",
"7. c #FDFD13",
"8. c #F9F618",
"9. c #E7F212",
"0. c #D8D726",
"q. c #D3D032",
"w. c #EDD22F",
"e. c #DBE32D",
"r. c #E8E625",
"t. c #F7EC24",
"y. c #FEFE25",
"u. c #F9F628",
"i. c #E9E836",
"p. c #FCE83A",
"a. c #FCF734",
"s. c #EDF234",
"d. c #9D9A54",
"f. c #B4974B",
"g. c #95867A",
"h. c #8C826E",
"j. c #B0936D",
"k. c #C89450",
"l. c #D7B04D",
"z. c #F6B84F",
"x. c #C8936F",
"c. c #D9B170",
"v. c #F5BA70",
"b. c #CAC848",
"n. c #D7D445",
"m. c #D8DA5A",
"M. c #CDC65B",
"N. c #EFCF52",
"B. c #EBEA4C",
"V. c #FAF943",
"C. c #F1E750",
"Z. c #D9D96B",
"A. c #D6C879",
"S. c #D4D275",
"D. c #C9CE7C",
"F. c #F6D170",
"G. c #E6E467",
"H. c #F9ED66",
"J. c #E8E87A",
"K. c #FFE272",
"L. c #938784",
"P. c #939488",
"I. c #A79C88",
"U. c #AB958C",
"Y. c #9CA295",
"T. c #AFA999",
"R. c #B5B0AC",
"E. c #D39B85",
"W. c #D1B292",
"Q. c #E5B683",
"!. c #C9B9A8",
"~. c #C6BEB8",
"^. c #D1BBB0",
"/. c #F8BDB9",
"(. c #CEC894",
"). c #DEDA97",
"_. c #D8D089",
"`. c #FDD789",
"'. c #E6D698",
"]. c #EAD090",
"[. c #EAE489",
"{. c #E9E799",
"}. c #FDE697",
"|. c #FFF092",
" X c #C5C4BA",
".X c #D9C8BD",
"XX c #D8D3AC",
"oX c #EED4B1",
"OX c #EAE4A8",
"+X c #F9EBA7",
"@X c #FCF6AB",
"#X c #EAE8BB",
"$X c #F6E7B9",
"%X c #FCF6B6",
"&X c #F5B0C3",
"*X c #CACBC1",
"=X c #D7CCC5",
"-X c #D5D2CA",
";X c #D9DAD7",
":X c #CFD9C7",
">X c #E5D7CA",
",X c #E4DBD6",
"<X c #F4DED2",
"1X c #DBE4D4",
"2X c #D7E2C0",
"3X c #E8E7CA",
"4X c #F8EBC6",
"5X c #FEFBC3",
"6X c #FFFECB",
"7X c #FAF3C7",
"8X c #EBE1DC",
"9X c #E7E6D9",
"0X c #F7E8D9",
"qX c #FFFDD3",
"wX c #FCF4DC",
"eX c #FEFCDC",
"rX c #F9F4D7",
"tX c #EBF1D1",
"yX c #F9DAF3",
"uX c #DCE6E7",
"iX c #DEF1EF",
"pX c #E6E6E5",
"aX c #ECE4E3",
"sX c #EDEBE5",
"dX c #E5ECED",
"fX c #ECEDEC",
"gX c #E5E7E9",
"hX c #F2ECE4",
"jX c #FBEBE2",
"kX c #F2ECEA",
"lX c #F4E8E9",
"zX c #EEF2ED",
"xX c #E8F6EC",
"cX c #F3F1E6",
"vX c #FCF3E4",
"bX c #FEFDE4",
"nX c #F4F2ED",
"mX c #FCF4EC",
"MX c #FDFBEC",
"NX c #F3F9E6",
"BX c #ECEDF2",
"VX c #E5EDF5",
"CX c #F4EDF2",
"ZX c #FAECF6",
"AX c #EEF3F5",
"SX c #EDF3FA",
"DX c #E8F8F7",
"FX c #F2F2F2",
"GX c #FCF4F3",
"HX c #F5FAF4",
"JX c #FEFAF5",
"KX c #F5F5F9",
"LX c #FEF5FC",
"PX c #F4FAFC",
"IX c #FBFBFB",
"UX c #DFDDE2",
/* pixels */
"FXnXAXnXFXAXzXzXHXAXAXdXAXdXAXDXVXSXVXAXBXIXJXGXJXlXlXkXAXdXSXVXDXDXDXAXDXPXHXkXCXFXKXBXBXVXSXPXCXFXCXAXAXFXFXFXFXFXFXFXFXFXFXFX",
"nXAXnXAXnXzXAXHXfXdXAXHXHXKXSXFXDXdXPXIXR.Q L.~.=XGXGXIXkXdXdXPXxXDXDXAXdXsXfXkXkXkXCXLXIXLXCXVXKXAXAXnXkXFXFXFXFXFXFXCXFXFXnXAX",
"HXzXAXFXAXFXAXnXzXAXAXAXFXFXAXdXKXPXpX8XkXR.j j Q U.>X,XIXkXIXpXdXxXHXHXFXFXIXIXKXCXlXfXBXKXKXKXFXFXCXzXFXFXFXFXFXFXzXFXFXFXFXFX",
"nXFXFXzXnXAXHXAXAXHXzXfXzXzXAXzXsXHXmXcXIXJX.XQ U.j j ,XCXJX,XIXzXcXsXaXhXhXfXsXaXlXKXGXFXkXfXkXFXFXFXFXfXFXFXFXFXFXFXFXFXFXFXFX",
"AXFXAXHXAXnXFXFXAXFXnXfXAXKXHXnXJX9XMXMX<XvXMX^.g e g f ^.GXlXaXmXmXjXmXmXmXGXnXnXGXGXGXGXnXZXGXCXFXkXFXAXnXFXAXFXFXFXFXBXFXFXFX",
"nXAXFXFXFXAXAXnXzXFXFXAXzXFXfX;X-X>X.X.X<X0X0XJXT.= @ d g ;XGXLXjXjXmXjXhXhXhXkXnXsXsXsXhXlXhXkXnXFXAXFXkXAXFXFXFXFXFXFXFXFXFXnX",
"AXAXFXAXAXFXAXAXFXKXHXkXfXkXpX-Xf g.W j Q W W !.mXf > $ > L.JX-X0X<X0XhXmXJXmXnXnXJXJXJXlXhXnXJXFXFXFXFXFXkXFXFXFXFXAXkXFXFXFXFX",
"AXAXFXFXFXFXFXFXFXHXFXfXFXIXHXhXMXI.h.W 1 ; > > d j @ o * d Q z g f g L..XmXMX9X:X*XT.Q h l ~.JXnXAXCXzXAXFXFXFXFXFXFXFXFXFXFXFX",
"KXAXAXAXFXSXCXFXFXfXfXFXGXkXkXmX0XvX!.f # . X   . $   o O $ 2 1 2 e e 1 u R.Y.Y.T.T.x / h P.MXnXFXFXfXfXIXKXfXFXFXFXFXnXFXFXFXFX",
"AXSXFXSXKXFXFXFXkXIXIXsXsXIXIX,XMX<XMX-Xe   & o o O o &       . .   X < # # h.#X3XbXeX3XMX1X*X1XHXIXIXCXFXFXzXFXAXFXFXFXAXFXFXFX",
"AXSXSXFXAXFXFXFXfXsXCXJXGX8XkXJXjXwXMXIX-Xd   o o o o     X       O X     # XXqXqX(.qXeXrXeX1XP.-XFXIXfXfXFXKXFXnXFXFXFXFXFXFXFX",
"KXBXAXSXKXBXFXFXKXkXkXhXJXIXmX8X>XjX.X-XIXR.* o o o       % . X &   . . # a 6X%X'.@X5X6XXXtXbXNXR.pXHXfXCXHXFXFXFXFXCXAXFXCXAXnX",
"SXSXAXAXFXKXAXFXFXFXGXGX8X=XR.T.U.W j j z d <   o     O   #     O   X X X G %X}.c.@X%X+X(.#XeXbX;XfXFXKXHXFXfXFXFXFXFXFXFXFXFXFX",
"SXSXCXSXSXCXCXFXGX8XkXIX8XY.Q Q W 8 6 > . X <   o     . . . ; 1   * X # + s v._ F.|.|.A.@X5X#X3X9XdXzXfXKXnXkXIXFXFXFXFXFXFXAXnX",
"KXSXSXSXKXAXFXCXIXLXlXaXGXGX=XL.E 8 @ + . .     . X   # # + k P.X   % , : y ` ( [ K.N._ %X@X(.eX=XpXfXfXfXKXFXKXFXFXFXFXFXFXFXFX",
"BXSXSXFXFXFXFXFXfXGXGXkXkXGXZX<XU.k > + @ . . + . $ @ ; , . j.oX  % j.p G }.F.z.[ [ A l.F.].5X>X XfXIXfXfXIXHXpXFXFXzXCXFXFXFXFX",
"FXFXFXFXFXFXFXFXFXnXCXnXFXnXFXcXbXXXL.2 & & O . + < r 8 E = _.).; X ; 8 ` N.|.|.`.Z ( [ l.k.Q.U.8XnXFXfXIXpXHXFXFXFXFXFXnXFXFXFX",
"FXFXFXFXFXFXFXFXFXFXFXAXFXFXzXnX.XtXVXR.d & . = + - 8 - D 8 |.%X# u p J.` ` 9 y y y A k._ D W.jXnXFXFXfXKXfXLXfXFXFXFXFXAXFXFXFX",
"FXFXFXFXAXCXFXFXFXFXAXFXFXFXFXnXT.x * 2 2 * % i j.: i 8 : , |.d.u GXqX+Xf.+X; = = @ : + 1 2XnXIXKXfXKXfXfXnXKXBXFXFXFXFXFXFXFXFX",
"FXFXBXFXFXFXFXFXCXFXFXnXFXFXFXnXrXmXR.d o   X 1 p j.4XwXqXp s d.!.vX7X_._ `.! 8 = > # 1 R.JXDXBXnXpXHXKXfXfXFXIXFXFXFXFXFXAXnXFX",
"FXFXnXFXFXFXFXFXFXFXFXFXFXFXFXFXmXGXkXfX;Xl 2 % d.S.$X4X$X).D.{.7X$X+Xl.} z.z.[ j.t j.0X.XR.0X<XJXfXfXIXFXFXfXJXAXFXCXAXFXFXCXAX",
"FXAXFXFXFXFXFXFXFXFXFXFXFXFXFXFXaXLXGXxX1XY.2   , _ '.4XoX6X@X'.+X%XF.Z { z.{ v.k.j.I.1 @ @ : W.nXIXpXFXHXKXFXFXFXFXnXFXFXFXFXnX",
"FXFXFXFXFXFXFXFXFXFXFXFXFXnXFXCXLXCXgXpX XY.T.(.f.G G Q.$X5X+X@X|.N.Y J I J { R k.a   3 h u ; % T.IXfXFXFXFXLXdXFXFXFXFXFXFXFXFX",
"FXFXAXCXFXFXnXAXFXFXFXCXFXFXFXFXyXCXHXHXDXJXMXrX%Xv.H n H k.Q.v.l.Z m m Z c b 7 6 = h IXJX0Xa ; d JXKXHXkXfXIXzXFXFXFXFXFXnXAXFX",
"FXAXCXFXFXFXFXAXCXFXnXAXFXFXFXFXLXKXIXPXxX:X#XW.c.v.v.Y n 7 7 D Z Z 9 4 5 M t - 5 t ! &XyXyX>XW  X;XFXFXfXFXKXFXFXFXAXFXFXFXFXFX",
"FXnXFXFXFXnXFXFXFXFXFXFXFXFXAXCXBXgXDXVXiX1X4X].D F R N T Z m b m n 5 = - 4 - 8 4 M M ! yXyXIXLXpXKXIXHXFXHXFXfXFXnXnXFXFXFXFXFX",
"AXnXFXFXFXFXFXFXFXFXFXFXFXFXFXFXIXCXDXDXiX1X$XQ.5 c I J P N V V F F t w q q 4 9 D x.M U.ZXLXZXgXKXHXFXdXkXKXFXfXAXFXFXFXAXCXFXnX",
"FXFXFXFXAXFXFXFXnXFXFXFXnXFXFXCXKXBXDXDXiX.XXXx.n ~ T L N N v c c 9 w 6 6 w q 9 i E W GXZXVXuXKXBXkXfXsXfXKXKXFXFXFXCXFXnXFXFXAX",
"FXFXFXFXFXFXAXnXAXFXFXFXFXFXFXGXZXsXxXxXDX1X<Xc.F ^ L L B P v 7 4 = - - = < < = + + / iXIXKXDXDXFXKXHXkXfXFXKXkXFXFXFXFXFXFXFXFX",
"FXFXFXFXFXFXCXFXCXFXFXFXFXFXFXFXZXCXDXxXHXNXJXoXF T L L L B B V 9 = 6 t q q 0 0 + l PXDXuXDXpXxXAXFXHXFXFXfXFXHXFXFXAXnXFXFXFXFX",
"FXCXzXFXFXAXnXFXFXFXFXnXAXCXAXCXZXlXhXtXtX9XLX&X~ T K P L P P m 7 4 5 t M F M E.oX<XnXIXdXPXgXIXfXfXFXFXFXFXFXKXFXFXAXFXFXFXAXnX",
"FXFXFXFXFXFXFXFXFXFXFXAXnXFXFXFXZXZXMXwXNXxXLX/.C Y K K K I N b n 5 - - n n C Q.wXwXmX9XPXiXIXUXIXFXFXFXFXFXfXfXnXFXCXFXFXFXFXFX",
"AXFXFXnXKXBXFXkXBXFXfXFXzXFXnXFXfXKXnXMX0XjX<XoX( Y Y Y Y n Z ' F.A 8 ] w.] ( `.rX0XjXnXfXdXSXSXSXKXkXFXfXKXnXFXFXkXFXkXFXkXFXFX",
"fXFXfXIXfXIXfXKXFXfXIXfXIXfXKXFXSXgXJXcX4X$X`.K.H.p.%.A 9 Y N.p.p.w.w.a.u.V.V.m.@X%XwXvXMXzXVXSXSXfXIXdXKXfXKXzXzXKXfXIXdXIXBXFX",
"KXfXIXgXIXsXHXkXfXHXfXIXpXIXfXKXHXAXBXvX$XM.H.C.a.6.p.] ( w.p.%. .#.5. .o.r.V.q.m.J.{.#XeXNXiXSXBXKXsXIXfXIXfXFXKXfXIXpXIXpXIXfX",
"kXHXfXIXpXIXgXKXFXfXIXpXIXgXIXzXPX;XPXwX[.B.e.y.6.>.>.>.a.a.%.%.8.2.<.@.$.p.a.p.r.B.Z._.7XNXdXPXKXfXIXpXIXpXIXfXzXIXpXIXpXIXfXKX",
"FXfXIXgXIXfXHXfXkXKXpXIXpXIXfXFXdXIXgXbXJ.e.u.,.2.7.>.>.6.4.6.y.2.2.2.>.$.a.u.*.,.a.B.Z.#XcXsXHXzXIXpXIXpXIXfXFXFXfXIXpXIXgXIXfX",
"BXHXfXIXpXIXfXFXFXfXIXfXIXsXIXAXDXBXIXtXm.V.&.,.<.=.*.7.=.;.y.-.-.3.7.y.6.6.:.@.,.7.s.G.$XjXhXhXFXfXIXpXIXfXIXzXfXLXgXIXsXIXfXFX",
"CXfXHXfXIXfXKXfXzXKXfXKXfXKXfXKXBXIXsX#Xm.e.9...1.| ..:.o.9.7.,.=...$.u.7.@.-.3.&.,.s.C.OXwXvXcXkXKXfXIXfXKXfXFXHXfXHXfXHXfXKXFX",
"zXKXkXKXAXFXnXFXFXkXFXzXKXnXFXFXZXsXMXOXm.e.&.&.8.y.y.| +.u.,.7.;.| 4.4.y.>.7.3.,.1.u.C.[.7XbXhXnXAXFXkXFXzXKXnXFXFXAXFXkXKXzXFX",
"FXFXFXFXFXFXFXFXFXnXAXFXFXFXFXFXsXGXjX).G.i...5.#.6.4. .+.0.&...) +.4.u.6.@.>.3.3.3.u.i.m.[.rXZXFXFXCXAXFXFXAXFXFXFXFXFXFXFXnXAX",
"FXFXAXnXFXFXnXFXFXFXCXFXFXFXFXFXnXjX0XOXH.r.+.7.X.#.#.#.r.t...) ..r.t.5.#.>.3.3.2.3.&.r.i.J.rXZXCXFXFXnXFXFXFXFXFXFXFXFXFXFXFXFX",
"FXFXFXCXCXFXAXFXFXFXFXFXFXAXFXkXJX0XjX$XG.O...<.>.>.=.#.t.a.$. .X.4.4.#.@.>.3.>.2.,.&.8.s.G.rXCXFXFXFXFXFXFXkXFXCXFXFXFXAXFXCXFX",
"FXFXFXFXFXFXFXFXFXFXFXFXFXnXFXnXvXjXGX4Xm.0.:.-.>.>.=.@.#.t.t.6.*.*.;.#.:.1.>.-.3.3.,.y.s.Z.wXZXKXFXFXFXFXFXFXFXFXFXnXAXnXFXFXFX",
"FXFXFXFXFXAXFXFXBXFXFXFXnXFXAXnXsXcXGXrXS.n.i.;.=.@.=.=.4.t.8.8.<.&.;.4.6.7.>.6.9.8.:.r.m.).eXkXnXCXFXFXFXFXFXFXFXFXAXFXFXFXFXFX",
"AXFXFXnXFXnXFXFXFXFXFXFXFXFXFXnXHXfXnXbX).b.n.0.$.@...@.4.t.5.,.1.o.#.4.5.u.$.u.u.4.e.q.S.#XbXsXnXFXFXFXFXFXFXFXnXFXFXFXFXFXFXFX",
"FXnXCXAXFXnXFXFXnXFXFXFXFXFXFXAXPXxXsXNX3X(._.M.0. .|  .$.$.&.,.1...:.;.4.t.#.4.r.q.G.'.#XMXhXcXnXnXFXFXnXAXFXFXFXFXFXFXFXAXAXnX",
"FXFXFXFXFXAXFXFXFXFXFXAXFXFXFXFXVXPXsXmXmXwX7X'.b.q.i.B.C.n.r.9.O.O.u.r.i.C.q.q.n.b.%XwXmXIX9XHXAXFXFXAXFXFXFXAXCXFXFXFXnXFXCXFX",
"BXKXfXIXAXKXfXFXFXkXLXfXKXCXKXfXKXSXKXkXHXhXeXqXOXD.S.J.M.Z.G.b.) q.q.n.b.Z.S.{.OX7XwXhXLXVXIXAXKXAXKXfXIXfXHXBXFXKXfXIXfXKXzXHX",
"nXFXfXKXkXHXzXFXFXzXHXgXHXkXHXfXKXCXKXCXLXhXmXvXrX#XXXOX_.{.@X{.S.J.J.[.).%X4XeX0XnXFXBXKXdXIXFXKXnXHXfXKXnXKXnXkXHXfXIXfXKXkXIX",
"kXKXfXHXfXKXfXFXFXBXHXfXKXFXKXfXPXBXFXAXHXfXnXvXwXwXtXqX3X6X5X7X5X6X#X7XtXbXcXmXdXKXFXfXKXfXHXfXIXkXFXfXHXCXKXfXFXFXfXIXfXKXBXIX"
};
