/* XPM */
static char *dbe68c62b1124ca2cd215fc407476794BY7xzPlv0I1C99tB[] = {
/* columns rows colors chars-per-pixel */
"64 64 178 2 ",
"   c #010101",
".  c #0C0404",
"X  c #060B07",
"o  c #0A0906",
"O  c #06070A",
"+  c #09070A",
"@  c #070B09",
"#  c #090A09",
"$  c #120302",
"%  c #130907",
"&  c #1C0908",
"*  c #1C0906",
"=  c #0F110E",
"-  c #11130F",
";  c #0F1211",
":  c #151515",
">  c #191917",
",  c #141619",
"<  c #171918",
"1  c #191919",
"2  c #181817",
"3  c #250D0B",
"4  c #251212",
"5  c #232324",
"6  c #2B2B2C",
"7  c #2F2F31",
"8  c #333334",
"9  c #3C3C3C",
"0  c #6D191A",
"q  c #691719",
"w  c #71171A",
"e  c #741D1E",
"r  c #761D1A",
"t  c #631E23",
"y  c #7E1F23",
"u  c #6A2323",
"i  c #7C2B2C",
"p  c #752727",
"a  c #77302C",
"s  c #782D31",
"d  c #7B3639",
"f  c #444444",
"g  c #4C4C4C",
"h  c #515151",
"j  c #585E5E",
"k  c #565E62",
"l  c #5A5F63",
"z  c #5C6164",
"x  c #5D6469",
"c  c #6C7477",
"v  c #6D767B",
"b  c #6A7878",
"n  c #72757C",
"m  c #7F7D7E",
"M  c #767475",
"N  c #861E1D",
"B  c #8D1B1C",
"V  c #931A1C",
"C  c #82201F",
"Z  c #851E21",
"A  c #8B1E23",
"S  c #931B20",
"D  c #842424",
"F  c #8A2224",
"G  c #892F2F",
"H  c #863232",
"J  c #833639",
"K  c #93413E",
"L  c #8A3E42",
"P  c #8D474A",
"I  c #914D44",
"U  c #964E51",
"Y  c #9B5150",
"T  c #6D7580",
"R  c #817F80",
"E  c #7B8484",
"W  c #858384",
"Q  c #888687",
"!  c #8D8B8C",
"~  c #908E8F",
"^  c #918F90",
"/  c #9C8D94",
"(  c #959394",
")  c #989697",
"_  c #999798",
"`  c #9C9A9B",
"'  c #A8908E",
"]  c #A09E9F",
"[  c #AB969B",
"{  c #B49B9C",
"}  c #A48783",
"|  c #A0A29F",
" . c #A19FA0",
".. c #B99FA0",
"X. c #97A8A9",
"o. c #A5A3A4",
"O. c #A9A6A6",
"+. c #A6A5A9",
"@. c #A9A7A9",
"#. c #ACABAC",
"$. c #A8AAA7",
"%. c #B0AEAE",
"&. c #BEA4A7",
"*. c #AEB0AF",
"=. c #AFAEB0",
"-. c #B1AFB1",
";. c #B4B2B4",
":. c #B8B6B7",
">. c #B6B8B7",
",. c #B7B5B8",
"<. c #B9B7B9",
"1. c #BCBABC",
"2. c #B8BAB7",
"3. c #C8ACA7",
"4. c #CEB1AD",
"5. c #CCAFB3",
"6. c #C0BEBF",
"7. c #CEB5B1",
"8. c #D7BAB8",
"9. c #BDC0BE",
"0. c #CCC3BE",
"q. c #BFBDC0",
"w. c #C1BFC1",
"e. c #C4C3C4",
"r. c #C8C6C7",
"t. c #C7C9C7",
"y. c #C7C5C8",
"u. c #C9C7C9",
"i. c #CCCBCC",
"p. c #DCC3C4",
"a. c #DAC8C3",
"s. c #D0CECF",
"d. c #DCCBCB",
"f. c #CFCDD0",
"g. c #D1CFD1",
"h. c #D6D4D5",
"j. c #D7D5D6",
"k. c #D5D5D5",
"l. c #D4D2D3",
"z. c #D8D6D7",
"x. c #D9D5D6",
"c. c #D7D5D8",
"v. c #D9D7D8",
"b. c #D9D7D9",
"n. c #DAD8D9",
"m. c #DBD9DA",
"M. c #DADBDA",
"N. c #DCDADB",
"B. c #DDDBDC",
"V. c #DFDDDE",
"C. c #DCDBDC",
"Z. c #D8D8D7",
"A. c #E7CFCF",
"S. c #E5D2CE",
"D. c #E8D0CE",
"F. c #E0DEDF",
"G. c #EBD8D8",
"H. c #E0E0DE",
"J. c #DFDEE1",
"K. c #E1DFE0",
"L. c #E1DFE1",
"P. c #E4E2E3",
"I. c #E5E3E4",
"U. c #E7E5E6",
"Y. c #E4E3E4",
"T. c #E9E5E7",
"R. c #E7E5E8",
"E. c #E9E7E9",
"W. c #ECEBEC",
"Q. c #F0EDEF",
"!. c #F7E3E2",
"~. c #EFEDF0",
"^. c #F1EFF1",
"/. c #F3F3F3",
"(. c #F8F6F7",
"). c #F9F7F9",
"_. c #FBFAFB",
"`. c #FAF7F7",
/* pixels */
"l.i.e.i.e.e.i.k.i.i.i.e.r.i.i.i.e.e.e.k.h.k.l.i.e.k.k.l.l.g.s.h.B.g.i.e.i.e.o.r.h.g.l.g.1.6.r.e.%.#.o.o.@.@.~ ^ W m W Q W M Q m ",
"i.i.e.>.e.e.i.i.k.V.i.i.i.s.i.i.e.6.e.k.h.r.r.r.r.i.g.l.z.e.w.i.e.m.B.e.e.e.r.i.6.i.K.s.1.e.i.i.#.#.~ ` 1.1.#.#.Q Q m m W W ! ` ",
"l.i.e.1.e.e.i.i.l.m.i.i.r.i.i.i.e.e.e.k.l.i.i.i.i.i.i.l.l.i.r.s.e.l.z.e.e.w.e.i.e.s.m.i.w.e.i.r.#.O._ o.#.#.@.O.Q Q R U W W Q ( ",
"e.e.;.>.>.1.1.1.1.1.i.k.z.z.k.l.l.i.l.i.i.r.i.l.l.i.i.z.V.s.g.s.e.B.I.k.g.z.P.l.U.s.s.i.i.e.i.e.( ` ( ` ` ` >.;.( ! -.;.1.w.1.1.",
"e.e.;.;.>.1.1.1.1.1.i.z.k.k.z.l.l.i.h.i.i.i.r.l.l.i.i.z.m.g.s.l.e.B.P.k.l.z.K.l.P.s.s.r.i.e.i.e.) ` ) ` ` ] #.#.` ( ;.;.1.6.1.1.",
"1.1.:.:.#.] 1.:.1.1.i.V.v.v.z.V.v.I.z.e.e.l.g.s.l.i.i.h.k.i.i.k.z.z.k.z.l.k.B.l.F.s.;.i.#.1.e.e.#.#.%.#.( ~ ( ) ) ( 1.w.;.o.6.e.",
"w.1.>.:.#.o.1.<.1.1.i.B.k.v.k.N.h.P.k.e.i.g.g.s.i.i.i.l.h.i.i.k.k.k.k.k.l.z.B.g.B.i.;.i.;.1.e.e.#.o.#.o.) ) ` `  .` -.>.1.#.1.w.",
"l.m.6.g.<.;.:.-.1.e.e.V.l.N.l.T.i.;.i.v.h.k.l.m.N.m.N.m.N.k.B.i.e.l.g.k.m.m.N.i.v.i.1.r.#.;.e.1.#.o.` ` ) ) ^ ( o. .<.w.1.:.1.e.",
"m.F.e.h.1.%.1.-.1.e.r.V.k.m.l.E.z.;.e.l.5 5 5 5 5 5 5 5 5 5 6 1 5 g g.k.N.N.B.s.N.i.1.e.@.#.r.6.;.#.` ` _ _ ~ ( o.` e.e.1.>.w.e.",
"i.g.1.i.1.O.1.;.1.i.e.r.l.i.g.i.i.w.r.e.                          8 U.m.E.m.k.l.m.i.1.e.;.;.6.1.%.#.Q ) ] o.` ` o.o.;.>.1.;.w.i.",
"i.i.6.i.:.o.1.>.<.i.e.e.g.g.l.i.i.6.# # 2 2 2 2 2 2 2 :     2 2 2 2 # 6 E.v.l.s.m.i.1.6.>.@.e.6.;.#.Q )  .o.` ` o.o.;.:.1.>.w.i.",
"i.k.1.1.1.%.r.e.i.e.i.1.i.I.i.e.e.i.  O 2 2 1 2 2 2 2 2     2 2 2 :   5 W.h.K.i.w.r.<.e.6.#.e.1.1.>.o.;.( ) ( ) 6.w.>.>.>.1.>.1.",
"h.N.1.<.<.%.r.e.i.e.i.1.r.U.i.e.: # 2 2 2 2 2 2 2 2 2 2 2 :     2 2 2 : 2 f P.r.1.e.<.2.e.@.e.e.e.>.#.-.( ) ) _ e.1.;.#.:.1.1.1.",
"e.e.w.e.1.1.r.r.s.P.i.r.i.U.s.e.    1 2 2 2 2 2 2 2 2 2 2 :     2 2 2 2   9 1.s.1.e.K.1.6.$.;.1.o.;.1.1.o.%.( ( w.e.1.1.>.;.;.%.",
"e.e.e.e.1.6.i.e.g.P.i.e.i.W.l.t.    2 2 2 2 2 2 2 2 2 2 2 2 2 2   O 2 2 2 2 O 1 1.w.H.1.9.[ D D F d 1.1.#.#.! ( e.e.1.1.>.;.;.#.",
"l.l.e.e.e.r.i.E.g.e.e.r.<.1.;.m.    2 2 2 2 2 2 2 2 2 2 2 2 2 2   O 2 2 2 :   5 >.1.e.;.%.' V V V L -.>.;.<.:.1.1.1.-.#.1.1.1.w.",
"g.s.e.e.e.e.l./.i.1.e.k.e.e.  O 2 2 2 2 2 2 2 2 2 2 2 2 2 2 2 2     2 2 2 :   5 >.6.g...D t &.4.S P %.;.1.:.<.<.i.i.o.] 1.1.1.e.",
"i.e.e.<.e.l.i.P.h.;.e.;.<.>.    2 2 2 2 2 2 2 2 2 2 2 2 2 2 2 2   O 2 2 2 :   5 e.1.;.{ B p >.5.V P #.;.;.>.:.<.;.%.;.%.1.1.1.1.",
":.;.6.;.i.m.l./.i.#.e.#.;.;.    2 2 2 2 2 2 2 2                               1 t.&.N d [ } C L 6.6.#.;.-.%.1.w.#.#.#.#.1.6.1.1.",
"T.U.i.i.i.m.N.E.P.v.r.#.#.#.    2 2 2 2 2 2 2 2                               5 g.3.V d e.{ V K #.*.o.;.#.#.;.>.1.1.1.1.e.e.e.e.",
"F.V.i.e.v.P.P.(.B.i.e.O.@.>.    2 2 2 2 2 2     2 2 # # # 2 /.i.    + 2 Q.:.  . F P G.3.D u !.x.| O.( ` O.o.:.:.1.1.1.w.e.e.r.i.",
"E.E.i.r.g.k.B.E.P.m.e.o.#.#.    2 2 2 2 2 2     2 2 # # # 2 /.l.    + : U.>.  $ V I z.3.V u 1.r.%.#.o.#.#.#.;.;.1.1.1.1.e.e.e.s.",
"W.W.i.e.h.N.V.Q.P.N.e. .#.;.    2 2 2 2 2 2     2 2 # # # # # # 2 2 # O # 3 A a x.3.F d d.O.-.w.e.1.o.]     O g 1.1.1.1.e.1.l.m.",
"/./.h.l.g.l.v.m.N.B.w.#.@.#.    2 2 2 2 2 2     2 2 # # # # # # > 2 o O . 3 B i l.3.V J l.;.s.k.z.i.s.9.      h 1.1.6.1.i.i.i.l.",
"/./.i.r.g.s.m.U.V.W.e.#.    2 2 2 2 2 2     2 :     2 2 2 2 2 2 n l > 4 N L T.7.A U G.0.B.>.r.s.V.e.O # 2 2 2 : O g -.#.i.e.P.W.",
"/./.k.l.k.k.k.m.v.z.1.>.    2 2 2 2 2 2     2 2     2 2 2 2 2 , v x > 4 B K F.7.S Y v.i.Z.<.l.l.V.e.    2 2 2 :   g 6.1.g.g.l.z.",
"/./.k.v.z.F.z.v.g.e.e.l.    2 2 2 2 2 2   O 2 2 2 :     < :     # & Z u `.8.A q .             O O   2 2 2 :   g l.i.e.e.i.e.l.h.",
"/./.V.B.B.N.l.g.s.i.6.;.    2 2 2 2 2 2     2 2 2 2     2 :     X * B y _.p.V q                     2 2 2 :   g i.i.i.i.N.v.m.m.",
"/./.P.B.P.P.l.i.e.;.6.6.    2 2 2 2 2 2       O 2 2 2 5 c k # % B J `.p.N q $ $ # O # # # O 2 2 2 2 2 2   8 /./.l.i.P.F.P.V.U.E.",
"/./.U.U.U.U.i.i.e.e.w.1.    2 2 2 2 2 2         2 2 2 5 v k # % B H _.a.B q # O # # # # # O 2 2 2 2 2 2   8 /.W.m.l.m.V.P.P.P.P.",
"/./.E.E.U.T.m./.i.1.                    : = : =           $ Z e _.D.B 0 .   # o . o # # # O 2 2 2 2 2 2   8 _./.K.l.V.V.Y.U.P.V.",
"/./.U.T.U.U.i.i.e.e.                    : = ; =           $ V e _.A.B w     o O # + # # O O 2 2 2 2 2 2   9 I.P.P.k.L.P.P.P.P.P.",
"/./.U.V.E.E.i.V.    : : : : : : : ; : : : : = : ; - : 3 N i _.S.N w . . # O # # # # # + # O 2 2 2 2 2 :   8 g.g.).E././.I.U.P.P.",
"/./.U.P.E.E.i.l.    : ; : : : : : = : : : : : ; - ; - 3 S i _.S.B 0 # O # O # # # # # # # O 2 2 2 2 2 2   8 l.l./.E././.P.P.P.P.",
"/./.E.W.W./.O O # # o # # #         # @ @ # O 2 X./ N J `.a.A e . o                                 2 2 2 : O h /.I._._.P.K.B.v.",
"/./.E.E.E.W.    # # # # # O         # # # # # , +./ B J _.d.V r X #                                 2 2 2 :   g /.E./.(.P.P.P.K.",
"/.W.W./.E.U.    # # # # # # # #     # @ @ # . % B H `.a.B 0 . . @ o   : 1.<.;.>.e.e.1.,.>.o.i.i.e.;.      8 I.P.b.l._._.~.^.v.f.",
"/./.W.W.W.E.    # # # # # O # #     # # X # # & V G _.a.B 0 # O X O   : 1.<.;.;.q.e.1.,.1.+.i.i.1.-.      8 h.g.P.b.W.^.E.^.R.N.",
"/.~.W.E.W.W.i.m.    # # # # # # 2 2     @ #   2 `.G.B s o.E @ + @ #   : #.<.r.;.e.e.g.>.B.-.i.f.w.1.=.1.w.q.v.B.h.i./././.).E.I.",
"/./.W.W.E.E.r.i.    # # # # # # > 2     # #   : _.G.V s X.E o o # o   : #.,.1.;.q.e.r.;.i.@.r.i.1.1.-.q.u.u.l.l.I.v.E.W.W.^.E.R.",
"/./._./././.E.i.        2 2 2 2 2 2 2 2   O b x     . . # O o # X o   : =.1.<.-.1.1.q.;.i.#.h.v.e.e.e.i.#.;.;.1.1.1.l.N./._.W.R.",
"/./._./././.W.i.        2 2 2 2 2 1 > 2   O n x     # O O O o + @ O   2 #.1.<.-.<.w.e.;.i.#.l.h.e.w.e.i.#.-.;.1.1.1.l.b.^.).W.R.",
"_._._._._._.E./.    2 2     2 2 2 2 > 2 2 2     O : v j . o # # c z   2 ;.1.i.-.;.1.y.;.l.+.h.v.g.e.e.i.q.1.#.-.o.o.<.;.W.~.~.W.",
"/._._._._._.E./.    2 2     2 2 2 2 < 2 2 2     @ : v k + O # @ T l   2 ;.<.y.-.-.1.e.;.f.@.g.l.i.e.e.r.<.1.=.;.;.+.<.>.W.W.~.W.",
"W./././._.).W._.    2 2 1 2     2 2 2 2 2 2     o # @ O # # # # @ O # o O 8 e.w.e.e.>.>.e.o.i.h.l.e.i.l.y.e.e.r.+.o.#.+.1.;.e.i.",
"W./././._._.^._.    1 2 1 2     2 2 2 2 2 2     # # # # # # # o @ # # O   8 e.w.e.e.1.>.e.+.i.l.l.i.i.l.y.e.y.i.o.o.#.@.1.,.e.i.",
"E.E.W.U./.(.W./.    2 2 2 2                 # # # +     # # # # # @ @ @ # #   1 l.w.<.<.h.#.g.h.i.i.i.z.i.e.N.B.<.1.<.1.1.1.w.w.",
"U.U./.E././.W./.    1 2 1 2                 # # # #     # # O o X # X @ # O   2 g.w.,.1.l.#.l.l.g.e.i.l.i.e.b.k.<.1.1.1.w.1.q.w.",
"U.U./.^./._.W.W.    2 2     2 2 # # # # @ # # O     2 :     O # # @ # X # # < :   f i.1.g.;.l.v.i.e.i.s.l.i.f.s.i.l.e.e.r.i.i.i.",
"U.U./.W./._.W.W.    2 2     2 2 # # # # # # # O     2 2     # O @ @ # @ @ # 2 :   9 g.e.i.<.l.v.i.e.l.l.k.l.i.s.l.l.q.q.i.i.i.i.",
"U.E./.W./._.E.E.        2 2 2 2 > 2 # # # #     2 2 2 2 2 :     # @ # O > 2 2 2 2 :       2 b.h.e.e.e.i.e.e.g.l.i.i.f.g.i.r.i.i.",
"U.E./.W._._.W.E.        2 2 2 2 > 2 # # @ #     2 2 2 2 2 2     # # # # 2 2 2 : 2 :       2 m.b.e.e.e.e.e.e.l.h.i.i.s.g.i.y.i.i.",
"P.P./././._.    2 2 2 2 2 2 2 < 2 2 < < < 2                     2 2 2 2 2 2 2 : 2 2 2 2 2 :   8 f.r.e.r.i.i.s.s.i.i.e.e.l.K.l.g.",
"P.P./././._.    2 2 2 2 2 2 2 2 2 2 2 2 2 2                     2 2 2 2 2 2 2 2 2 2 2 : 2 #   8 l.i.e.e.l.i.i.s.i.i.w.6.N.I.g.g.",
"P.U./.U././.                                  1 V.z.m.e.i.#.                                  7 i.i.r.i.l.i.i.i.e.e.i.i.h.k.h.g.",
"U.U.W.U./._.                                  1 U.m.N.y.l.@.                                  6 g.i.e.r.g.i.i.i.e.e.i.i.h.b.l.l.",
"P.P././././././.W.W.W.V.P.P.K.W.E.W.U.E.W.W.W.V.P.P.H.g.b.i.m.k.I.J.U.w.f.e.1.1.e.e.e.w.h.1.e.i.i.i.i.i.i.i.i.i.y.i.e.e.r.i.r.r.",
"P.P.W.W./._./././.W.E.V.P.V.V.E.W.E.W.W.W.~.~.m.V.H.P.f.l.l.I.m.U.P.R.e.J.e.@.1.e.e.i.y.R.g.>.w.i.i.i.i.e.6.h.l.l.h.e.e.i.l.e.e.",
"P.P././././././.W.W.W.P.P.U.P.E.E.W.W.E.E.W.W.P.P.V.P.b.v.m.J.E.E.U.U.i.f.e.e.e.w.e.e.e.r.i.i.i.i.r.e.r.i.g.i.r.e.e.e.e.e.e.e.e.",
"H.P.W.W./._./././.E.E.P.P.E.U.U.E.W.W.E.W.~.W.U.U.V.V.k.k.V.K.E.W.I.I.g.b.y.w.e.1.e.i.e.e.i.s.i.r.y.6.e.k.l.e.e.1.1.r.i.e.e.e.6.",
"U.U././././.^./.W.W.E.U.P.U.P.E.U.E.E.E.E.W.W.U.U.P.P.k.k.k.v.E.E.E.U.b.h.h.g.i.w.1.y.w.e.6.6.w.i.e.e.y.i.i.i.i.e.e.e.1.1.1.1.1.",
"E.E./././.(././.W.~.E.U.U.U.P.Y.U.E.U.E.U.W.W.W.W.P.P.l.l.z.v.W.W.U.P.v.h.h.g.r.>.q.k.e.e.w.1.1.K.N.1.w.i.i.i.g.e.r.;.>.>.>.1.e.",
"E.W././.(././././.W.E.P.P.Y.P.P.U.U.U.E.E.E.E.E.E.P.P.m.z.z.v.W.W.E.I.N.k.v.v.i.<.e.e.1.6.1.1.q.y.e.e.r.i.i.s.s.e.e.1.e.>.>.;.;.",
"/./././._./././.~.W.E.V.P.U.P.H.U.P.Y.E.E.W.W././.C.V.k.m.k.h.W.^.I.P.N.k.v.v.r.#.1.r.w.e.w.;.,.e.e.i.r.1.1.v.Z.y.y.6.1.;.,.#.#."
};
