/* XPM */
static char *c8338a36c4f346e5df64e70d64c37c141hrxVyAezsXmBIFc[] = {
/* columns rows colors chars-per-pixel */
"64 64 81 1 ",
"  c #767475",
". c #7E7C7D",
"X c #807E7F",
"o c #817F80",
"O c #858384",
"+ c #888687",
"@ c #8E8C8D",
"# c #918F8F",
"$ c #918F90",
"% c #959393",
"& c #989697",
"* c #999799",
"= c #9D9A9C",
"- c #A09E9F",
"; c #A19FA1",
": c #A5A3A4",
"> c #A8A6A7",
", c #A7A6A8",
"< c #A9A7A9",
"1 c #ACAAAC",
"2 c #B0AEAF",
"3 c #AFADB0",
"4 c #B1AFB1",
"5 c #B5B3B4",
"6 c #B8B6B7",
"7 c #B7B5B8",
"8 c #B9B6B9",
"9 c #BCBABC",
"0 c #C0BEBF",
"q c #BFBDC0",
"w c #C1BFC1",
"e c #C5C3C4",
"r c #C8C6C7",
"t c #C7C5C8",
"y c #C9C6C9",
"u c #CACACA",
"i c #CCCACB",
"p c #CDCBCC",
"a c gray81",
"s c #D0CDCE",
"d c #CFCDD0",
"f c #D1CFD0",
"g c #D3D1D2",
"h c #D2D2D2",
"j c #D4D2D3",
"k c #D5D3D4",
"l c gray83",
"z c #D5D5D5",
"x c #D9D7D7",
"c c #D7D5D8",
"v c #DAD7D8",
"b c #DBD9DA",
"n c gray86",
"m c #DCDADA",
"M c #DCDADB",
"N c #DDDBDC",
"B c #DFDDDE",
"V c #E0DEDE",
"C c #DFDDE0",
"Z c #E1DFE0",
"A c #E2E0E0",
"S c #E4E1E2",
"D c #E4E2E3",
"F c #E5E3E3",
"G c #E4E3E4",
"H c #E5E3E4",
"J c #E7E4E5",
"K c #E8E6E7",
"L c #E7E5E8",
"P c #E9E7E9",
"I c #EBE8E9",
"U c #ECEBEB",
"Y c #EFEDED",
"T c #F0EEEF",
"R c #EFEDF0",
"E c #F1EFF1",
"W c #F3F3F3",
"Q c #F8F6F7",
"! c #F7F5F8",
"~ c #F9F6F9",
"^ c #FBF9FA",
/* pixels */
"haeueeazaaaeypuieeezjzhuezzhjfskBhaepe>yjshs90re21::<>#$oXOOO +.",
"aae5eeaazBuhisupr0ezjrurysfkxewpevmeeeuueaVs9ear11#&9911++..OO$=",
"hae9eeuahbaauiuueeekjpaiiashjsysehxee0erefma0eue1>&:111<++oXOO+%",
"ee55599999uzxxzjjahuiryhfuuvBfsswmHzsxShJsspaeie%=%*-=55%@459099",
"ee55589999uxzzxhjskipurhhuuxbfshemAzjxVhSsaiieue&=&==-11*%259099",
"99661=9599iBvbxNxSxeekhshaajzsazzxzzhzBhVs5i18ee1121%$&&&%9w5:0e",
"09562:9699umxxzNjSzeufsssaajzaizzzzzhxmhVa5i59ee1:1>&&**:=55919e",
"jb0h95849eeNjbjKs5izzzhbmmmbbbmsehhbbbmfvu9y15e91:*=&&%#:-60969e",
"xBek92929erVkbjIz5emxbzbbbmmmmmaejhbbmBhbi9e>2r921&*&&@#;=ee950e",
"pa9i9>959uerhahuu9usa90zzNNNNAHhabKbKbzhbi9r560941+&;:**>:55950u",
"is9i6>958uerfahui9uaa69kjNBBNAJhabIbIbzhbp9r560951O%;:**::56950u",
"uk9895reiea9aSpeepree090weeZAHKryrejYkAa9u9e09e995>1%$%%00655959",
"km9862reiea6rJaweauey000eerAAJIrrewzEbAa9e5ee9e009>1@@$%e0415999",
"ee0e99rrsSaeaKsereeee59w055NzJIereeh9k9a9rVe9946:195>1%%we995551",
"eeee99reaSaeaKhereeee55ew11vkJUerees9h9f9eBr9929:<9511@@ee995551",
"hheeersPseeu885be6r1155eereeeeu0e09eeeue69e621>15525555569519990",
"hfeeeehEi60he06IV:5>>9999uueeuiee99e9rsw59s995:155125555ri:;990e",
"pwe6ejaSj5e1956Se>e2152eefae0er9999euee0e959=1115524556651529999",
"6594pvhTa1e>556QI=52155eeVB99up9999eaueee919&:5299>1119911119999",
"KJsuibNKVxe1111bsua11:>>>><5559papieueeuhaha0eje11>111559999eeer",
"VBpebAZ~mae><5>TS9011@%::9959eeppreyaeeuaszs58Ph=:%&>:659900eeri",
"IUauszmKZNe:11<Ases2<<<--:;5155abireeeeiisfaee9e21:>21559999eeea",
"YYpekbBTVbe=>11WP9y55<>@%**1:55xHreeeerieifare1999=-11906689e9hb",
"WWjhhhvbmbe>1>1hsaa5555:::::=::piippuuiaisfssashjhhhjjsj0999aaas",
"WWarsabJBIe1<@>QU<9ue55==*=@+11fzreu0pha9pmhmveuVBBNmmis5512ieZU",
"WWzjjzzbxx05>::hsaa5555::::===:piiyppasaiajszhhhBbbmmBmN0e00safx",
"WWzxxBzzfw0h5&:Bmup>>11,>11**>1ipurahspaafbsxjjjABbNWWSShfeeiehz",
"WWBNNmhsaaw5111aaaf5554>,>,:::>eeeeeeeeyfsaszjjkmbbmSSSSiaiabxbv",
"WWANSAaie409615hayy6511::,,::32rz1:9p99ezfufhhzzjjJSUUQWhkVVABJP",
"WWJHJJape099655sapa24231,,<1<1389558998ehfashhzhxbNbUIYUmbmBAASH",
"WWIIJJxWe595555apfa<1:<31<<;=79ep1>8585eaaffphBbjkZVvx~QBBNmJLAZ",
"WWJKKJuuee91111apaa1111:>>:544579858897epppakkzhzzczHHHHHAAAHSSZ",
"WWJBIKuB9->=&9#Vx9e66=;==%%95euea1;3;559hyhukhmveyBvffff~^!!HJAA",
"WWJAPKys91<&&1#zfea11:1==*=99qe9e815>459peptkkchypkphfhh~~!WHHAZ",
"WWIYUEaQ9&<%$r*piVj55**::=*75yp88898e4;85weepfNcppapkkvmWE^^AZNv",
"WWIIIUrmw11%%1%pajs11><=--=99qe9889585199eeekhkkppuykhhkWW!~AHAZ",
"WYYWIJaT6@9:9seapksye55111154ee995558538qw8e59pu9978ffHZvv~^RWvf",
"WWYYUIeA9&91eueiphaw056111195qw998555549qe9e9eyy9988dfkhHZUEPELm",
"WYIIIUyb4+9jex0euhae9451311999999995>5e99epemhyy99<499vNhfWWW^PH",
"WWYIUUei9-9ues0uisa9955111199999999515999wteayyy9858uphfHZPPUEPP",
"WW~WWWIuJYVmxfhTJJB6999221199ifytee94577899qifhhweee1<5599hNW^IL",
"WW~WWWIiJTNNkfjUAHB989952<199yaytye9178589wqpfhheewe115599hvE^UL",
"~^~^~~UWKJBxzyhhbNNre:>995595kNyupf849y718ewffhhauee991>:=85URYU",
"~~~~~^IWJKmxjuhjmBNr015995598yvyuya948e718ewafkhpyee89124;97URYU",
"YWWWW~T^PbAmbzbhzVNuiee#%yw8599yyupyyeeeee5eepuahsppeeee>;1<q5ep",
"TWWWW~W^PbANbbbhkVbipee%%ew8599yyypeyeeeee8eedpsfsaaeeet>:1<98ep",
"KJWIWWUWIASBbNbfzmbASee@@85ea55yyeeeeeeefe8ekhfffhpaiuNN9989q9ww",
"KJWUWQYWUASZmmbhkmvANee%%559p75yyeeeeeeefe8ekhfffdaaiuvz5999w9ww",
"JJWWWQYYUIJKSmVNbNNSJNZ>:;>9897uyfheee9epwpefkkkpuaahhpaafyeyuii",
"JJWYW~YWUIJIHbVmmBBJHbb-=**8555ithztye9epefyahkkpuhhhzpifjwwuiii",
"JJWYW~YIIJJHAAAjbABAAHS8511weepfcpyeew9eww9evkvztuueeufhiidfuyuu",
"JIWYW^UIIHJJHHAjvABAAHS9611weephciyere9eww9eNkvzeteeuuhhpiffuyuy",
"AAWWW^YYIBBbbbBAJIJIIUUNbhheeeeCCCSe9wy9e94wupNaaieyssssuieekZhh",
"AAWWW^UTJbAbBBBBSTUHPIIAZeyeeetBCZPe5wu9yq3qyuCkfseehhasiawwNHff",
"AJWJWQUWIJABBBBJJYJIIIUBBbbyfeeNNBZew959i9ewupuuairusaapeeuukzkh",
"JJYJW~UWIJJBbBBJJYIIIYYSJmbfhw9BNZZew959p9ewyyupapeyssiieeipzzhk",
"AAWWWWWWYYUBAAAIIYIYUYYBABZvvNNJHHHpae9eeeeekieppuiuuuapryeetuyy",
"AAYYW~WWWYIBZBVIUIYYYWYBBZAzhZHJJJJfNw<eweuyHB5waisae0kjhkeeuhee",
"AAWWWWWWYYIAAJJIIUYYIYYAABAvvbCPPLJpdteteeeeyippuyeyasureeereere",
"AATYW~WWTIIAAISKIYUIITYJJBBzkBZPULHfvtwe9eueyifpyeqezhee99yueeee",
"JJWWQWWWYYIHAHAIJIKIIYYHJAHzxxvPPPHchkhpwwewe00wdyeyppaaeew99999",
"IIWWWQWWYYPHHHHJJIJJJYYYYAAhjxvURLAbkkfy5wvwew99BN9waassee55559e",
"IUWWQWWWYYIAAHAHJJJIIUUKIAAzxvvUUPHbzvvp8ee9wq99eeeriufsee905555",
"WWWWQWWTTYIBZJAAHAAJPYUWWBBzbzkUEHAmcvvi19yeew48eeir99vvee905511"
};
