/* XPM */
static char *sol[] = {
/* columns rows colors chars-per-pixel */
"64 36 202 2 ",
"   c #060000",
".  c #0A0200",
"X  c #0C0A01",
"o  c #130700",
"O  c #130C01",
"+  c #180E04",
"@  c #151205",
"#  c #1C1303",
"$  c #16130B",
"%  c #1C150B",
"&  c #1C190A",
"*  c #120C10",
"=  c #1C1C1B",
"-  c #1A1814",
";  c #22170D",
":  c #251B0C",
">  c #2C1C0D",
",  c #241405",
"<  c #231C13",
"1  c #2B1F14",
"2  c #261D18",
"3  c #1E211A",
"4  c #25200D",
"5  c #2B2216",
"6  c #23211B",
"7  c #2D251B",
"8  c #2B2718",
"9  c #332A1C",
"0  c #322516",
"q  c #38321C",
"w  c gray13",
"e  c #2F2C23",
"r  c #2C2C2A",
"t  c #332C23",
"y  c #392D21",
"u  c #382F28",
"i  c #323025",
"p  c #3C3324",
"a  c #3E3822",
"s  c #3C332C",
"d  c #353229",
"f  c #3C3935",
"g  c #353534",
"h  c #41301C",
"j  c #443B2C",
"k  c #4A3C2D",
"l  c #443E33",
"z  c #483E34",
"x  c #3F413C",
"c  c #48422E",
"v  c #51412A",
"b  c #4B4334",
"n  c #46463F",
"m  c #4E483B",
"M  c #4E4636",
"N  c #504936",
"B  c #50473E",
"V  c #534B3D",
"C  c #5C4C3D",
"Z  c #57503D",
"A  c #434243",
"S  c #4C4942",
"D  c #4E4E4B",
"F  c #4A4541",
"G  c #534C41",
"H  c #5C4F42",
"J  c #5C5342",
"K  c #56544C",
"L  c #5B544C",
"P  c #585449",
"I  c #565751",
"U  c #575850",
"Y  c #5E5952",
"T  c #5D5D5A",
"R  c #665C4E",
"E  c #635C54",
"W  c #685F56",
"Q  c #6B634C",
"!  c #696156",
"~  c #656359",
"^  c #6C645C",
"/  c #6F6F6E",
"(  c #686962",
")  c #736C63",
"_  c #706F6D",
"`  c #767264",
"'  c #7A7166",
"]  c #71716F",
"[  c #7B756C",
"{  c #7F7C74",
"}  c #7B7B7A",
"|  c #747474",
" . c #81796D",
".. c #837364",
"X. c #837B72",
"o. c #827F7A",
"O. c #828076",
"+. c #888075",
"@. c #82817C",
"#. c #8E897D",
"$. c #8E857E",
"%. c #92897A",
"&. c #848482",
"*. c #8F8784",
"=. c #8B8A86",
"-. c #8C8C8B",
";. c #948C83",
":. c #928F8A",
">. c #94928C",
",. c #9B9489",
"<. c #9B9386",
"1. c #9D9793",
"2. c #9B9B97",
"3. c #9C9C9C",
"4. c #929290",
"5. c #A19891",
"6. c #A19F9A",
"7. c #A8A196",
"8. c #A5A09A",
"9. c #ABA49B",
"0. c #ADA99E",
"q. c #A5A4A2",
"w. c #ABA6A3",
"e. c #ADABA4",
"r. c #ADADAB",
"t. c #A8A5AC",
"y. c #B3AEA5",
"u. c #B3AEA8",
"i. c #BBB3A5",
"p. c #B4B1AC",
"a. c #BEB5AD",
"s. c #B3B1A5",
"d. c #B5B5B3",
"f. c #B8B5B1",
"g. c #B9B9B3",
"h. c #BDBDBB",
"j. c #C1B9AD",
"k. c #C2B9B7",
"l. c #C8BFB6",
"z. c #C0BFBD",
"x. c #C9BFBE",
"c. c #BEC0BD",
"v. c #D1C7AE",
"b. c #C5C3BC",
"n. c #CBC3BA",
"m. c #C7C9BE",
"M. c #C9C3B7",
"N. c #D2CABF",
"B. c #BBBFC2",
"V. c #C3C3C3",
"C. c #CBC5C2",
"Z. c #CDCBC6",
"A. c #CDCDCC",
"S. c #D2CDC4",
"D. c #D9CFC6",
"F. c #D4CEC9",
"G. c #D3D1C7",
"H. c #D5D2CC",
"J. c #DED9CD",
"K. c #D8D5CC",
"L. c #CECFD1",
"P. c #D4CFD6",
"I. c #D3D3D3",
"U. c #DAD5D4",
"Y. c #DAD9D5",
"T. c #DCDCDC",
"R. c #E3DBD1",
"E. c #E9DFD5",
"W. c #E2DFDB",
"Q. c #E4E2DD",
"!. c #EAE3DC",
"~. c #EEE8DE",
"^. c #EBE1D7",
"/. c #E1DFE0",
"(. c #DBE3EE",
"). c #E4E4E4",
"_. c #E9E6E3",
"`. c #E6E8E5",
"'. c #ECEAE6",
"]. c #E4E6E9",
"[. c #E6E9EA",
"{. c #ECECEC",
"}. c #EAE5EB",
"|. c #F3EDE3",
" X c #F0EEEB",
".X c #EEF1ED",
"XX c #F6F2E7",
"oX c #F3F1EE",
"OX c #FAF4ED",
"+X c #F9F9EF",
"@X c #EDEEF1",
"#X c #F1EEF1",
"$X c #EEF1F2",
"%X c #EEF5FD",
"&X c #F4F4F4",
"*X c #F9F5F2",
"=X c #F6F8F6",
"-X c #FCFAF6",
";X c #F4F6F9",
":X c #FBF7FB",
">X c #F6F9FB",
",X c #FCFCFB",
/* pixels */
"=X&X&X&X&X#X&X&X,X*X:X,X&X#X#X*X=X:X=X{.oX=X:XoX&X+XoXOXOX*X*X*X&X&X*X&X&X&X&X&X%X$X,X>X$X$X[.>X=X=X=X=X*X;X*X&X&X&X&X&X&X&X&X&X",
"=X=X=X=X=X=X=X:X&X#X@X@X#X&X:X,X.X{.&X>X=X&X.X&X&XoX&X&X*X;X&X X=X=X*X;X=X&X&X#X,X.X[.[.>X,X=X$X=X;X&X&X;X;X&X*X&X&X&X&X&X&X&X#X",
"&X&X#X&X*X&X&X=X;X,X,X:X,X>X#X#X,X:X:X;X&X{.=X:X;X;X&X&X;X;X;X&X*X;X;X;X=X*X&X#X[.&X>X,X,X{..X&X*X;X=X&X&X;X&X;X&X&X&X&X&X&X&X&X",
"#X#X&X&X;X&X&X&X].;X;X#X>X:X;X:XoX,X:X{.{.:X:X&X$X@X@X{.@X@X&X;X#X&X&X&X&X&X=X=X-X&XQ..X=X.X,X,X&X&X&X=X=X;X*X&X&X&X&X&X&X&X&X&X",
"=X;X=X:X:X:X=X=X,X,X,XoX@X.X=X,X#X{.{.&X:X>X-X=X&X;X,X,X>X=X=X=X;X;X&X#X#X&X=X=X-X-X-X-X*XoXoX{.&X;X;X*X;X*X*X&X&X&X&X&X&X&X&X&X",
"*X;X=X=X&X&X&X{.*XoX-X,XoX{.&X X,X=X{.,X,X{.{.,X{. X#X&X*X*X&XOX,X:X=X*X=X&X*X;XoX).{._.+X,X*XoX&X&X*X;X=X=X;X&X&X&X&X&X&X&X&X&X",
"&X&X#X X{.[._.).G.g.Y.-XOXOX-XXXI./. X;X&X).T.I.OXW.F.F.W.OX:X,X X#X&X=X:X=X;X&X,XS.p.@.8.oX X*X*X&X;X;X=X=X&X&X&X&X&X&X&X&X&X&X",
"&X&X&X&X{.[.).T. .b J ' R !  .^ A 6.`.&X{.[.V.@.$.W j u L X.5.6.T.).{.;X=X=X*X#X'.+X,X>.f K E 6.&X;X;X*X&X*X&X&X#X&X&X&X&X&X#X&X",
"=X&X&X=X=X*X;X*X;XW.Q.{.d.D - = : ~ R G X.N.-X|.v.Q a 4 & @ r g.I.@X,X;X#X=X=X&X;X[.[.,Xe.% ; j U ~ s.|..X'..X&X=X&X&X&X&X&X&X;X",
";X=X*X=X=X;X*X;X,X&X[.,X,X).-.A L P %   . < S E Z # : i Y @.2.$XV.F.T.).{.,X=X#X@X,X`.I.C.i. .  8 #.0.e.p.c.Q.oX#X[. X=X,X,X=X{.",
"*X;X;X*X&X;X&X;X}.:X,X{.[.,X,X$XQ.Y.g.p.r.-.#.=.) [ V.oX,X,X@X@X&X{.).[.#X=X&X&X[.>X/.Y.oX,XS.B 9 ^ ;.0.+X-X_.!.,X,X,X X[.{.&X,X",
";X*X*X;X*X;X=X*X&X&X&X&X&X&X;X,X{.,X=X,X,X,X,X=X,X=X,X,X@X,X:X;X,X,X:X:X=X{.#X;X>X[./.,X,X'.XX~.j.V   p ! ,._.^.).[.&X&X;X&X&X#X",
"*X&X;X*X*X;X;X;X,X X#X,X,X:X`.).{.,X,X`.{.,X,X,X>X`.%X>X#X:X:X@X).).{.*X;XoX#X=X,X$X.X=X.X`.-X,XOX-Xd % S + ) l.,X,X:X=X,X,X,X{.",
";X=X;X;X;X*X;X*X&X&X=X X{.=X,X,XoX&X>X&X=X$X/.$X=X$X,X=X).W.#X,X,X,X;XoX&X-X=X&X=X=X*X&X.X&X>X`.-X|.w.F O % u u T.&X,X-X{.}.;X,X",
"=X*X;X*X=X;X&X=X,X:X;X&X=X:X&X/.*X'.{..X-X,XoX,X-X,X-X*X_.C.k.x.I.[.,X;X{.&X&X&X$X`.=X,X$X$X$X$X,X[.,Xb.q.F.*.) / r.].:X#X{.oX=X",
"=X;X*X;X&X=X&X=X&X&X=X>X=X{.=X,X,X-X-XoX+X'.p.8.>.@.E [ 6.;.H 0 w } I.;X{.[._.{.,X$X=X%X$X>X>X%X(.,X}.=X XU.,X,XT././.T.{.,X,X X",
";X;X=X*X&X&X&X#X&X&XoXoX:X,X&X/.m.Y.0.V J Q q v j , , 0 C ..H > & & ` m 9.+X~.G.G.+X-XoX-X-X X;X=X>X&X&X;X{./.{.:X>X,X&X X&X*X&X",
"&X*X&X=X;X&X=X=X[.oX*X=X.XY.r.=.x K n & 9 c 0 p j y ; o 1 k 9 y   X D   4 m ) +.O.~ s.*X_.'.,X#X).{.&X&X*X{.).&X&X=XoX&X;X;X&XoX",
"&X&X&X&X&X&X&X;X,X-XoX{..X.X).Y.=X>X.XY.K.J.M.M.u.G P 7.x.i.X.L } O.>.P S d t - n X D 6.@.-.d.q.T.{.&X&X=X{.}.=X;X&X&X;X,X=X&X{.",
"*X&X&X&X&X&X&X#X.XoX&X&X-X:X-X=X$X$X$X$X*X,X,X,X,X XV.t.W.,X_.}.-X+XC.} e.'.,XM.Q.T.W.Q.).'.#X#X).&X;X=X,X&X#X=X&X X&X;X=X&X&X&X",
"&X&X&X&X&X*X*X&XoX&X=X-X&XoX&X=X,X>X>X,X&X{.&X{.}.[.,X$XL.&X>XI.m.1.8.{.,X X*X,X'.,X,X'.,X,X#X,X&X,X=X&X,X=X&X=X#X X&X=X&X#X;X,X",
"&X=X&X=X;X;X=X=X-X&X&X.X{.{..X-X[.@X$X,X>X&X,X.X,X;X[.@X,X;XP.;X).{.&X=X=X{.&X[._..X*XoX;X#X&X:X=X:X&X{.:X,X&X=X,X-X;X:X=X#X&X,X",
"&X&X&X#X#X#X X@X,X:X=X,X,X,X=XoX{.,X X:X=X[.=X$X&X#X,X:X].,X,X;X>X&X&X&X&X;X>X,X,XoX&X,X&X#X:X:X X,X=X X=X:X&X&X:X[.}.&X=X#X X&X",
"=X&X&X{.)./.T.T.g.4._ ] -.p.Z.Y. X,X_._._.W.&X&X,X#X#X#X,X>X{.>X&X@X>X;X;X,X{.$XoX-X&X&X,X,X#X}.{.,X,X;X=X=X#X#XA.h.B.Y.#X=X=X&X",
"&X;X#X).Y.L.V.h.:.1.>.E : j %.i.7.<.i.J.XX,X:X:X&X#X;X,X=X{. X,X&X=X{.'.,X,XoX`.[.].r.0.M.OX~._.F.i.^.^.R.<.G z q.A.&X,X;X:X=X{.",
"&X=X;X&X X&X&X{.,X_.#X|.-XXXi.V 5 p ) j.n.y.C.:X,X X/._.,X,X&X}._.&X,X-X{.oX&X-XQ.Q.Q.G.7.G B ;. .z M ) G + ; ..).&X,X&X'.#X:X,X",
"&X;X;X*X=X,X,X,X,X XOXp.7.+. .j + j k Z j 2 ^ e.T.{.=X&X&X#X=X,X,X_.`.,X{.Y.H.Z.Q.Z.;.j M j a 5 V M o o 7 ;.k.x.).&X>X=XoX&X-X;X",
" X&X&X X#X&X;X#X X{.:XR.G.a.,.k , k q k j 2 ( 1.T.[.@X{. X,X;X{.:X).&X,X&X$XT.r.c b N c N , @ 5 p & + *.A.R./. XI.).{.;X:X,X&X[.",
"#X=X;X;X-X,X=X*X,X*X X,X-X-X1.8 . ; # k p   & < 2 | H.;X$X{.;X,XoX&X-X{.[.-Xd.r . j c q # O   O 5 ` s.G.Y.A.}.I.{.&X&X.X&X=X=X&X",
" X;X-X;X-X;X=X#X#X,X).h.S c 8 < o 1 ; @ @ t U f g T 2.L.=X,X&XW.=X_.{.oX{.L.} = $ 8 O & X $ 6 T m.Q.-X'.T.h.#X,X,X:X=X&X&X&X&X&X",
"&X;X*X&X X X X[.V.T.T.d.A 6 $ @ *   * t U g.,X=X,X,X&XT.Z.B.I.).-X=X,X.Xq.D g D p.,XY.U 3 ( B.>X,X$X*X=X=X$X`.{.&X&X=X:X:X=X&X&X",
"&X;X;X*X;X,X,X,X,X;X:X,X-X'.K.y.t.A ] T.+X.X.X&X;X@X;X:X=X}.[.&X.X=X_.A.A.T.'.,X=X=X`.c.{.%X%X(.$X[.$X=X.X,X{.&X=X&X&X&XoX&X=X:X",
"=X=X*X;X;X=X*X;X&X&X&X&X&X&X&X&XA.Y.).).).).}.{.&X&X&X&X&X&X&X&X=X&X&X&X&X&X&X&X&X).T.[.,X,X&X&X&X#X&X&X&X&X&X&X&X&X&X&X&X&X&X&X",
"&X*X;X*X*X*X;X;X&X&X;X&X;X&X&X#X#X;X,X,X=X=X:X,X&X&X&X&X#X&X&X&X&X&X&X&X&X&X&X&X&X}.).&X=X=X&X;X&X&X&X&X&X#X&X&X&X&X&X#X&X&X&X&X",
";X;X;X;X=X&X=X&X&X&X;X&X&X&X&X&X&X&X=X&X=X&X{.{.&X&X&X&X&X&X&X&X&X&X&X&X&X&X&X&X&X&X&X:X;X X&X,X&X&X&X&X&X&X&X&X&X&X&X&X&XoX&X&X",
";X*X&X=X*X;X*X;X#X&X*X&X&X=X&X&X&X&X&X&X=X=X=X&X#X&X&X&X&X&X&X&X&X&X&X&X&X&X#X&X=X=X=X=X;X X&X=X&X&X&X&X&X&X&X&X&X&X&X&X&X&X&X&X"
};
