/* XPM */
static char *_1fa1ff37c6d4083f9e32aceb6e3e7c7HD9MUfge7TLwgIqc[] = {
/* columns rows colors chars-per-pixel */
"64 64 178 2 ",
"   c #030304",
".  c #080606",
"X  c #0B0907",
"o  c #060609",
"O  c #080709",
"+  c #07080B",
"@  c #0B0A0B",
"#  c #110E0C",
"$  c #14120D",
"%  c #18160F",
"&  c #1B180F",
"*  c #0D0B10",
"=  c #0E0D11",
"-  c #0F0F10",
";  c #100F12",
":  c #0F1315",
">  c #121112",
",  c #141313",
"<  c #161412",
"1  c #121215",
"2  c #121216",
"3  c #191713",
"4  c #1C1A14",
"5  c #151519",
"6  c #161519",
"7  c #181719",
"8  c #17181B",
"9  c #19181A",
"0  c #1B1B1B",
"q  c #211E16",
"w  c #211F19",
"e  c #232116",
"r  c #292517",
"t  c #25221B",
"y  c #29261C",
"u  c #2D291E",
"i  c #332D1F",
"p  c #1E1E21",
"a  c #1D1D23",
"s  c #211F21",
"d  c #1D2026",
"f  c #242324",
"g  c #292720",
"h  c #2D2B23",
"j  c #242429",
"k  c #262529",
"l  c #25282D",
"z  c #2B2A2B",
"x  c #322D22",
"c  c #322F2B",
"v  c #353125",
"b  c #3A3425",
"n  c #3E3827",
"m  c #35332C",
"M  c #3A352A",
"N  c #3E392A",
"B  c #2C2C32",
"V  c #302F34",
"C  c #2C3134",
"Z  c #2E373A",
"A  c #343334",
"S  c #3C3A33",
"D  c #343439",
"F  c #393A3C",
"G  c #423D2C",
"H  c #423E33",
"J  c #413E38",
"K  c #46412E",
"L  c #4A432D",
"P  c #464132",
"I  c #4A4533",
"U  c #4E4935",
"Y  c #44423D",
"T  c #4E4A3B",
"R  c #524B35",
"E  c #534D3A",
"W  c #57513A",
"Q  c #5B543C",
"!  c #5F583F",
"~  c #60583E",
"^  c #363B43",
"/  c #3A3C42",
"(  c #353E48",
")  c #3D4248",
"_  c #3D4554",
"`  c #444444",
"'  c #4D4B44",
"]  c #46454C",
"[  c #42494E",
"{  c #4D4F4D",
"}  c #504E47",
"|  c #524F4A",
" . c #5B5541",
".. c #5F5942",
"X. c #56524C",
"o. c #58554A",
"O. c #4B4C52",
"+. c #484D58",
"@. c #504F51",
"#. c #465157",
"$. c #4D5259",
"%. c #545551",
"&. c #53565B",
"*. c #645C44",
"=. c #615C4A",
"-. c #5F605F",
";. c #696147",
":. c #66604B",
">. c #6C644B",
",. c #72694D",
"<. c #666152",
"1. c #6A6552",
"2. c #64635E",
"3. c #6E6C5B",
"4. c #736C53",
"5. c #756E5A",
"6. c #7A7257",
"7. c #7C7359",
"8. c #4C5B63",
"9. c #5D636A",
"0. c #646764",
"q. c #686761",
"w. c #716F64",
"e. c #736F69",
"r. c #78766F",
"t. c #6B6A72",
"y. c #667577",
"u. c #727776",
"i. c #777D7E",
"p. c #81775A",
"a. c #82795E",
"s. c #857D62",
"d. c #887F63",
"f. c #817D6C",
"g. c #8B8265",
"h. c #8E8469",
"j. c #91876C",
"k. c #93896E",
"l. c #888476",
"z. c #958C71",
"x. c #988F74",
"c. c #9B9176",
"v. c #9E957B",
"b. c #A0977D",
"n. c #7A7F85",
"m. c #748085",
"M. c #868784",
"N. c #8A8982",
"B. c #918F80",
"V. c #9C9582",
"C. c #9F9882",
"Z. c #9E9B91",
"A. c #A49C83",
"S. c #A09A88",
"D. c #A8A085",
"F. c #ABA38B",
"G. c #AFA790",
"H. c #AFA999",
"J. c #B3AC95",
"K. c #B6AE99",
"L. c #B6B097",
"P. c #B7B09B",
"I. c #B9B29D",
"U. c #BDB7A4",
"Y. c #C1BAA6",
"T. c #C3BEAD",
"R. c #C7C2AF",
"E. c #CBC5B3",
"W. c #CFC9B7",
"Q. c #C9C6B8",
"!. c #CFCAB9",
"~. c #D5D0BE",
"^. c #D3D0C2",
"/. c #DCD8C8",
"(. c #E0DECF",
"). c #E4E1D3",
"_. c #F1EFE3",
"`. c #F7F4EA",
/* pixels */
"B O       6   O               6 O   +     @ + o         @ 6       > + @ + o     2                 o         o *   @ o o +   o o ",
"  O   * O O *   @         * > z +           + =             o *   > p   .   +             O   * + 2     o     k         @   * 2 ",
"            o             ;     O   * o 6 + 2     p @ 2 + @     o   p .   6           > + 0 + o o o       O   0 *   @   @ > +   ",
"o             +   o                 2 j ^     *   *   @   ] @ o   @ O     O   o . @ + = > @ * >   @     + + i.O @ 2 o           ",
"        @     O   V o     @   @ *             n.  @ o   o O   .   , @ 0 @ >                   + @         @   O o O + +.    p   ",
"        O     A * o o o   + o   * + @ +                 O o o + . . + + @ + + @     @     *   @ @ @         +       @     o   p ",
"o   *   2         6       6 O     6   @       * + o     o O + k 0 @ + @ @ @ @ X @ .     > z . +   @ @ . *   2     6 o O * O + @ ",
"o V     o       * A +         o @   @   @ @ 6     > k + O @ @ @ # # @ @ $ @ @ @ < + @ , + >   @     + * +     + + @     O   0 + ",
"          0 ;   . h m     @ 2   O     @     2 .   ; > O @ + + @ # w < 3 < # @ < $ @ X X + 3 . + f +   +   2   * i.            @ ",
"        8 Z 6   4 M.%.X ;   O   o   o   @       o   . > + + @ @ 0 $ $ 3 3 3 3 $ $ % $ @ . @ 4 O @ .   @ 2 o *   B         @ + X ",
"      O         < 2.h       o o #.      o O         O @ X X @ $ % g 4 4 q.w 3 4 ` { % $ < @ @ c   @ > 6 o   2 6 6     o + @ 0 2 ",
"*   * @ *       X 0 >   o o + o   + o @       + o   @ @ $ $ # $ h J 4 4 t y t 4 4 4 $ , $ 4 ` X @ @   @     @ @ 2 2   + @ *     ",
"*   o   * O 8.            F o   + +   o 0   o   +   @ X # g $ 3 0 4 4 y J t w 4 4 3 4 4 Y 3 # g 6 . + @   O.* o   o o f * 2 @   ",
"            B       @ O 2 + 2         : l + o + 0 # 3 # $ % % 4 e w y M y t q q e 4 t t 3 3 % 0 # s +     6 @   @ @     @ *     ",
"    2     2   o     2   +             . @   + 6   # $ < 3 4 w t h h x x u h h h e t w 4 3 % h 0 # X .     @ o O p + 2 o   o     ",
"+   * @               o + O   o     @ + + + X @ @ % 3 g g t x y u x v v x v H ' r l.m 0 4 4 % $ 3 # . 6           O o   @       ",
"  o   @ @                 6 O         + @ + @ $ $ m 4 y y t h x x v v b I b x u x u w t 3 3 $ $ @.3 X   . ; @ 6 o o     +   * O.",
"  @ +   o                   @       O.7 . @ $ < 3 y t y h u x b N G G N b H b M u h c 3 4 0 3 4 g 0 0.# $ >     o 0   *   +     ",
"    C o + o   *   o o   O O +   + 0   . ] @ # 3 q t r.i b M G P G G I G G N b x x u y 4 t % e t 3 # @ , m.0 O   o o     * o o   ",
"  @     * o               0 @ # > X @ X @ 0 4 4 q x b G n G K L  .I I <.E G G M M y t 4 4 $ < % $ < C X #       + 0       6 6 + ",
"p 6   o 2                 @ z 0 M., + ` @ $ 4 4 t x b G I I 1. .E R U U U U G b M x h e 4 < < # f @ @   , O >   o   6 +   2 o B ",
"  ; @ ) o   o           O   >   . > # @ # % 4 t u i G L W 5.*.*.! ..W W W <.K T b J y t h 4 < $ 0 X 3 + 3 0     + o O     @     ",
"o   0 @ O     *   > o o   o     @ # @ 0 % 3 y r b n ..R *.;.>.,.>.;.*.1.! W I N x u y e w ' 3 $ , @ . 6 7 > 2 k D   o o   o *   ",
"@   D   @       @ y.6 o     * ; @ @ # 4 4 4 r i I I W *.,.A.C.7.7.,.7.l.! I I n b v h S m 3 $ # @ @ + @ @ >   +       o @   O o ",
"      + @ * o     l +       6   + + $ t 3 S u b K R >.v.p.a.d.g.a.7.,.>.! R =.<.G v u e 4 w # @ X @ + 0 +     &.    @         o ",
"      o               + @ o > + . @ 6 4 4 y v G I  .>.6.g.z.c.x.k.d.a.>. .R I I b u y e w < $ X O , @ 2 @   @ 0 , A 6 -.  o   O ",
"    o @     o   2   +   9..   + $ @ $ 4 } u N K W ;.6.h.x.A.A.A.v.z.a.5.*.Q I G b x y h 4 $ # @ @         2 o   t u.A 6       D ",
"* B @   _               .     @ X $ < q S <.G U ! 4.d.v.F.I.I.J.F.c.g.6.*.W =.G b ' u 4 4 h $ X @           @ >   X # > @ @     ",
"  o O       @       o @ +   . @ $ w 4 y v n L ! ;.a.k.L.Y.E.W.R.K.A.k.7.:. .I H b u g h 3 3 $ 0 @ O         p   f   *   o @   2 ",
"    O     @     +     + ; O O X # % y r b G R *.,.g.A.U.^.).).~.Y.F.k.7.>.Q I N v r x t 3 $ # @ 6 +   o o       *         2   + ",
"          0     +     D . # X z f 4 t M I U E *.7.k.F.E.).`._./.T.F.k.7.*. .I G ' v e 4 % % % 4 , @   +                 @ @   @ ",
"+   O     o   +     + n.@ @ # @ 3 q M v G I W ;.p.v.J.E.).`._./.Y.A.g.7. .I I N i v t t q & w $ @ X   o   O o   2 o @ o         ",
"2     O   @ @ ^     . X $ X $ t 3 h N b G E ..>.a.c.G.E./.).(.!.K.A.s.>. .U G b v u e t x b x t $ @ $.6 O [   @       B   o p   ",
"o o &.    o     + * @ X # $ $ < w u h P G R ! >.a.z.F.I.R.!.E.Y.F.j.6.4.R U K n b x r q N f.l.n % #         @ *   @   @   @ 2   ",
"  @ O     +   o   * @ f $ # 4 4 y u x b G R  .>.d.k.b.F.K.P.J.D.c.a.>.! U U G W :.n r e G S.^. .3 X   +     o     f     O   o   ",
"p o @ o O ;       7 @ . X # 4 3 X.r v b T B.Q ;.7.d.z.v.A.A.A.x.h.7.:.E P G L V.^.=.r y T  .f.P $ . @   + +       8 @         @ ",
"+ o     + * @ O.    @ @ # g t 4 ' h T b G E W *.4.d.g.j.z.z.k.a.5.;.E I G n L H.Q. .e & 4 u u S X + 2 2 +                     * ",
"  @ O     @   . O   + $ $ 3 4 4 q t x b P I E ! >.6.a.a.d.s.7.4.>...E I N b b Q =.x q 4 3 $ $ @   +     2 o     ^ =     6   =   ",
"@ o @   @ 2 f @ o O # @ 3 $ Y q w e u x b I U W *.>.,.4.4.4.>.*.! R I N b x u r u e $ $ % @ , .       o / @         O       o o ",
"o + 6           . . @ @ $ | 3 q q.t y x b I I E ..*.,.7.7.*...Q E U <.b x u t 4 t $ A < $ k   O + *       o     *   o           ",
"V o   > k z O   . 0 @ @ # m % 4 4 g y u b I K U W ~ V.T.*.Q E E I G b x u e.y t $ < % $ + . +   *       @ F     > >           O ",
"  @   2 %.. .   @ O @ @ @ $ 3 3 4 w h x b b G I  .R ;.5.W U E G N v v y x t < $ $ 3 < . +   O   o @ k     j @   +   @         + ",
"6 * . 6 # @ +   # . @ $ @ @ 3 h 0 t y x x b G I W I R U U K G M v x u y q w 3 < , + @ * @   + @ > @ o     @             o 6     ",
"[ 6 +   0 X O @ # @ @ + , # t 3 4 q t u v M N E L P K G G M b v h h t g t % # # , . + @ 6 o z o         F     O ;     @         ",
".   + p >   @ +     # @ X X < 3 4 w y u v M N Z.K n N N M v x h t t g t 4 $ @ # @   @     @             O.  *               o @ ",
"      @ O   . @ @   # @ $ $ % 3 4 w t u x v b n b b v v v M u y y 4 4 y $ $ X # # # +     0       o o               l *         ",
"@ >   +   . < % 3 4 X # $ $ $ 3 4 t t h v x x M x x v x u v y w q y % < $ 0 $ X 0 t 9.+ O o   o @     @             @ O         ",
"X ' 4 O @ . 4 J X.4 X $ X % 4 4 t } e y r u u x x m u y h w q 4 t 3 $ $ $ w $ X @ @ $ 6       o ;             O   o   O         ",
"A 0 { X     < 2.N.h 3 w 4 3 Y 4 t 4 w y h x y x u y y x t q 3 m 4 $ @ @ 6 @ ; + @       j       @         o   2         k       ",
".     .     X 4 u t # 3 q i w.r e w 4 q h t y u y y t w t 3 3 $ 4 < X + + @ +     @ o       o o     2   @ @         O o         ",
"  @ O     .   # $ % $ N v N N b e q 4 h e e h g g q w w g 4 < $ $ , 0 . . @   +     + @ 2     @     2 6       0 @             O ",
"*     @       . X X # v n 3.R P i q 4 e q t e g h w 4 < $ 0 $ $ 0 X @ . s O + @     o t.  O     *   o     ;   *   * O o     o   ",
"    + @   O   + . X % o.n e.G n r q 4 w 4 4 q 4 3 t 3 $ 3 @ @ X @ + @     + o   p     + k           O 6           @       o o   ",
"o o . O     + + 0 + @ 4 v b b P v g q % 4 3 w 3 3 3 $ $ @ X @ 0 @ +     @ @   p   2 6 o 2 @     *   ;   * @     @   ; 8 2 (     ",
"    . z         2 X @ . 0 h 4 3 % e t 3 t 4 % $ $ $ # 0 @ # w       O     * o           o         +           @     O +     @   ",
"@ +   +       >   .   . . # % $ % $ # f % $ $ $ @ $ #   . D X @ , + @ +           o f     + +         p * @ * o       @   o     ",
"+   @ 2   + 0   0   @ . 0 # % F $ t $ X h 3 @ @ @ $ @ . . @ @ ` # + 2     * o + 8     o O d     O           0         O @ @ ;   ",
"  @ $.f O o   . . . 2 . f # $ ) g @ @ $ # 3 3 > X . f @ O > , @ f @ + @   + *   @ @ o     o   k   +         B         2         ",
"  + 0     @ O p > O @ . # 3 # # $ 3 @ $ $ # # X $ . 2   # w > , 6 0   *   +   p   +           o @ *   8         o   2 *     * + ",
"2   o + >     @ 0   +   . @ f t . w @ 0 , X + . / 0 f 7 @   @ 6 o   @ o   /       o 0 * 6       + +       o                   * ",
"@ o   o           @ 0 @   @ $ X . + . t @ .   X 2 ; @       2     O o O @ @ * o   2 0 o 2   o   p o           ; O o @           ",
"o     *   @ o     0 , @   + 7 @ O   @   # . @ . @       2 *   >   $.+       o       O o o 2           *     @     @ o o @ 0     ",
"  @   *     +     k 0 +   2 . @ O O > @ . . @ + ; .   + 6 + @ 2     o p @   O   o   +             @   * 6                 2     ",
"+   o   D   * + 0   z       @ . + + k 6 @ + + @ @ . @ @ @ @   + o   +   * p   +             + A     0       @         o o o o   "
};
