/* XPM */
static char *a0f35d59b53e405b964a23db62eb9c4bDRAa6aNUcw9AS7Uu[] = {
/* columns rows colors chars-per-pixel */
"64 64 22 1 ",
"  c black",
". c #060606",
"X c #0B0B0B",
"o c gray5",
"O c #131313",
"+ c #161616",
"@ c #181818",
"# c gray12",
"$ c gray13",
"% c #272727",
"& c gray17",
"* c #2F2F2F",
"= c gray19",
"- c gray21",
"; c gray22",
": c #3E3E3E",
"> c #434343",
", c #555555",
"< c gray39",
"1 c #6F6F6F",
"2 c #AEAEAE",
"3 c #C3C3C3",
/* pixels */
"                         .         .     .                      ",
"                                                                ",
"               .                          X                 %   ",
"             O         @                                   .   $",
"        X                     .         O   O                   ",
"                  .  X.                                        O",
"       @                                                        ",
"   X                      X      X          X     o         X   ",
"                                               X            .   ",
"                         .                         +O       3o  ",
"  o  .       .                                        O     X   ",
"    .    O                                              .       ",
"                               X                                ",
"                O                                               ",
"                          O          +                  o       ",
"          .     X                                               ",
"          O                                                     ",
"                          .                      .       X      ",
"                                        2X                      ",
"..o                                                             ",
"         o            o                    +              .     ",
"                       .              o        @                ",
"    #                  .   O       o   .                     @ o",
" *       #                                   .+    X            ",
" O                                           X       %=         ",
" .                                                      o       ",
"   ..             #        .:o .    .  .                        ",
"  .        .                           X     .              %   ",
"  .          o                       +                  .       ",
"               O                                                ",
"  O                                                             ",
"                            X .                                 ",
"                                                    -           ",
"                                                            .   ",
"                       X                     .                  ",
"             +                      .    X              .       ",
"                   X                                    .       ",
"     <  o        >o         X             ..          &         ",
"                 X       +                                      ",
"                       X.    @                   .         $    ",
"                            .           .                       ",
"                               X                                ",
"                            X  .  .             .               ",
"   X  .    O        *  O                                  o     ",
"   .                                                            ",
",                                            X                 .",
".                      X                           .            ",
"                                        X  .                    ",
"               +                                                ",
"   X       #       X   .                           .            ",
"       .                 o;         o                 X  O      ",
"          X                 &    +         o                    ",
"          o          X                           O           O  ",
"                        X                      o                ",
"            X      .       X                                    ",
"           .<                                                   ",
"    X                                             X.    ..      ",
"                     O                                          ",
"      O    O                                                    ",
"              o                               X   o             ",
"                                           1#   @      o        ",
"                              o           .;O                   ",
"                      .           .             X  o            ",
"     .                                                 .        "
};
