/* XPM */
static char *dddd1cd360f94dc68f62a9f8f5841972sA3xfVm4mJGCubgh[] = {
/* columns rows colors chars-per-pixel */
"64 64 108 2 ",
"   c #03021B",
".  c #150D1F",
"X  c #020221",
"o  c #03032E",
"O  c #150C25",
"+  c #160C2A",
"@  c #180D2D",
"#  c #170C34",
"$  c #190E34",
"%  c #190D3A",
"&  c #1A1036",
"*  c #1E133E",
"=  c #21163F",
"-  c #120F4C",
";  c #1F1342",
":  c #231645",
">  c #251847",
",  c #24174A",
"<  c #271A4D",
"1  c #291C4D",
"2  c #271952",
"3  c #291B54",
"4  c #2B1D5C",
"5  c #2C1D62",
"6  c #2E1E6B",
"7  c #301F72",
"8  c #301F78",
"9  c #2F206A",
"0  c #312267",
"q  c #32226E",
"w  c #332272",
"e  c #392877",
"r  c #36247B",
"t  c #39277F",
"y  c #3A297D",
"u  c #5A5868",
"i  c #372784",
"p  c #392780",
"a  c #3C2B84",
"s  c #362F8E",
"d  c #3E2C8B",
"f  c #3E2E93",
"g  c #3F2E98",
"h  c #383196",
"j  c #402D87",
"k  c #412E8D",
"l  c #412E93",
"z  c #422E9B",
"x  c #403096",
"c  c #43319C",
"v  c #49359E",
"b  c #4532A3",
"n  c #4A36A6",
"m  c #4634AA",
"M  c #4B36AB",
"N  c #4C38AD",
"B  c #4433B0",
"V  c #4B37B3",
"C  c #4D39B4",
"Z  c #4D3ABB",
"A  c #503AB3",
"S  c #4E3CC2",
"D  c #4D3DCB",
"F  c #513EC4",
"G  c #523FCC",
"H  c #4E3FD2",
"J  c #513FD3",
"K  c #5341C5",
"L  c #5241CC",
"P  c #4F43D2",
"I  c #4F41DE",
"U  c #5242D2",
"Y  c #5441D1",
"T  c #5142D4",
"R  c #5142D5",
"E  c #5242D4",
"W  c #5441D4",
"Q  c #5544D4",
"!  c #5243DB",
"~  c #5343DB",
"^  c #5441D8",
"/  c #5445DE",
"(  c #4F41E0",
")  c #5343E1",
"_  c #5443E0",
"`  c #5144E0",
"'  c #5245E4",
"]  c #5947E6",
"[  c #5648E7",
"{  c #5747E9",
"}  c #5747EF",
"|  c #5847EA",
" . c #5649EA",
".. c #5648EF",
"X. c #5849E9",
"o. c #5848EF",
"O. c #5747F2",
"+. c #5847F3",
"@. c #5648F0",
"#. c #5748F4",
"$. c #5748F5",
"%. c #5648F6",
"&. c #5848F3",
"*. c #5849F4",
"=. c #5747F8",
"-. c #5847F8",
";. c #5648F8",
":. c #5949F9",
/* pixels */
"u     o o.O.} / U W W @.%.*.} } } } } } } { X. .Q C C C C C C N N N C K L L L K L K X.} } } } } } } ..[ @.%.%.%.%.%.*.- X       ",
"s o.=.+.U L U E U E E @.%.@.( U U U U U U S Z Z N z l l z l l l l l l z z z z k z g L U U U U U U U E E { %.%.%.%.%.%. .-.&.@.%.",
"f ;.@.-.K ^ E U U E E ..%.@.I U U U U U L Z N C n l l l l l l l l l l l l l z j l z L U U U U U U U U U { %.%.%.%.%.%.%.%.%.%.%.",
"s @.%.@.U Y E U L E E @.%.@.I L U J U E U S C C n z l l l l l l l l l l l l z l z z Y E E E U U U U U U { %.@.@.@.@.@.@.@.@.@.*.",
"s @.%.@.E U E F S S S ~ ` ~ D Z Z Z m b m c c b k w w w w w w w w w w w w w w 0 w q b b b b m m m Z Z Z W ) _ _ _ _ _ _ _ _ ' *.",
"s @.%.@.E U E S C C C L U L Z C C N l l l l l l y 4 4 4 4 4 4 4 4 4 4 4 4 4 5 4 5 4 k l l l l k z A C C F U Y Y Y Y Y Y Y Y ~ @.",
"s @.%.@.E U E Z C C Z L U L Z C C C l l l l l z p 4 4 4 4 4 4 4 4 4 4 4 4 4 5 4 5 5 l l l l z l z A C C F U U U U U U U U U ~ *.",
"h %.%.@.E U E S C C Z L L L C N V M d d d d d d e 3 3 3 3 3 3 3 3 3 3 3 3 3 3 1 3 3 a d d d d d d M N N F G L L L L L L L L E o.",
"@.=.@.@.E U E S C C C C C C z l z d 5 5 5 5 4 4 , + O O O O O O O O O O O O + O + + 4 5 5 5 4 4 5 k l l n C C C C C C C C C Z W ",
" .@.%.@.E U E S C C C C C C z l l j 4 4 4 4 4 5 < + + + + + + + + + + + + + + O + + 4 4 4 4 4 4 5 k l l n C C C C C C C C C Z Y ",
";.@.%.@.E U E S C C C C C C z l l j 4 4 4 4 4 4 , + O O O O O O O O O O O O + O + + 4 4 4 4 4 4 5 k z l n C C C C C C C C C Z U ",
"%.%.%.&.Z Z Z Z C C C z z z 8 6 6 4 $ $ $ $ $ $ @ O O O O O O O O O O O O O O O O O $ $ $ $ @ $ $ 6 6 5 d z z c C C C F L L P  .",
"%.%.%.o.C C C C C C N z l k 6 4 4 1 O O O O O O O O O O O O O O O O O O O O O O O O O O O O . O O 4 4 4 y z l z C C C F U Y ~ *.",
"%.%.%.&.Z C Z C C C C z z k 6 5 5 3 + + + + O O O O O O O O O O O O O O O O O O O O O + + + O + + 5 4 4 y z z z C C C L U Y ~ %.",
"}  . .[ C C Z N N N n d a a 4 1 3 , O O O O O O O O O O O O O O O O O O O O O O O O O O O O O + O 3 3 1 e k j k N N M L U Y E  .",
") L U L Z C C c l z d 5 5 4 # O O O O O O O O O O O O O O O O O O O O O O O O O O O O O O O O O O O O O > 4 5 5 l k l F W W U L ",
") L U L C C C c l z d 5 4 4 # O O O O O O O O O O O O O O O O O O O O O O O O O O O O O O O O O O O O O > 4 5 5 z k f Z U L U U ",
") L E U C C C b k l a 4 4 4 # O O O O O O O O O O O O O O O O O O O O O O O O O O O O O O O O O O O O O , 4 4 5 l k z F U L L U ",
") L U L z x x r 5 6 4 $ $ $ O O O O O O O O O O O O O O O O O O O O O O O O O O O O O O O O O O O O O O + $ $ & 6 5 5 l b c m L ",
") L W L l l z w 4 4 3 + O + O O O O O O O O O O O O O O O O O O O O O O O O O O O O O O O O O O O O O O O O + @ 4 4 4 a z l z W ",
") L Y Y l l z w 4 4 3 + O + O O O O O O O O O O O O O O O O O O O O O O O O O O O O O O O O O O O O O O O O + @ 4 4 4 a l l x E ",
"/ L Y Y l l z w 4 4 3 + O + O O O O O O O O O O O O O O O O O O O O O O O O O O O O O O O O O O O O O O O O + @ 4 4 4 a l l z F ",
"E L U Y l l z w 4 4 3 + O + O O O O O O O O O O O O O O O O O O O O O O O O O O O O O O O O O O O O O O O O + @ 4 4 4 a z l k Z ",
"E L U L g l l w 4 5 3 + O O O O O O O O O O O O O O O O O O O O O O O O O O O O O O O O O O O O O O O O O O O @ 4 5 4 a z z g C ",
"U L W K z l l w 4 5 3 + O O O O O O O O O O O O O O O O O O O O O O O O O O O O O O O O O O O O O O O O O O + $ 4 4 3 a l l g C ",
"V g z l 5 5 5 ; + + + O O O O O O O O O O O O O O O O O O O O O O O O O O O O O O O O O O O O O O O O O O O O O + + + 3 5 5 6 z ",
"m k l j 4 4 4 * O + O O O O O O O O O O O O O O O O O O O O O O O O O O O O O O O O O O O O O O O O O O O O O O O O O < 4 4 5 l ",
"B l l j 4 4 4 * O + O O O O O O O O O O O O O O O O O O O O O O O O O O O O O O O O O O O O O O O O O O O O O O O O O < 4 4 4 z ",
"m k l j 4 4 4 * O + O O O O O O O O O O O O O O O O O O O O O O O O O O O O O O O O O O O O O O O O O O O O O O O O O < 4 4 4 z ",
"b k z j 4 4 4 * O + O O O O O O O O O O O O O O O O O O O O O O O O O O O O O O O O O O O O O O O O O O O O O O O O O < 4 4 4 z ",
"b k z j 4 4 4 * O + O O O O O O O O O O O O O O O O O O O O O O O O O O O O O O O O O O O O O O O O O O O O O O O O O < 4 4 4 z ",
"b k z j 4 4 4 * O + O O O O O O O O O O O O O O O O O O O O O O O O O O O O O O O O O O O O O O O O O O O O O O O O O < 4 4 4 z ",
"b l z j 4 4 4 * O + O O O O O O O O O O O O O O O O O O O O O O O O O O O O O O O O O O O O O O O O O O O O O O O O O < 4 4 4 z ",
"b k z j 4 4 4 * O + O O O O O O O O O O O O O O O O O O O O O O O O O O O O O O O O O O O O O O O O O O O O O O O O O < 4 4 4 z ",
"b k z j 4 4 4 * O + O O O O O O O O O O O O O O O O O O O O O O O O O O O O O O O O O O O O O O O O O O O O O O O O O < 4 4 4 z ",
"b k z j 4 4 4 * O + O O O O O O O O O O O O O O O O O O O O O O O O O O O O O O O O O O O O O O O O O O O O O O O O O < 4 4 4 z ",
"b k z j 4 4 4 * O + O O O O O O O O O O O O O O O O O O O O O O O O O O O O O O O O O O O O O O O O O O O O O O O O O < 4 4 4 z ",
"b k z j 4 4 4 * O + O O O O O O O O O O O O O O O O O O O O O O O O O O O O O O O O O O O O O O O O O O O O O O O O O < 4 4 4 z ",
"b k z j 4 4 4 * O + O O O O O O O O O O O O O O O O O O O O O O O O O O O O O O O O O O O O O O O O O O O O O O O O O < 4 4 4 z ",
"N k l j 4 4 4 * O + O O O O O O O O O O O O O O O O O O O O O O O O O O O O O O O O O O O O O O O O O O O O O O O O O < 4 4 4 z ",
"V l z k 5 4 4 * O + O O O O O O O O O O O O O O O O O O O O O O O O O O O O O O O O O O O O O O O O O O O O + O O O O 2 5 4 5 z ",
"N k l j 4 4 4 & . O O O O O O O O O O O O O O O O O O O O O O O O O O O O O O O O O O O O O O O O O O O O O O O O O O , 4 4 3 k ",
"D C Z C t p t 4 : , = O O O O O O O O O O O O O O O O O O O O O O O O O O O O O O O O O O O O O O O O O O O + + : : : w t t i Z ",
") L U Y l l z w 4 4 3 + O + O O O O O O O O O O O O O O O O O O O O O O O O O O O O O O O O O O O O O O O O + @ 4 4 4 a z l x U ",
") L U Y l l z w 4 4 3 + O + O O O O O O O O O O O O O O O O O O O O O O O O O O O O O O O O O O O O O O O O + @ 4 4 4 a z l x U ",
") L U L l l z w 4 4 3 + O + O O O O O O O O O O O O O O O O O O O O O O O O O O O O O O O O O O O O O O O O + @ 4 4 4 a z l x U ",
") L U Y l l z w 4 4 3 + O + O O O O O O O O O O O O O O O O O O O O O O O O O O O O O O O O O O O O O O O O + @ 4 4 4 a z l x U ",
") L E L z z z w 4 4 3 + O + O O O O O O O O O O O O O O O O O O O O O O O O O O O O O O O O O O O O + O O O + @ 5 4 4 a z l x E ",
") L E L z l l w 4 4 3 O O O . O O O O O O O O O O O O O O O O O O O O O O O O O O O O O O O O O O O + O + O O + 4 3 4 a l l c E ",
") L E L n n n l y p e 2 < < $ O O O O O O O O O O O O O O O O O O O O O O O O O O O O O O O O O O O O O = , 2 3 a p y v n n n ~ ",
") L E L C C C b z z d 5 4 4 $ O O O O O O O O O O O O O O O O O O O O O O O O O O O O O O O O O O O O O < 5 4 5 z l z N C C C ^ ",
") L U L C C C c l l d 4 4 4 # O O O O O O O O O O O O O O O O O O O O O O O O O O O O O O O O O O O O O > 4 3 5 l l f M C C C W ",
") L E L C C C b z z l 9 5 5 % $ $ $ O O O O O O O O O O O O O O O O O O O O O O O O O O O O O O O $ $ @ 2 6 5 7 z z z N C C C ) ",
") L U L C C C C C C N z l l 6 4 4 3 O O O O O O O O O O O O O O O O O O O O O O O O O O O O + O + 3 5 4 p z k z C C C C C C Z %.",
") L U L C C C C C C N z l l 6 4 4 4 O O O O O O O O O O O O O O O O O O O O O O O O O O O O O O + 4 4 4 y z l z C C C C C C Z %.",
") U Y L Z C C C C Z N z l l 6 3 4 3 O O O O O + + O O O O O O O O O O O O O O + O O O O O O . O O 4 4 4 p l l z C C C C C C S :.",
"D Z Z Z F L G Z C C C n n M d a d a 2 3 3 3 3 3 : O O O O O O O O O O O O O O O O + < 3 3 3 1 3 3 d a a c N M V C C C F L L L ;.",
"S N C C L U Y S C C C C C C z k l j 4 4 4 4 4 4 , + O O O O O O O O O O O O O O O + 3 4 4 4 3 4 4 l z z N Z C C C C C L U U U ;.",
"S C C C L U L S C C C C C C z k l j 4 4 4 4 4 4 , O O O O O O O O O O O O O O O O + 4 4 4 4 4 4 4 z l k n N C C C C C L E U E ;.",
"H D S D ~ ~ ~ D Z Z Z Z Z Z B b b z 6 6 6 6 6 6 4 $ $ $ $ $ $ $ $ $ $ $ $ $ % @ % $ 6 6 6 6 5 6 6 b b b V Z Z Z C C C L E Y E *.",
"%.*.%.O.%.%.@./ U W U U U U U U U F g z z z l z p 4 4 4 4 4 4 4 4 4 4 4 4 4 5 4 5 5 l z z z k z z L U U U U Y L C C C L E Y E *.",
"%.%.%.@.%.@.@.` U U L U U U U U U K f l l l l l p 4 4 4 4 4 4 4 4 4 4 4 4 4 5 4 5 4 l l l l j z g U L U U U E L C C C L E Y E *.",
"%.@.@.@.@.%.%.' E E E E E E E U U K f l l l l z p 4 4 4 4 4 4 4 4 4 4 4 4 4 4 4 5 4 l l l l k l g U U E U U U L C C C L E W ~ *.",
"h [ =.%.%.%.%.O.}  .} O.O.O.O.} O.] G G G G F F C k d d d d d d d d d d d d d d f d G G G G F F J } ..} ~ U Y Y L L K _ { | ..%."
};
