/* XPM */
static char *wall[] = {
/* columns rows colors chars-per-pixel */
"64 64 237 2 ",
"   c #4A5E2B",
".  c #586A37",
"X  c #587036",
"o  c #647839",
"O  c #60762E",
"+  c #5A5E4C",
"@  c #555D52",
"#  c #5C6947",
"$  c #5D6555",
"%  c #5D7440",
"&  c #687848",
"*  c #626958",
"=  c #6E7C55",
"-  c #697250",
";  c #6D7769",
":  c #6E7662",
">  c #757A68",
",  c #787A71",
"<  c #666E63",
"1  c #807D78",
"2  c #6E8439",
"3  c #6D8342",
"4  c #738B4A",
"5  c #7B8C4D",
"6  c #738545",
"7  c #768C55",
"8  c #7B8C55",
"9  c #75845B",
"0  c #7C8D5C",
"q  c #788456",
"w  c #7C9155",
"e  c #7B915C",
"r  c #78914F",
"t  c #7A8464",
"y  c #7D8C63",
"u  c #78846B",
"i  c #7F9660",
"p  c #7C8673",
"a  c #828D5A",
"s  c #829554",
"d  c #82945C",
"f  c #859B5C",
"g  c #8D9C5C",
"h  c #869B54",
"j  c #8DA25D",
"k  c #828E64",
"l  c #848D6C",
"z  c #82866D",
"x  c #849463",
"c  c #869C63",
"v  c #8B9C64",
"b  c #86936B",
"n  c #8C9C6A",
"m  c #89976B",
"M  c #858B74",
"N  c #848B7C",
"B  c #8A8E7B",
"V  c #858A74",
"C  c #8A9472",
"Z  c #8C9C72",
"A  c #86937B",
"S  c #8C927C",
"D  c #8C9B7D",
"F  c #839275",
"G  c #919E75",
"H  c #91957E",
"J  c #939D7D",
"K  c #8DA163",
"L  c #8DA26C",
"P  c #94A963",
"I  c #93A46C",
"U  c #95AB6B",
"Y  c #97A869",
"T  c #8FA278",
"R  c #94A374",
"E  c #98A576",
"W  c #9AAB74",
"Q  c #95A37B",
"!  c #9AA47B",
"~  c #9CAC7B",
"^  c #95AA73",
"/  c #9DB275",
"(  c #9EB17C",
")  c #9DB267",
"_  c #A2B47B",
"`  c #ABBB7C",
"'  c #A5B977",
"]  c #A7B96F",
"[  c #8A8C81",
"{  c #8B9482",
"}  c #8D9788",
"|  c #929782",
" . c #949C84",
".. c #9B9E8C",
"X. c #93998A",
"o. c #979994",
"O. c #95A383",
"+. c #9AA583",
"@. c #9DAB83",
"#. c #9BA38C",
"$. c #9EAB8B",
"%. c #96A48B",
"&. c #9FB086",
"*. c #98A395",
"=. c #A1AE84",
"-. c #A3AD8B",
";. c #A0A68C",
":. c #A4B484",
">. c #A6BA82",
",. c #A4B38B",
"<. c #AAB68D",
"1. c #AABA8B",
"2. c #AABA85",
"3. c #A4AB93",
"4. c #A3A59C",
"5. c #A5AC9C",
"6. c #A9AD9A",
"7. c #A5A995",
"8. c #A5B291",
"9. c #ABB492",
"0. c #ACBA93",
"q. c #ACB49C",
"w. c #ACBA9B",
"e. c #B3BF96",
"r. c #B2BB9C",
"t. c #B0B29A",
"y. c #B0BC8C",
"u. c #ABA9A5",
"i. c #A8A8A6",
"p. c #ADB4A1",
"a. c #ABB5A5",
"s. c #B4BBA4",
"d. c #B5BCAB",
"f. c #BABDAB",
"g. c #B3B7A9",
"h. c #B6B3B0",
"j. c #BDBEB9",
"k. c #BAB8B7",
"l. c #B1AEA7",
"z. c #C1BEB9",
"x. c #ABC288",
"c. c #B3C387",
"v. c #AFC390",
"b. c #B2C293",
"n. c #B5C39C",
"m. c #BAC899",
"M. c #B6C3A3",
"N. c #B9C3A3",
"B. c #BDCAA6",
"V. c #BCC2AC",
"C. c #BCC9AB",
"Z. c #B7C4AA",
"A. c #BCC3B1",
"S. c #BDC8B5",
"D. c #C1D79A",
"F. c #C1C5AD",
"G. c #C2CCAC",
"H. c #C0CAA5",
"J. c #C4D3AD",
"K. c #C5D3A7",
"L. c #C2C7B3",
"P. c #C4CBB3",
"I. c #C2C5BC",
"U. c #C4CBBD",
"Y. c #C9CDB9",
"T. c #CAD3B4",
"R. c #CADAB4",
"E. c #CCD4BD",
"W. c #C9D6B6",
"Q. c #D2DFB7",
"!. c #D2DCBD",
"~. c #D0D5BE",
"^. c #CEE5AF",
"/. c #D3E1BC",
"(. c #E2F7BC",
"). c #BEBCC1",
"_. c #CACEC3",
"`. c #C5C6C4",
"'. c #D1CDCA",
"]. c #CCD2C2",
"[. c #C9D3C7",
"{. c #D2D5C5",
"}. c #D4DCC6",
"|. c #D3D3CD",
" X c #D5DBCC",
".X c #DADECD",
"XX c #D8DDC7",
"oX c #D6DAD1",
"OX c #DCDCD5",
"+X c #DBDCD8",
"@X c #D7D4D1",
"#X c #CDCAD1",
"$X c #E3DFDC",
"%X c #DCE3CD",
"&X c #DAE6C6",
"*X c #DCE2D3",
"=X c #DDE3DA",
"-X c #E2EBCD",
";X c #E1F0C9",
":X c #E1E5D6",
">X c #E2EBD4",
",X c #E3E6D9",
"<X c #E5EADC",
"1X c #E9EDDE",
"2X c #E9EFD5",
"3X c #E9F2D4",
"4X c #EAF3DC",
"5X c #E6F2D6",
"6X c #F4FFDD",
"7X c #DFE3E4",
"8X c #E4E5E4",
"9X c #E8E6E4",
"0X c #E6EBE4",
"qX c #EAECE4",
"wX c #E6EAEA",
"eX c #EAEBEA",
"rX c #E6E5E9",
"tX c #F0EEEB",
"yX c #EDF2E4",
"uX c #EEF2EC",
"iX c #EEF8EA",
"pX c #F1F6E4",
"aX c #F3FBE3",
"sX c #F2F3ED",
"dX c #F4F9EC",
"fX c #F9FEED",
"gX c #EEEEF1",
"hX c #F1EEF1",
"jX c #EEF2F1",
"kX c #F5F5F5",
"lX c #F8F5F4",
"zX c #F6F9F4",
"xX c #FAFBF5",
"cX c #F6F5F9",
"vX c #F8F7FB",
"bX c #F6F9FA",
"nX c #FCFCFB",
/* pixels */
"kXkXkXkXkXkXlXbXlXlXkXbXkXcXzXkXlXlXlXlXhXvXvXvXvXcXhXvXkXcXbXwXbXjXbXbXzXjXgXbXcXcXcXcXcXcXvXlXlXcXlXkXzXkXcXbXkXlXkXlXcXcXlXkX",
"kXkXbXcXkXkXbXbXlXcXlXcXlXkXcXlXlXlXlXlXvXhXvXhXrXvXvXgXnXnXsXnXnXjXzXyXuXbXjXcXcXcXcXhXcXcXvXlXlXlXlXcXcXlXlXkXbXkXbXkXkXzXkXcX",
"kXkXlXbXkXkXkXbXkXkXlXkXbXkXkXbXlXlXlXlXvXvXhXcXgXcXvXkXeXsXdXtX1XyXdXiXyXxXjXzXkXcXcXcXcXcXhXlXkXzXkXcXcXkXlXkXkXcXzXlXkXlXbXlX",
"kXkXlXkXcXkXlXlXbXkXcXzXlXkXlXkXlXhXlXlXhXvXvXcXnX9XsXnX9X,X,XE.s.P.;X-X&X&X%XxXhXcXvXkXcXhXlXhXlXcXkXlXkXzXcXcXlXkXkXcXkXbXkXkX",
"bXlXcXkXlXkXkXkXcXlXbXlXkXbXlXkXlXlXcXcXkXkXkXkXbXxXpXpXxX{.s.E.! G <.y.1.1.H.4XdXdXlXbXlXdXdXsXkXkXcXlXzXcXcXzXzXlXkXbXlXkXkXcX",
"bXkXkXkXcXbXkXkXzXkXkXkXkXcXbXkXcXhXcXlXkXkXkXdXzXdXfXaX%X9.-.r.:.a a g L E e.3XaXdXlXbXlXkXsXsXlXbXkXkXkXkXlXkXcXcXkXlXbXkXlXbX",
"bXlXkXkXbXlXkXkXcXkXcXkXkXkXlXkXcXlXlXlXkXkXdXkXdXpXfXpXw.J -.~ _ a 6 h Y _ y.Q.4XyXpXkXzXkXkXdXkXlXkXzXcXkXlXcXkXlXkXkXlXkXkXkX",
"nXlXkXkXlXbXkXkXcXlXzXcXlXbXlXkXcXhXcXkXkXkXkXzX1XfXpX~.n.<.~ 1.& O a g Y / ( e.3XyXsXkXzXzXzXzXkXbXkXlXbXlXkXzXzXcXcXzXcXcXzXlX",
"kXbXcXkXbXlXkXzXzXkXkXbXkXkXzXcXkXcXkXkXcXnXlXpXdXaX!.-.R m k d o Y s s 5 g x J 2XpXkXnXwXbXzXjXlXkXlXkXlXbXkXlXkXlXkXkXkXkXlXkX",
"kXkXlXzXkXkXcXcXlXcXlXcXlXcXkXlXcXcXkXkXzXuX8X Xd.Y.r.! m q & x g ' g s a s ` K.4X1X0XnXjXcXjXkXkXnXeXnXbXeXnXkXkXkXkXkXkXkXkXcX",
"lXcXlXcXkXlXkXlXkXkXlXkXbXkXcXkXcXcXcXkXkXeX XS.V.S -.T.G . % n E W Y / W 8 :.Q.5X}.[.eXbXbXgXzXbXeXnXkXkXnXeXbXkXkXgXkXkXkXkXkX",
"kXzXkXcXzXcXcXzXbXkXcXzXkXkXlXbXjXkXjXzXnXuX=X].A q.H k -.G q x a n _ _ _ 8 I ~ W.a.4.`.uXnXjXzXlXbXkXbXcXhXbXkXkXkXkXkXkXkXkXcX",
"cXbXkXlXlXbXkXlXcXlXbXlXlXbXlXkXjXkXjXbXbXxXyX*X#.3.t # T K.b.n a ~ _ L I K E = ,. .A i.0XxXxXiXkXnXkXlXcXkXbXlXjXkXkXkXkXkXbXkX",
"lXkXcXkXkXkXkXcXzXkXkXkXkXkXcXkXkXkXzXkXxXbXdX0Xd.E.M # m y & 1.Q R U _ _ L I 0 $.O.{ 5.yXfXdXpXbX9XnXkXkXnX9XnXkXkXkXlXkXcXkXlX",
"kXbXzXkXzXcXcXzXcXkXlXkXkXlXbXlXzXbXzXkXiXzXdXiXiXfX5X8.y Z ,.,.1.T n m.' f K W :.$.-.s.5X>X%XiXsXnXeXbXbXeXnXkXkXkXkXlXkXbXkXbX",
"lXkXlXcXcXlXkXlXcXcXbXcXkXbXkXkXkXbXbXbXiXzXdXdX5XE.C.n.,.,.v.1.1.2.^ _ 8 f _ ( @.@.8.s.*XC.C.5XlXtXxXkXlXcXkXkXkXhXkXkXkXkXkXlX",
"kXdXdXlXlXcXkXcXlXcXcXvXcXcXkXbXnXrXkXnXyXaX<Xq.&.&.&.i @.Q ^ >.h j ' j K e K ~ &.^.;XS.C.n.,.a.1XlXnXpXsXnXkXvXcXkXkXkXkXkXkXkX",
"dXkXkXkXcXlXcXcXcXcXcXcXcXlXkXlXlXnXnXuXqXpXE.Q 9 &.&.i ( n.L I 6 2 h U ' i 7 T &.B.R.n.C.T 0.w.%XxXqXbXbXeXnXlXkXcXcXkXkXkXsXsX",
"kXkXkXkXcXcXcXcXvXvXlXbXlXkXkXdXeXpX,X<XaXP.+.e.B.x./ e 2.( 7 ( O O 2 I e X 9 n.,.Z.5Xx.$.O.$.M.,X,XnXqXsXnXwXnXcXkXcXkXlXdXkXdX",
"dXkXsXlXhXhXcXcXbXbXbXlXkXkXdXlXyXfXXXM.n.! y v v.L >.X c c i e 5 f w K &   9 R.&.&XC.S.O.p C.%X$XdXsXdXkXkXvXcXkXcXlXkXlXkXkXkX",
"kXkXkXkXkXkXkXcXlXlXlXlXlXdXdXpXaX&XH.,.R x 8 d >./ (.m.x.O.i 7 / c.I ~ m m Q &.v.$.n.Z.A A p S.,XfXdXlXxXsXcXkXkXcXkXkXkXkXkXsX",
"kXkXkXkXcXkXkXkXlXsXlXdXpXyX,X:X&X1.:.b.~ 8 f U U U D.(.L 7 4 7 L x.W ~ :.v.n.@.[.C.{ u = p W.}.aXqXxXsXkXnXrXnXcXkXcXkXkXkXdXkX",
"kXkXkXkXkXkXkXkXlXsXlXpX1X.X~.F.B.v.1.W s f f 4 3 i i i e i T e & R n n T T M.n.n.C./.v.w.5XaX4XqXxXqXlXnX9XnXkXhXcXcXkXkXkXkXdX",
"kXkXkXkXkXkXkXkXsXlXdX1X$X~.f.9.&.^ n L c 4 4 K r 3 % 3 R.i T 9 . d d e i & &.&.;X;XR.%X-.B.}.aXfXpXlXsXlXnXgXnXkXcXlXlXkXkXdXkX",
"lXlXkXcXlXkXkXlXnXsXlXyX:X{.f.F.&.7 i K r 4 r i K e &.K O.O.p %.y W = & W ! K./.K.H.<.<.K.t.=.aXdXqXqXkXnXkXgXcXcXcXcXkXlXkXlXzX",
"kXkXkXkXcXzXbXkXkXqXxXxXfXfX~.P.O.X   ^ i j o r r 7 9 9 # A } %.e.8 D.m.I E ` 2.! ( m k C ,.H.N..XL.k.|.eXlXkXcXkXcXcXzXzXkXkXzX",
"kXkXcXkXcXkXcXlXlXdXxXlXdXqXd. .O.e 7 ^ w / K U / c e $.p A d.].H.m E b.H.Y ! m G G m n.H.,.9.;.V.l.h.oXbXnXcXgXcXcXcXcXkXlXdXlX",
"lXkXkXkXlXlXbXcXbXbXlXpXdXdX|.s.&.v.^.x./ ` c.P ^ x.b.%.w.U.uX].9.> k <.E 1 _ ! 1.k - ! n.t - f.Y._.OXdXnXnXkXcXcXkXkXkXzXkXzXkX",
"zXzXzXkXkXcXcXcXkXnXlXkXbXxXlX%XaXv._ w f f ` c./ v.y.l P.pXeX<XXX= : C H.=.# G Q y z t J $.O.>XqXqXsXdXsXeXlXnXcXbXcXkXkXkXlXzX",
"dXkXlXkXbXcXcXcXcXnXcXcXkXtXqX.X^.L c U P P j Y c.` a k ,.z.f.xXdX$ #.4XT.l 1 C C M !.G.V.aX4XyXxXfXlXdXkXkXkXkXkXcXlXbXlXkXlXdX",
"lXlXkXkXlXcXcXcXgXvXhXnXnXlXvXyX8.L / U h ) ] ] j ` a a l t.z.:X.X, , }.1X;.C J M.$.}.%XE.qXyXlXdXdXdXnXnXnXkXkXcXcXcXlXkXlXzXkX",
"kXdXlXzXkXcXcXcXvXvXgXvXnXgXbXsXO.i &.f U Y c.] ) W a J T.F.2XE.4.$ N [ d.6.z s.*X X X,XdX,XOXxXdXxXlXsXeXeXkXnXbXlXcXkXzXkXlXdX",
"lXkXlXcXbXkXkXcXcXcXkXkXlXkXkXuX:XY.G.T.J.m.y.9.a 9.J 3.L.X.L.g.{ , X.<XfXS., a.iXiX Xa.[.`. XzXkXkXkXkXkXkXkXkXcXlXcXkXzXlXcXkX",
"kXbXkXkXkXlXcXzXbXkXhXkXkXkXkXkX|.:XyX:Xz.....t.f.;.> z : ..,X6.N + f.OXS.; ; ; [.iXbX=XbXwX0XkXkXkXkXkXkXkXkXkXcXkXkXkXcXkXkXbX",
"kXbXcXzXkXlXlXcXkXkXkXkXkXkXkXkXzXyX:X~.s.t.F.-X2X-X7.H V L.pXfX: + 7.B S.{ 5.{ [.zXbXwXzXzXbXnXkXkXkXkXkXkXkXkXlXkXkXkXkXlXlXkX",
"lXkXlXkXkXbXkXcXkXkXkXkXcXkXkXlXsX<X$X:XyX4XpXpX%XY.s.6.| t.E.:XV >  .{ 5Xa.5.5.*.U.wXiXbXxXzXuXkXkXkXkXkXkXkXkXkXcXkXcXbXcXkXzX",
"kXlXkXkXkXkXkXzXkXkXkXkXlXlXkXkXkXkXlXxXxXxXfXaXXXY.H $ H ..H s.F.B > | { $ u [.bXjXiXbXjXeXlXnXkXkXkXkXkXkXkXkXcXkXlXkXlXcXbXlX",
"kXbXlXbXcXkXcXlXkXkXkXkXkXbXzXkXbXnXzXyXpXqX:X}.L...z.7.H 6.F.z C r.6.F.%.u ; d.*.} h.bXnXkXkXkXkXkXkXkXkXkXkXkXlXzXcXkXkXkXkXkX",
"kXkXkXcXkXkXkXkXkXkXkXhXcXbXkXkXeXjXuXkXxXsX_...k.L.r.S : H L.Y.z F.3. .} %.{ p p < X.yXuXkXcXnXkXkXkXkXkXkXkXkXkXbXlXbXbXcXlXzX",
"lXlXbXkXkXkXkXkXkXkXkXkXlXkXlXkXvXvXlXuXkXeX_.4.p.XX~.T...J 6.~.t.H -.d.w.S.*X{ $ @ o.bXnXnXcXhXkXkXkXkXkXkXkXkXkXkXkXkXlXkXkXcX",
"kXkXkXkXkXkXkXkXlXhXvXkXkXbXhXbXbXbXcXkXzXjXjXuX X0X6.| B >  .t.F.V r.t.6.<X=Xa.$ } ).jXnXgXlXhXkXnXhXlXcXkXnXkXlXcXkXlXcXcXlXkX",
"kXkXkXkXkXkXkXkXkXnXeXnXnXeXnXkXbXcXcXcXcXkXkXsXzXuX4.N B A 7.;.B z.6.7.aXxX%XyXdXS.I.I.9XnXhXnXvXeXnXkXkXnX9XbXcXzXcXzXzXkXkXbX",
"kXkXkXkXkXkXkXkXbXeXnXkXkXnXeXnXcXcXcXcXcXbXzXjXuXnX+X*X<X,X%X6...'.z.~.nXdX=X=XbXiX`.wXnXhXnXrXkXnXeXbXbX9XnXkXkXbXkXkXlXcXlXkX",
"kXkXkXcXkXkXkXkXkXbXkXlXkXhXnXkXkXjXjXcXbXcXbXkXeXxXzXxXxXxXxX:Xg.l.$XxX0XuXnX+XiXwXjXwXhXlXhXnXlXkXbXlXlXnXkXbXlXkXlXcXkXkXzXcX",
"kXkXkXkXkXkXkXkXkXbXkXlXkXkXnXkXjXkXjXcXcXbXcXcXcXcXjXkXqX<XxXxXh.u.rXvXhXnXkXzXnXjXkXeXkXcXkXcXcXkXbXkXkXnXhXlXkXcXkXkXbXkXcXbX",
"kXkXkXkXkXkXlXkXnXeXnXkXkXnXeXbXzXjXkXzXcXbXcXcXcXcXcXnXnXsXyXlX).u.rXvXhXnX7XbXjXnXuXnXnXeXnX9XkXnX9XnXbXeXnXkXkXzXlXlXkXlXlXkX",
"kXkXkXkXkXkXcXkXkXnXeXbXbX9XnXkXkXsXjXbXcXbXcXkXbXbXjXeXbXlXtXnX).o.#XvXcXvXbXbXbXwXnXeXeXnXtXnXnX9XnXkXkXnXeXnXcXbXcXbXbXkXkXkX",
"kXkXkXkXkXkXkXkXcXhXnXkXlXnXjXzXzXsXjXkXbXcXcXjXgXnXvXeXnXnXpXnX#Xk.`.vXnXhXcXcXjXnXkXvXnXkXnXtXlXbXkXcXlXkXbXkXkXlXkXkXlXkXlXbX",
"cXkXkXkXkXcXkXlXcXkXbXkXkXnXhXbXkXsXbXlXkXcXkXcXcXkXcXkXkXlXzXbX@Xh.OXxXtXbXbXkXkXnXjXbXbXkXbXzXlXbXkXlXlXkXbXlXkXlXkXkXcXkXkXkX",
"kXkXkXkXkXkXkXhXkXnXeXnXnX9XnXkXkXnX9XnXbXrXnXhXkXkXkXkXkXcXcXbX@XI.9XxXsXlXlXsXnXeXnXuXjXnXwXbXvXeXnXkXkXnXeXbXkXlXkXkXkXkXkXkX",
"kXkXkXkXkXkXkXkXbXeXnXhXkXnXeXnXbXeXnXkXsXnXeXbXkXkXkXkXkXzXlXxX@X|.tXlXdXlXkXlXsXnXwXnXnXwXnXjXkXnXeXbXnX9XnXkXkXkXkXkXkXkXkXkX",
"kXkXkXkXkXkXkXkXkXbXkXcXcXtXnXkXkXvXtXcXlXkXcXlXkXkXkXkXkXlXlXbX'.'.tXsXkXlXtXnXbXsXbXkXkXnXjXbXkXkXvXlXkXbXkXcXkXkXkXkXkXkXkXkX",
"kXkXkXkXkXkXkXkXkXnXkXbXcXkXbXkXkXbXtXkXcXhXbXlXcXkXkXkXkXkXbXlX'.|.tXlXlXlXtXnXbXsXnXkXzXbXjXbXcXkXnXlXkXbXhXbXkXkXkXkXkXkXkXkX",
"kXkXcXkXkXkXkXkXnXeXnXhXkXnX9XnXbXeXnXkXsXnXeXbXkXkXkXkXkXlXlXbX$X'.qXlXdXxXsXlXsXnXeXbXbXwXnXjXkXnX9XbXbXeXnXkXkXkXkXkXkXkXkXkX",
"kXcXlXkXkXkXkXkXtXnXeXbXbXeXnXkXkXnX9XbXbXeXnXhXlXkXkXkXcXzXcXlX$Xz.$XlXlXlXkXkXbX9XnXkXkXnXwXbXbXeXnXkXkXnXeXnXkXkXkXkXcXkXkXkX",
"kXhXkXkXkXkXkXkXcXkXbXlXlXbXkXlXlXhXnXhXkXnXgXcXcXkXkXkXkXkXbXbX@X4.`.sXsXdXbXlXkXbXkXzXbXjXbXiXkXbXkXlXlXhXnXkXkXkXcXlXhXkXkXkX",
"cXzXkXcXbXkXbXlXkXkXkXkXkXkXkXkXkXkXkXkXkXkXkXkXkXkXcXkXkXlXlXxX$X1 z.vXtXlXlXlXkXkXkXzXkXkXjXbXcXkXkXkXkXkXkXkXkXkXkXkXkXkXkXkX",
"kXcXlXzXlXkXkXkXlXlXkXkXkXkXkXcXkXkXkXkXkXcXkXkXkXkXlXkXkXlXbXbX@X> u.lXsXxXlXlXsXkXzXjXkXkXbXjXhXkXkXkXkXkXkXkXkXkXkXkXkXkXkXkX",
"kXlXkXlXkXkXlXkXkXkXkXkXkXkXkXkXkXkXkXkXkXkXkXkXkXkXcXzXkXkXbXnX'.1 u.lXnXlXtXlXkXkXkXzXkXkXjXbXlXcXkXkXkXkXkXkXkXkXkXcXkXkXkXhX",
"kXbXkXlXbXcXbXcXkXkXkXkXkXkXkXkXkXkXkXkXkXkXkXkXkXkXlXcXkXkXlXbXh.1 z.lXxXsXsXbXkXkXkXzXkXkXbXjXkXkXkXkXkXkXkXkXkXkXkXkXkXkXlXcX",
"kXzXcXkXkXkXbXkXkXkXkXcXkXkXkXkXkXkXkXkXkXkXkXkXkXkXcXkXkXkXlXcXk.l.|.tXsXlXlXlXkXkXzXjXzXkXbXjXkXkXkXkXkXcXkXkXkXkXkXkXkXkXkXkX",
"lXcXcXlXkXcXlXkXkXkXkXlXkXkXkXkXkXkXkXkXkXkXkXkXkXlXkXkXkXkXkXkXtX9X9XtXsXnXnXtXsXkXkXkXjXbXjXbXkXkXkXkXkXkXkXkXkXkXkXkXkXkXkXkX",
"kXbXzXkXkXkXkXcXkXkXhXcXkXkXkXkXkXkXlXkXkXkXcXkXlXcXbXkXkXkXlXxXnXnXlXdXlXlXkXsXkXkXkXbXbXkXcXjXkXkXkXkXkXkXkXkXkXkXkXkXkXkXcXkX",
"kXkXlXcXkXcXkXlXkXkXkXkXkXkXkXkXkXcXlXkXkXkXkXkXzXlXbXkXlXlXlXlX9XsXsXlXdXqXkXnXkXkXkXjXzXkXjXkXkXkXkXkXkXcXhXkXkXkXkXkXkXkXkXkX"
};
